<?xml version="1.0" standalone="no"?>
<!DOCTYPE svg PUBLIC "-//W3C//DTD SVG 1.1//EN" "http://www.w3.org/Graphics/SVG/1.1/DTD/svg11.dtd" >
<svg>
<metadata>
Created by FontForge 20090622 at Sat May 26 08:11:06 2018
 By deploy user
Copyright (c) 2012 by Mika Melvas. All rights reserved.
</metadata>
<defs>
<font id="iCielAlina" horiz-adv-x="282" >
  <font-face 
    font-family="iCiel Alina"
    font-weight="400"
    font-stretch="normal"
    units-per-em="1000"
    panose-1="0 0 0 0 0 0 0 0 0 0"
    ascent="800"
    descent="-200"
    x-height="420"
    cap-height="801"
    bbox="-173.021 -493 1072.86 1168.52"
    underline-thickness="50"
    underline-position="-50"
    unicode-range="U+000D-U+FB04"
  />
<missing-glyph horiz-adv-x="195" 
 />
    <glyph glyph-name="cedilla" unicode="b&#x1ed5;" horiz-adv-x="190" 
d="M63 6h48l-10 -36q27 0 40.5 -10.5t12.5 -31.5q-1 -39 -45 -74q-23 -19 -47 -14q-23 5 -15 20q40 23 50 47q5 13 -1 19t-25 6q-25 9 -21 28q7 31 13 46z" />
    <glyph glyph-name="uhorn" unicode="v&#x1ed5;" 
d="M244 344h-2q-32 -267 -6 -267q7 0 19 18q27 39 50 106q9 7 21 -11q12 -19 4 -43q-50 -147 -121 -147q-35 0 -47 72q-27 -76 -77 -76q-65 0 -71 129q-5 101 20 214q10 53 45 78q32 25 40 5q-34 -159 -37 -263q-2 -90 20 -90q34 0 57 128q3 72 14 149q4 41 43 66q13 8 22 8
v6q1 37 -31 50q-6 7 3 17q10 12 34 12q31 0 46 -21q16 -22 8 -58q-7 -29 -54 -82z" />
    <glyph glyph-name="uni1EA0" unicode="w&#x1ed5;" horiz-adv-x="656" 
d="M259 198q78 189 114 361q18 25 38 -13t12 -80q-20 -116 -88 -268q31 0 99 3q59 3 75 2q-17 105 -30 220q-23 185 -32 234q-19 90 -52 90q-31 0 -82 -51q-52 -52 -82 -111q-36 -69 -27 -112q12 -51 86 -51q9 -14 -7 -35q-18 -23 -56 -23q-81 0 -95 68q-13 60 28 151
q40 87 108 150q74 68 143 68q100 0 133 -242q50 -369 69 -452q41 -179 74 -179q16 0 85 39q31 -15 5 -53q-25 -36 -77 -47q-48 -9 -86.5 34.5t-67.5 140.5q-13 43 -28 111q-104 -6 -210 -10q-96 -187 -182 -187q-75 0 -101 122q-24 116 20 190q17 26 39 29t30 -12
q-21 -65 -18 -167q5 -107 37 -107q40 0 101 130h-9q-48 -2 -65 24q-15 23 -2 45q38 -8 101 -12zM370 -219q-8 18 -8 37q2 53 46 53q43 0 29 -65q-9 -42 -47 -42q-12 0 -20 17z" />
    <glyph glyph-name="uni1EA1" unicode="yj" 
d="M169 77q-26 -83 -80 -83q-45 0 -64 69q-17 63 -6 152q12 88 47 151q41 69 95 69q41 0 62 -25q19 -20 17 -52q-2 -31 -18 -47q-19 -19 -47 -8q9 31 4 59q-5 27 -20 27q-36 0 -62 -161q-24 -161 8 -161q37 0 64 201q21 10 45 -2q26 -14 24 -42l-5 -104q-3 -43 6 -43
q7 0 19 18q30 44 50 106q10 7 21 -11q13 -19 4 -43q-49 -147 -117 -147q-36 0 -47 77zM88 -184q-8 18 -8 37q2 53 46 53q43 0 29 -65q-9 -42 -47 -42q-12 0 -20 17z" />
    <glyph glyph-name="uni1EA2" unicode="gj" horiz-adv-x="656" 
d="M259 198q78 189 114 361q18 25 38 -13t12 -80q-20 -116 -88 -268q31 0 99 3q59 3 75 2q-17 105 -30 220q-23 185 -32 234q-19 90 -52 90q-31 0 -82 -51q-52 -52 -82 -111q-36 -69 -27 -112q12 -51 86 -51q9 -14 -7 -35q-18 -23 -56 -23q-81 0 -95 68q-13 60 28 151
q40 87 108 150q74 68 143 68q100 0 133 -242q50 -369 69 -452q41 -179 74 -179q16 0 85 39q31 -15 5 -53q-25 -36 -77 -47q-48 -9 -86.5 34.5t-67.5 140.5q-13 43 -28 111q-104 -6 -210 -10q-96 -187 -182 -187q-75 0 -101 122q-24 116 20 190q17 26 39 29t30 -12
q-21 -65 -18 -167q5 -107 37 -107q40 0 101 130h-9q-48 -2 -65 24q-15 23 -2 45q38 -8 101 -12zM385 1019q11 12 32 15q31 3 49 -17t14 -56q-4 -31 -45 -87l-42 -5q30 49 27 86q-1 37 -36 46q-7 5 1 18z" />
    <glyph glyph-name="uni1EA3" unicode="fj" 
d="M169 77q-26 -83 -80 -83q-45 0 -64 69q-17 63 -6 152q12 88 47 151q41 69 95 69q41 0 62 -25q19 -20 17 -52q-2 -31 -18 -47q-19 -19 -47 -8q9 31 4 59q-5 27 -20 27q-36 0 -62 -161q-24 -161 8 -161q37 0 64 201q21 10 45 -2q26 -14 24 -42l-5 -104q-3 -43 6 -43
q7 0 19 18q30 44 50 106q10 7 21 -11q13 -19 4 -43q-49 -147 -117 -147q-36 0 -47 77zM126 663q11 12 32 15q31 3 49 -17t14 -56q-5 -31 -45 -87l-42 -5q30 49 27 86q-1 37 -36 46q-7 5 1 18z" />
    <glyph glyph-name="uni1EA4" unicode="qj" horiz-adv-x="656" 
d="M414 932q-32 -50 -47 -68q-9 -10 -23 -7q-13 3 -12 13q35 80 74 131q6 8 15 8t14 -8q58 -129 58 -131q5 -11 -13 -14q-19 -2 -32 16q-24 38 -34 60zM259 198q78 189 114 361q18 25 38 -13t12 -80q-20 -116 -88 -268q31 0 99 3q59 3 75 2q-17 105 -30 220q-23 185 -32 234
q-19 90 -52 90q-31 0 -82 -51q-52 -52 -82 -111q-36 -69 -27 -112q12 -51 86 -51q9 -14 -7 -35q-18 -23 -56 -23q-81 0 -95 68q-13 60 28 151q40 87 108 150q74 68 143 68q100 0 133 -242q50 -369 69 -452q41 -179 74 -179q16 0 85 39q31 -15 5 -53q-25 -36 -77 -47
q-48 -9 -86.5 34.5t-67.5 140.5q-13 43 -28 111q-104 -6 -210 -10q-96 -187 -182 -187q-75 0 -101 122q-24 116 20 190q17 26 39 29t30 -12q-21 -65 -18 -167q5 -107 37 -107q40 0 101 130h-9q-48 -2 -65 24q-15 23 -2 45q38 -8 101 -12zM556 1132q23 -22 16 -56
q-8 -41 -56 -86q-15 -13 -28 -12q-12 1 -10 12q39 111 47 144q8 20 31 -2z" />
    <glyph glyph-name="uni1EA5" unicode="qg" 
d="M169 620q-32 -50 -47 -68q-9 -10 -23 -7q-13 3 -12 13q35 80 74 131q6 8 16 8q8 0 13 -8q58 -129 58 -131q5 -11 -13 -14q-19 -2 -32 16q-24 38 -34 60zM169 77q-26 -83 -80 -83q-45 0 -64 69q-17 63 -6 152q12 88 47 151q41 69 95 69q41 0 62 -25q19 -20 17 -52
q-2 -31 -18 -47q-19 -19 -47 -8q9 31 4 59q-5 27 -20 27q-36 0 -62 -161q-24 -161 8 -161q37 0 64 201q21 10 45 -2q26 -14 24 -42l-5 -104q-3 -43 6 -43q7 0 19 18q30 44 50 106q10 7 21 -11q13 -19 4 -43q-49 -147 -117 -147q-36 0 -47 77zM328 835q23 -22 16 -56
q-8 -41 -56 -86q-15 -13 -28 -12q-12 1 -10 12q39 111 47 144q8 20 31 -2z" />
    <glyph glyph-name="uni1EA6" unicode="qy" horiz-adv-x="656" 
d="M414 932q-32 -50 -47 -68q-9 -10 -23 -7q-13 3 -12 13q35 80 74 131q6 8 15 8t14 -8q58 -129 58 -131q5 -11 -13 -14q-19 -2 -32 16q-24 38 -34 60zM259 198q78 189 114 361q18 25 38 -13t12 -80q-20 -116 -88 -268q31 0 99 3q59 3 75 2q-17 105 -30 220q-23 185 -32 234
q-19 90 -52 90q-31 0 -82 -51q-52 -52 -82 -111q-36 -69 -27 -112q12 -51 86 -51q9 -14 -7 -35q-18 -23 -56 -23q-81 0 -95 68q-13 60 28 151q40 87 108 150q74 68 143 68q100 0 133 -242q50 -369 69 -452q41 -179 74 -179q16 0 85 39q31 -15 5 -53q-25 -36 -77 -47
q-48 -9 -86.5 34.5t-67.5 140.5q-13 43 -28 111q-104 -6 -210 -10q-96 -187 -182 -187q-75 0 -101 122q-24 116 20 190q17 26 39 29t30 -12q-21 -65 -18 -167q5 -107 37 -107q40 0 101 130h-9q-48 -2 -65 24q-15 23 -2 45q38 -8 101 -12zM551 964q3 -10 -9 -12
q-13 -1 -29 12q-48 45 -56 86q-8 35 17 56q23 21 30 2q14 -51 47 -144z" />
    <glyph glyph-name="uni1EB3" unicode="t&#x1ed5;" 
d="M223 568q-25 -24 -59 -24q-33 0 -53 23q-18 19 -18 47q0 23 13 35q12 11 19 4q8 -53 41 -53q40 0 56 58q10 6 21 -3q12 -11 9 -34q-5 -32 -29 -53zM169 77q-26 -83 -80 -83q-45 0 -64 69q-17 63 -6 152q12 88 47 151q41 69 95 69q41 0 62 -25q19 -20 17 -52
q-2 -31 -18 -47q-19 -19 -47 -8q9 31 4 59q-5 27 -20 27q-36 0 -62 -161q-24 -161 8 -161q37 0 64 201q21 10 45 -2q26 -14 24 -42l-5 -104q-3 -43 6 -43q7 0 19 18q30 44 50 106q10 7 21 -11q13 -19 4 -43q-49 -147 -117 -147q-36 0 -47 77zM147 834q11 12 32 15
q31 3 49 -17t14 -56q-4 -32 -45 -87l-42 -5q30 49 27 86q-1 37 -36 46q-7 5 1 18z" />
    <glyph glyph-name="uni1EB4" unicode="ll" horiz-adv-x="656" 
d="M475 881q-25 -24 -58 -24t-53 23q-18 19 -18 47q0 23 12 35q13 11 20 4q8 -53 41 -53q40 0 56 58q11 6 21 -3q12 -11 9 -34q-5 -31 -30 -53zM259 198q78 189 114 361q18 25 38 -13t12 -80q-20 -116 -88 -268q31 0 99 3q59 3 75 2q-17 105 -30 220q-23 185 -32 234
q-19 90 -52 90q-31 0 -82 -51q-52 -52 -82 -111q-36 -69 -27 -112q12 -51 86 -51q9 -14 -7 -35q-18 -23 -56 -23q-81 0 -95 68q-13 60 28 151q40 87 108 150q74 68 143 68q100 0 133 -242q50 -369 69 -452q41 -179 74 -179q16 0 85 39q31 -15 5 -53q-25 -36 -77 -47
q-48 -9 -86.5 34.5t-67.5 140.5q-13 43 -28 111q-104 -6 -210 -10q-96 -187 -182 -187q-75 0 -101 122q-24 116 20 190q17 26 39 29t30 -12q-21 -65 -18 -167q5 -107 37 -107q40 0 101 130h-9q-48 -2 -65 24q-15 23 -2 45q38 -8 101 -12zM440 1050q-33 16 -52 -24
q-13 -4 -19 9q-5 12 -1 29q11 47 53 47q3 0 57 -22q31 -12 45 26q16 4 23 -9q6 -13 2 -32q-11 -50 -52 -50q-1 0 -56 26z" />
    <glyph glyph-name="uni1EB6" unicode="&#x1eb2;&#x1eb2;" horiz-adv-x="656" 
d="M475 881q-25 -24 -58 -24t-53 23q-18 19 -18 47q0 23 12 35q13 11 20 4q8 -53 41 -53q40 0 56 58q11 6 21 -3q12 -11 9 -34q-5 -31 -30 -53zM259 198q78 189 114 361q18 25 38 -13t12 -80q-20 -116 -88 -268q31 0 99 3q59 3 75 2q-17 105 -30 220q-23 185 -32 234
q-19 90 -52 90q-31 0 -82 -51q-52 -52 -82 -111q-36 -69 -27 -112q12 -51 86 -51q9 -14 -7 -35q-18 -23 -56 -23q-81 0 -95 68q-13 60 28 151q40 87 108 150q74 68 143 68q100 0 133 -242q50 -369 69 -452q41 -179 74 -179q16 0 85 39q31 -15 5 -53q-25 -36 -77 -47
q-48 -9 -86.5 34.5t-67.5 140.5q-13 43 -28 111q-104 -6 -210 -10q-96 -187 -182 -187q-75 0 -101 122q-24 116 20 190q17 26 39 29t30 -12q-21 -65 -18 -167q5 -107 37 -107q40 0 101 130h-9q-48 -2 -65 24q-15 23 -2 45q38 -8 101 -12zM370 -219q-8 18 -8 37q2 53 46 53
q43 0 29 -65q-9 -42 -47 -42q-12 0 -20 17z" />
    <glyph glyph-name="uni1EB7" unicode="bb" 
d="M223 568q-25 -24 -59 -24q-33 0 -53 23q-18 19 -18 47q0 23 13 35q12 11 19 4q8 -53 41 -53q40 0 56 58q10 6 21 -3q12 -11 9 -34q-5 -32 -29 -53zM169 77q-26 -83 -80 -83q-45 0 -64 69q-17 63 -6 152q12 88 47 151q41 69 95 69q41 0 62 -25q19 -20 17 -52
q-2 -31 -18 -47q-19 -19 -47 -8q9 31 4 59q-5 27 -20 27q-36 0 -62 -161q-24 -161 8 -161q37 0 64 201q21 10 45 -2q26 -14 24 -42l-5 -104q-3 -43 6 -43q7 0 19 18q30 44 50 106q10 7 21 -11q13 -19 4 -43q-49 -147 -117 -147q-36 0 -47 77zM88 -184q-8 18 -8 37
q2 53 46 53q43 0 29 -65q-9 -42 -47 -42q-12 0 -20 17z" />
    <glyph glyph-name="uni1EB8" unicode="cc" horiz-adv-x="512" 
d="M195 706q-42 -37 -61 -100q-42 -141 53 -252q47 15 93 15q84 0 87 -45q0 -19 -26 -33q-23 -13 -53 -13q-52 0 -98 17q-49 -25 -76 -75q-25 -46 -22 -94q3 -50 36 -81q37 -34 100 -34q83 0 140 81q48 69 53 153q37 7 51 -37q13 -43 -8 -100q-56 -152 -242 -152
q-96 0 -154 44q-51 39 -59 104q-7 62 24 123q35 65 97 102q-60 48 -81 129q-21 79 1 156q22 82 84 132q67 55 163 55q151 0 189 -128q16 -53 0 -108q-17 -56 -62 -92q-25 -21 -59 -10q-31 10 -28 26q88 73 68 166q-18 91 -106 91q-60 0 -104 -40zM219 -219q-8 18 -8 37
q2 53 46 53q43 0 29 -65q-9 -42 -47 -42q-12 0 -20 17z" />
    <glyph glyph-name="uni1EB9" unicode="dd" horiz-adv-x="235" 
d="M208 395q14 -37 2 -89q-12 -53 -43 -90q-35 -41 -79 -43q0 -120 55 -120q64 0 115 148q10 7 21 -11q12 -19 4 -43q-25 -72 -70 -115q-43 -42 -93 -42q-57 0 -86 63q-25 53 -20 140q4 94 40 165q39 77 97 77q41 0 57 -40zM113 332q-19 -59 -23 -124q45 26 65 105
q8 32 5 53q-2 23 -13 23q-16 0 -34 -57zM88 -184q-8 18 -8 37q2 53 46 53q43 0 29 -65q-9 -42 -47 -42q-12 0 -20 17z" />
    <glyph glyph-name="uni1EBA" unicode="ee" horiz-adv-x="512" 
d="M195 706q-42 -37 -61 -100q-42 -141 53 -252q47 15 93 15q84 0 87 -45q0 -19 -26 -33q-23 -13 -53 -13q-52 0 -98 17q-49 -25 -76 -75q-25 -46 -22 -94q3 -50 36 -81q37 -34 100 -34q83 0 140 81q48 69 53 153q37 7 51 -37q13 -43 -8 -100q-56 -152 -242 -152
q-96 0 -154 44q-51 39 -59 104q-7 62 24 123q35 65 97 102q-60 48 -81 129q-21 79 1 156q22 82 84 132q67 55 163 55q151 0 189 -128q16 -53 0 -108q-17 -56 -62 -92q-25 -21 -59 -10q-31 10 -28 26q88 73 68 166q-18 91 -106 91q-60 0 -104 -40zM254 1016q11 12 32 15
q31 3 49 -17t14 -56q-5 -32 -45 -87l-42 -5q30 49 27 86q-1 37 -36 46q-7 5 1 18z" />
    <glyph glyph-name="uni1EBB" unicode="ff" horiz-adv-x="235" 
d="M208 395q14 -37 2 -89q-12 -53 -43 -90q-35 -41 -79 -43q0 -120 55 -120q64 0 115 148q10 7 21 -11q12 -19 4 -43q-25 -72 -70 -115q-43 -42 -93 -42q-57 0 -86 63q-25 53 -20 140q4 94 40 165q39 77 97 77q41 0 57 -40zM113 332q-19 -59 -23 -124q45 26 65 105
q8 32 5 53q-2 23 -13 23q-16 0 -34 -57zM126 663q11 12 32 15q31 3 49 -17t14 -56q-5 -31 -45 -87l-42 -5q30 49 27 86q-1 37 -36 46q-7 5 1 18z" />
    <glyph glyph-name="uni1EBC" unicode="ff&#x1ed5;" horiz-adv-x="512" 
d="M195 706q-42 -37 -61 -100q-42 -141 53 -252q47 15 93 15q84 0 87 -45q0 -19 -26 -33q-23 -13 -53 -13q-52 0 -98 17q-49 -25 -76 -75q-25 -46 -22 -94q3 -50 36 -81q37 -34 100 -34q83 0 140 81q48 69 53 153q37 7 51 -37q13 -43 -8 -100q-56 -152 -242 -152
q-96 0 -154 44q-51 39 -59 104q-7 62 24 123q35 65 97 102q-60 48 -81 129q-21 79 1 156q22 82 84 132q67 55 163 55q151 0 189 -128q16 -53 0 -108q-17 -56 -62 -92q-25 -21 -59 -10q-31 10 -28 26q88 73 68 166q-18 91 -106 91q-60 0 -104 -40zM263 924q-33 16 -52 -24
q-13 -4 -19 9q-5 12 -1 29q11 47 53 47q3 0 57 -22q31 -12 45 26q16 4 23 -9q6 -13 2 -32q-11 -50 -52 -50q-1 0 -56 26z" />
    <glyph glyph-name="uni1EBD" unicode="gg" horiz-adv-x="235" 
d="M208 395q14 -37 2 -89q-12 -53 -43 -90q-35 -41 -79 -43q0 -120 55 -120q64 0 115 148q10 7 21 -11q12 -19 4 -43q-25 -72 -70 -115q-43 -42 -93 -42q-57 0 -86 63q-25 53 -20 140q4 94 40 165q39 77 97 77q41 0 57 -40zM113 332q-19 -59 -23 -124q45 26 65 105
q8 32 5 53q-2 23 -13 23q-16 0 -34 -57zM138 597q-33 16 -52 -24q-13 -4 -19 9q-5 12 -1 29q11 47 53 47q3 0 57 -22q31 -12 45 26q16 4 23 -9q6 -13 2 -32q-11 -50 -52 -50q-1 0 -56 26z" />
    <glyph glyph-name="uni1EBE" unicode="hh" horiz-adv-x="512" 
d="M287 932q-32 -50 -47 -68q-9 -10 -23 -7q-13 3 -12 13q32 76 74 131q6 8 15 8t14 -8q58 -129 58 -131q5 -11 -13 -14q-19 -2 -32 16q-19 29 -34 60zM195 706q-42 -37 -61 -100q-42 -141 53 -252q47 15 93 15q84 0 87 -45q0 -19 -26 -33q-23 -13 -53 -13q-52 0 -98 17
q-49 -25 -76 -75q-25 -46 -22 -94q3 -50 36 -81q37 -34 100 -34q83 0 140 81q48 69 53 153q37 7 51 -37q13 -43 -8 -100q-56 -152 -242 -152q-96 0 -154 44q-51 39 -59 104q-7 62 24 123q35 65 97 102q-60 48 -81 129q-21 79 1 156q22 82 84 132q67 55 163 55
q151 0 189 -128q16 -53 0 -108q-17 -56 -62 -92q-25 -21 -59 -10q-31 10 -28 26q88 73 68 166q-18 91 -106 91q-60 0 -104 -40zM445 1136q23 -22 16 -56q-8 -41 -56 -86q-15 -13 -28 -12q-12 1 -10 12q39 111 47 144q8 20 31 -2z" />
    <glyph glyph-name="uni1EBF" unicode="ii" horiz-adv-x="235" 
d="M158 620q-32 -50 -47 -68q-10 -10 -24 -7q-12 3 -11 13q32 76 74 131q6 8 15 8t14 -8q58 -129 58 -131q5 -11 -14 -14q-18 -1 -31 16q-19 29 -34 60zM208 395q14 -37 2 -89q-12 -53 -43 -90q-35 -41 -79 -43q0 -120 55 -120q64 0 115 148q10 7 21 -11q12 -19 4 -43
q-25 -72 -70 -115q-43 -42 -93 -42q-57 0 -86 63q-25 53 -20 140q4 94 40 165q39 77 97 77q41 0 57 -40zM113 332q-19 -59 -23 -124q45 26 65 105q8 32 5 53q-2 23 -13 23q-16 0 -34 -57zM292 825q23 -22 16 -56q-8 -41 -56 -86q-15 -13 -28 -12q-12 1 -10 12q39 111 47 144
q8 20 31 -2z" />
    <glyph glyph-name="uni1EC0" unicode="kk" horiz-adv-x="512" 
d="M287 932q-32 -50 -47 -68q-9 -10 -23 -7q-13 3 -12 13q32 76 74 131q6 8 15 8t14 -8q58 -129 58 -131q5 -11 -13 -14q-19 -2 -32 16q-19 29 -34 60zM195 706q-42 -37 -61 -100q-42 -141 53 -252q47 15 93 15q84 0 87 -45q0 -19 -26 -33q-23 -13 -53 -13q-52 0 -98 17
q-49 -25 -76 -75q-25 -46 -22 -94q3 -50 36 -81q37 -34 100 -34q83 0 140 81q48 69 53 153q37 7 51 -37q13 -43 -8 -100q-56 -152 -242 -152q-96 0 -154 44q-51 39 -59 104q-7 62 24 123q35 65 97 102q-60 48 -81 129q-21 79 1 156q22 82 84 132q67 55 163 55
q151 0 189 -128q16 -53 0 -108q-17 -56 -62 -92q-25 -21 -59 -10q-31 10 -28 26q88 73 68 166q-18 91 -106 91q-60 0 -104 -40zM445 984q3 -10 -9 -12q-13 -1 -29 12q-48 45 -56 86q-8 35 17 56q23 21 30 2q14 -51 47 -144z" />
    <glyph glyph-name="uni1EC1" unicode="mm" horiz-adv-x="235" 
d="M158 620q-32 -50 -47 -68q-10 -10 -24 -7q-12 3 -11 13q32 76 74 131q6 8 15 8t14 -8q58 -129 58 -131q5 -11 -14 -14q-18 -1 -31 16q-19 29 -34 60zM208 395q14 -37 2 -89q-12 -53 -43 -90q-35 -41 -79 -43q0 -120 55 -120q64 0 115 148q10 7 21 -11q12 -19 4 -43
q-25 -72 -70 -115q-43 -42 -93 -42q-57 0 -86 63q-25 53 -20 140q4 94 40 165q39 77 97 77q41 0 57 -40zM113 332q-19 -59 -23 -124q45 26 65 105q8 32 5 53q-2 23 -13 23q-16 0 -34 -57zM294 667q3 -11 -9 -12q-13 -1 -29 12q-48 45 -56 86q-8 35 17 56q23 21 30 2
q14 -51 47 -144z" />
    <glyph glyph-name="uni1EC2" unicode="nn" horiz-adv-x="512" 
d="M287 932q-32 -50 -47 -68q-9 -10 -23 -7q-13 3 -12 13q32 76 74 131q6 8 15 8t14 -8q58 -129 58 -131q5 -11 -13 -14q-19 -2 -32 16q-19 29 -34 60zM195 706q-42 -37 -61 -100q-42 -141 53 -252q47 15 93 15q84 0 87 -45q0 -19 -26 -33q-23 -13 -53 -13q-52 0 -98 17
q-49 -25 -76 -75q-25 -46 -22 -94q3 -50 36 -81q37 -34 100 -34q83 0 140 81q48 69 53 153q37 7 51 -37q13 -43 -8 -100q-56 -152 -242 -152q-96 0 -154 44q-51 39 -59 104q-7 62 24 123q35 65 97 102q-60 48 -81 129q-21 79 1 156q22 82 84 132q67 55 163 55
q151 0 189 -128q16 -53 0 -108q-17 -56 -62 -92q-25 -21 -59 -10q-31 10 -28 26q88 73 68 166q-18 91 -106 91q-60 0 -104 -40zM364 1097q11 12 32 15q31 3 49 -17t14 -56q-5 -31 -45 -87l-42 -5q30 49 27 86q-1 37 -36 46q-7 5 1 18z" />
    <glyph glyph-name="uni1EC3" unicode="oo" horiz-adv-x="235" 
d="M158 620q-32 -50 -47 -68q-10 -10 -24 -7q-12 3 -11 13q32 76 74 131q6 8 15 8t14 -8q58 -129 58 -131q5 -11 -14 -14q-18 -1 -31 16q-19 29 -34 60zM208 395q14 -37 2 -89q-12 -53 -43 -90q-35 -41 -79 -43q0 -120 55 -120q64 0 115 148q10 7 21 -11q12 -19 4 -43
q-25 -72 -70 -115q-43 -42 -93 -42q-57 0 -86 63q-25 53 -20 140q4 94 40 165q39 77 97 77q41 0 57 -40zM113 332q-19 -59 -23 -124q45 26 65 105q8 32 5 53q-2 23 -13 23q-16 0 -34 -57zM207 794q11 12 32 15q31 3 49 -17t14 -56q-4 -32 -45 -87l-42 -5q30 49 27 86
q-1 37 -36 46q-7 5 1 18z" />
    <glyph glyph-name="uni1EC4" unicode="oo&#x1ed5;" horiz-adv-x="512" 
d="M287 932q-32 -50 -47 -68q-9 -10 -23 -7q-13 3 -12 13q32 76 74 131q6 8 15 8t14 -8q58 -129 58 -131q5 -11 -13 -14q-19 -2 -32 16q-19 29 -34 60zM195 706q-42 -37 -61 -100q-42 -141 53 -252q47 15 93 15q84 0 87 -45q0 -19 -26 -33q-23 -13 -53 -13q-52 0 -98 17
q-49 -25 -76 -75q-25 -46 -22 -94q3 -50 36 -81q37 -34 100 -34q83 0 140 81q48 69 53 153q37 7 51 -37q13 -43 -8 -100q-56 -152 -242 -152q-96 0 -154 44q-51 39 -59 104q-7 62 24 123q35 65 97 102q-60 48 -81 129q-21 79 1 156q22 82 84 132q67 55 163 55
q151 0 189 -128q16 -53 0 -108q-17 -56 -62 -92q-25 -21 -59 -10q-31 10 -28 26q88 73 68 166q-18 91 -106 91q-60 0 -104 -40zM314 1055q-33 16 -52 -24q-13 -4 -19 9q-5 12 -1 29q11 47 53 47q3 0 57 -22q31 -12 45 26q16 4 23 -9q6 -13 2 -32q-11 -50 -52 -50
q-1 0 -56 26z" />
    <glyph glyph-name="uni1EC5" unicode="pp" horiz-adv-x="235" 
d="M158 620q-32 -50 -47 -68q-10 -10 -24 -7q-12 3 -11 13q32 76 74 131q6 8 15 8t14 -8q58 -129 58 -131q5 -11 -14 -14q-18 -1 -31 16q-19 29 -34 60zM208 395q14 -37 2 -89q-12 -53 -43 -90q-35 -41 -79 -43q0 -120 55 -120q64 0 115 148q10 7 21 -11q12 -19 4 -43
q-25 -72 -70 -115q-43 -42 -93 -42q-57 0 -86 63q-25 53 -20 140q4 94 40 165q39 77 97 77q41 0 57 -40zM113 332q-19 -59 -23 -124q45 26 65 105q8 32 5 53q-2 23 -13 23q-16 0 -34 -57zM233 763q-33 16 -52 -24q-13 -4 -19 9q-5 12 -1 29q11 47 53 47q3 0 57 -22
q31 -12 45 26q16 4 23 -9q6 -13 2 -32q-11 -50 -52 -50q-1 0 -56 26z" />
    <glyph glyph-name="uni1EC6" unicode="qq" horiz-adv-x="512" 
d="M287 932q-32 -50 -47 -68q-9 -10 -23 -7q-13 3 -12 13q32 76 74 131q6 8 15 8t14 -8q58 -129 58 -131q5 -11 -13 -14q-19 -2 -32 16q-19 29 -34 60zM195 706q-42 -37 -61 -100q-42 -141 53 -252q47 15 93 15q84 0 87 -45q0 -19 -26 -33q-23 -13 -53 -13q-52 0 -98 17
q-49 -25 -76 -75q-25 -46 -22 -94q3 -50 36 -81q37 -34 100 -34q83 0 140 81q48 69 53 153q37 7 51 -37q13 -43 -8 -100q-56 -152 -242 -152q-96 0 -154 44q-51 39 -59 104q-7 62 24 123q35 65 97 102q-60 48 -81 129q-21 79 1 156q22 82 84 132q67 55 163 55
q151 0 189 -128q16 -53 0 -108q-17 -56 -62 -92q-25 -21 -59 -10q-31 10 -28 26q88 73 68 166q-18 91 -106 91q-60 0 -104 -40zM219 -219q-8 18 -8 37q2 53 46 53q43 0 29 -65q-9 -42 -47 -42q-12 0 -20 17z" />
    <glyph glyph-name="uni1EC7" unicode="&#x1ed5;&#x1ed5;" horiz-adv-x="235" 
d="M158 620q-32 -50 -47 -68q-10 -10 -24 -7q-12 3 -11 13q32 76 74 131q6 8 15 8t14 -8q58 -129 58 -131q5 -11 -14 -14q-18 -1 -31 16q-19 29 -34 60zM208 395q14 -37 2 -89q-12 -53 -43 -90q-35 -41 -79 -43q0 -120 55 -120q64 0 115 148q10 7 21 -11q12 -19 4 -43
q-25 -72 -70 -115q-43 -42 -93 -42q-57 0 -86 63q-25 53 -20 140q4 94 40 165q39 77 97 77q41 0 57 -40zM113 332q-19 -59 -23 -124q45 26 65 105q8 32 5 53q-2 23 -13 23q-16 0 -34 -57zM88 -184q-8 18 -8 37q2 53 46 53q43 0 29 -65q-9 -42 -47 -42q-12 0 -20 17z" />
    <glyph glyph-name="uni1EC8" unicode="iti" horiz-adv-x="376" 
d="M65 0q-31 28 -23 69q4 19 11 26.5t17 3.5q12 -23 55 -54t61 -31q69 0 88 331q10 161 -9 270q-23 126 -78 126q-32 0 -62 -62q-30 -61 -36 -135q-7 -84 24 -136q35 -62 115 -62q9 -24 -10 -42q-21 -21 -64 -15q-84 10 -121 92q-33 73 -19 175q15 97 65 169q55 76 129 76
q72 0 116 -137q43 -129 35 -300q-23 -408 -180 -408q-64 0 -114 44zM158 1001q11 12 32 15q31 3 49 -17t14 -56q-5 -31 -45 -87l-42 -5q30 49 27 86q-1 37 -36 46q-7 5 1 18z" />
    <glyph glyph-name="uni1EC9" unicode="&#x1ed6;&#x1ed6;" horiz-adv-x="144" 
d="M20 122q-4 88 14 224q6 42 43 66q16 9 25 8q10 0 9 -12q-20 -167 -23.5 -248.5t9.5 -82.5q7 0 19 18q30 44 50 106q10 7 21 -11q13 -19 4 -43q-50 -147 -121 -147q-45 0 -50 122zM56 663q11 12 32 15q31 3 49 -17t14 -56q-5 -31 -45 -87l-42 -5q30 49 27 86q-1 37 -36 46
q-7 5 1 18z" />
    <glyph glyph-name="uni1ECA" unicode="tt" horiz-adv-x="376" 
d="M65 0q-31 28 -23 69q4 19 11 26.5t17 3.5q12 -23 55 -54t61 -31q69 0 88 331q10 161 -9 270q-23 126 -78 126q-32 0 -62 -62q-30 -61 -36 -135q-7 -84 24 -136q35 -62 115 -62q9 -24 -10 -42q-21 -21 -64 -15q-84 10 -121 92q-33 73 -19 175q15 97 65 169q55 76 129 76
q72 0 116 -137q43 -129 35 -300q-23 -408 -180 -408q-64 0 -114 44zM159 -219q-8 18 -8 37q2 53 46 53q43 0 29 -65q-9 -42 -47 -42q-12 0 -20 17z" />
    <glyph glyph-name="uni1ECB" unicode="uu" horiz-adv-x="144" 
d="M63 659q8 38 41 55q33 19 36 -5q0 -8 -20 -111q-8 -45 -36 -45q-40 0 -21 106zM20 122q-4 88 14 224q6 42 43 66q16 9 25 8q10 0 9 -12q-20 -167 -23.5 -248.5t9.5 -82.5q7 0 19 18q30 44 50 106q10 7 21 -11q13 -19 4 -43q-50 -147 -121 -147q-45 0 -50 122zM58 -219
q-8 18 -8 37q2 53 46 53q43 0 29 -65q-9 -42 -47 -42q-12 0 -20 17z" />
    <glyph glyph-name="uni1ECC" unicode="bb&#x1ed5;" horiz-adv-x="659" 
d="M173 52q-56 86 -56 216q-80 24 -99 109q-18 78 20 176q37 98 115 167q85 75 188 82q153 11 233 -125q70 -118 66 -302q-4 -169 -78 -288q-81 -131 -214 -131q-114 0 -175 96zM203 325q34 -3 73 4q13 -20 -1 -40q-13 -22 -47 -27l-28 -3q-1 -106 34 -172q41 -74 122 -74
q83 0 142 113q55 105 58 251q4 158 -40 258q-51 116 -158 113q-151 -5 -236 -162q-36 -68 -36 -129q-2 -67 39 -102q24 138 86 215q28 34 64 40q33 6 34 -13q-84 -68 -106 -272zM331 -219q-8 18 -8 37q2 53 46 53q43 0 29 -65q-9 -42 -47 -42q-12 0 -20 17z" />
    <glyph glyph-name="uni1ECD" unicode="&#x1ed6;&#x1ed6;&#x1ed5;" horiz-adv-x="270" 
d="M182 188q-34 15 -32 69q1 51 33 56q21 2 34.5 -14.5t18.5 -50.5q51 23 86 77q13 0 13 -25q1 -25 -12 -41q-41 -50 -86 -68q-6 -78 -36 -135q-35 -66 -86 -66q-55 0 -83 70q-25 59 -20 153q4 89 37 153q36 70 91 70q74 0 80 -62q2 -25 -10 -38q-14 -15 -35 -6q0 15 -7 33
q-9 23 -23 23q-47 0 -56 -166q-3 -68 6 -115q9 -52 30 -52q35 0 57 135zM88 -184q-8 18 -8 37q2 53 46 53q43 0 29 -65q-9 -42 -47 -42q-12 0 -20 17z" />
    <glyph glyph-name="uni1ECE" unicode="vv" horiz-adv-x="659" 
d="M173 52q-56 86 -56 216q-80 24 -99 109q-18 78 20 176q37 98 115 167q85 75 188 82q153 11 233 -125q70 -118 66 -302q-4 -169 -78 -288q-81 -131 -214 -131q-114 0 -175 96zM203 325q34 -3 73 4q13 -20 -1 -40q-13 -22 -47 -27l-28 -3q-1 -106 34 -172q41 -74 122 -74
q83 0 142 113q55 105 58 251q4 158 -40 258q-51 116 -158 113q-151 -5 -236 -162q-36 -68 -36 -129q-2 -67 39 -102q24 138 86 215q28 34 64 40q33 6 34 -13q-84 -68 -106 -272zM319 1016q11 12 32 15q31 3 49 -17t14 -56q-4 -32 -45 -87l-42 -5q30 49 27 86q-1 37 -36 46
q-7 5 1 18z" />
    <glyph glyph-name="uni1ECF" unicode="vv&#x1ed5;" horiz-adv-x="270" 
d="M182 188q-34 15 -32 69q1 51 33 56q21 2 34.5 -14.5t18.5 -50.5q51 23 86 77q13 0 13 -25q1 -25 -12 -41q-41 -50 -86 -68q-6 -78 -36 -135q-35 -66 -86 -66q-55 0 -83 70q-25 59 -20 153q4 89 37 153q36 70 91 70q74 0 80 -62q2 -25 -10 -38q-14 -15 -35 -6q0 15 -7 33
q-9 23 -23 23q-47 0 -56 -166q-3 -68 6 -115q9 -52 30 -52q35 0 57 135zM126 663q11 12 32 15q31 3 49 -17t14 -56q-5 -31 -45 -87l-42 -5q30 49 27 86q-1 37 -36 46q-7 5 1 18z" />
    <glyph glyph-name="uni1ED0" unicode="ww" horiz-adv-x="680" 
d="M393 932q-32 -50 -47 -68q-9 -10 -23 -7q-13 3 -12 13q35 80 74 131q6 8 15 8t14 -8q58 -129 58 -131q5 -11 -13 -14q-19 -2 -32 16q-24 38 -34 60zM196 52q-56 86 -56 216q-80 24 -99 109q-18 78 20 176q37 98 115 167q85 75 188 82q153 11 233 -125q70 -118 66 -302
q-5 -169 -78 -288q-81 -131 -214 -131q-113 0 -175 96zM226 325q34 -3 73 4q13 -20 -1 -40q-13 -22 -47 -27l-28 -3q-1 -106 34 -172q41 -74 122 -74q83 0 142 113q55 105 58 251q4 158 -40 258q-51 116 -158 113q-151 -5 -236 -162q-36 -68 -36 -129q-1 -67 39 -102
q24 138 86 215q28 34 64 40q33 6 34 -13q-84 -68 -106 -272zM536 1121q23 -22 16 -56q-8 -41 -56 -86q-15 -13 -28 -12q-12 1 -10 12q39 111 47 144q8 20 31 -2z" />
    <glyph glyph-name="uni1ED1" unicode="ww&#x1ed5;" horiz-adv-x="270" 
d="M144 620q-32 -50 -47 -68q-10 -10 -24 -7q-12 3 -11 13q32 76 74 131q6 8 15 8t14 -8q58 -129 58 -131q5 -11 -14 -14q-18 -1 -31 16q-19 29 -34 60zM182 188q-34 15 -32 69q1 51 33 56q21 2 34.5 -14.5t18.5 -50.5q51 23 86 77q13 0 13 -25q1 -25 -12 -41
q-41 -50 -86 -68q-6 -78 -36 -135q-35 -66 -86 -66q-55 0 -83 70q-25 59 -20 153q4 89 37 153q36 70 91 70q74 0 80 -62q2 -25 -10 -38q-14 -15 -35 -6q0 15 -7 33q-9 23 -23 23q-47 0 -56 -166q-3 -68 6 -115q9 -52 30 -52q35 0 57 135zM292 825q23 -22 16 -56
q-8 -41 -56 -86q-15 -13 -28 -12q-12 1 -10 12q39 111 47 144q8 20 31 -2z" />
    <glyph glyph-name="uni1ED2" unicode="xx" horiz-adv-x="680" 
d="M393 932q-32 -50 -47 -68q-9 -10 -23 -7q-13 3 -12 13q35 80 74 131q6 8 15 8t14 -8q58 -129 58 -131q5 -11 -13 -14q-19 -2 -32 16q-24 38 -34 60zM196 52q-56 86 -56 216q-80 24 -99 109q-18 78 20 176q37 98 115 167q85 75 188 82q153 11 233 -125q70 -118 66 -302
q-5 -169 -78 -288q-81 -131 -214 -131q-113 0 -175 96zM226 325q34 -3 73 4q13 -20 -1 -40q-13 -22 -47 -27l-28 -3q-1 -106 34 -172q41 -74 122 -74q83 0 142 113q55 105 58 251q4 158 -40 258q-51 116 -158 113q-151 -5 -236 -162q-36 -68 -36 -129q-1 -67 39 -102
q24 138 86 215q28 34 64 40q33 6 34 -13q-84 -68 -106 -272zM531 974q3 -10 -9 -12q-13 -1 -29 12q-48 45 -56 86q-8 35 17 56q23 21 30 2q14 -51 47 -144z" />
    <glyph glyph-name="uni1ED3" unicode="yy" horiz-adv-x="270" 
d="M144 620q-32 -50 -47 -68q-10 -10 -24 -7q-12 3 -11 13q32 76 74 131q6 8 15 8t14 -8q58 -129 58 -131q5 -11 -14 -14q-18 -1 -31 16q-19 29 -34 60zM182 188q-34 15 -32 69q1 51 33 56q21 2 34.5 -14.5t18.5 -50.5q51 23 86 77q13 0 13 -25q1 -25 -12 -41
q-41 -50 -86 -68q-6 -78 -36 -135q-35 -66 -86 -66q-55 0 -83 70q-25 59 -20 153q4 89 37 153q36 70 91 70q74 0 80 -62q2 -25 -10 -38q-14 -15 -35 -6q0 15 -7 33q-9 23 -23 23q-47 0 -56 -166q-3 -68 6 -115q9 -52 30 -52q35 0 57 135zM294 667q3 -11 -9 -12
q-13 -1 -29 12q-48 45 -56 86q-8 35 17 56q23 21 30 2q14 -51 47 -144z" />
    <glyph glyph-name="uni1ED4" unicode="&#x7a;&#x7a;" horiz-adv-x="680" 
d="M393 932q-32 -50 -47 -68q-9 -10 -23 -7q-13 3 -12 13q35 80 74 131q6 8 15 8t14 -8q58 -129 58 -131q5 -11 -13 -14q-19 -2 -32 16q-24 38 -34 60zM196 52q-56 86 -56 216q-80 24 -99 109q-18 78 20 176q37 98 115 167q85 75 188 82q153 11 233 -125q70 -118 66 -302
q-5 -169 -78 -288q-81 -131 -214 -131q-113 0 -175 96zM226 325q34 -3 73 4q13 -20 -1 -40q-13 -22 -47 -27l-28 -3q-1 -106 34 -172q41 -74 122 -74q83 0 142 113q55 105 58 251q4 158 -40 258q-51 116 -158 113q-151 -5 -236 -162q-36 -68 -36 -129q-1 -67 39 -102
q24 138 86 215q28 34 64 40q33 6 34 -13q-84 -68 -106 -272zM460 1102q11 12 32 15q31 3 49 -17t14 -56q-5 -32 -45 -87l-42 -5q30 49 27 86q-1 37 -36 46q-7 5 1 18z" />
    <glyph glyph-name="uni1ED7" unicode="o&#x7a;" horiz-adv-x="270" 
d="M144 620q-32 -50 -47 -68q-10 -10 -24 -7q-12 3 -11 13q32 76 74 131q6 8 15 8t14 -8q58 -129 58 -131q5 -11 -14 -14q-18 -1 -31 16q-19 29 -34 60zM182 188q-34 15 -32 69q1 51 33 56q21 2 34.5 -14.5t18.5 -50.5q51 23 86 77q13 0 13 -25q1 -25 -12 -41
q-41 -50 -86 -68q-6 -78 -36 -135q-35 -66 -86 -66q-55 0 -83 70q-25 59 -20 153q4 89 37 153q36 70 91 70q74 0 80 -62q2 -25 -10 -38q-14 -15 -35 -6q0 15 -7 33q-9 23 -23 23q-47 0 -56 -166q-3 -68 6 -115q9 -52 30 -52q35 0 57 135zM233 763q-33 16 -52 -24
q-13 -4 -19 9q-5 12 -1 29q11 47 53 47q3 0 57 -22q31 -12 45 26q16 4 23 -9q6 -13 2 -32q-11 -50 -52 -50q-1 0 -56 26z" />
    <glyph glyph-name="uni1ED8" unicode="oo&#x7a;" horiz-adv-x="680" 
d="M393 932q-32 -50 -47 -68q-9 -10 -23 -7q-13 3 -12 13q35 80 74 131q6 8 15 8t14 -8q58 -129 58 -131q5 -11 -13 -14q-19 -2 -32 16q-24 38 -34 60zM196 52q-56 86 -56 216q-80 24 -99 109q-18 78 20 176q37 98 115 167q85 75 188 82q153 11 233 -125q70 -118 66 -302
q-5 -169 -78 -288q-81 -131 -214 -131q-113 0 -175 96zM226 325q34 -3 73 4q13 -20 -1 -40q-13 -22 -47 -27l-28 -3q-1 -106 34 -172q41 -74 122 -74q83 0 142 113q55 105 58 251q4 158 -40 258q-51 116 -158 113q-151 -5 -236 -162q-36 -68 -36 -129q-1 -67 39 -102
q24 138 86 215q28 34 64 40q33 6 34 -13q-84 -68 -106 -272zM331 -219q-8 18 -8 37q2 53 46 53q43 0 29 -65q-9 -42 -47 -42q-12 0 -20 17z" />
    <glyph glyph-name="uni1ED9" unicode="v&#x7a;" horiz-adv-x="270" 
d="M144 620q-32 -50 -47 -68q-10 -10 -24 -7q-12 3 -11 13q32 76 74 131q6 8 15 8t14 -8q58 -129 58 -131q5 -11 -14 -14q-18 -1 -31 16q-19 29 -34 60zM182 188q-34 15 -32 69q1 51 33 56q21 2 34.5 -14.5t18.5 -50.5q51 23 86 77q13 0 13 -25q1 -25 -12 -41
q-41 -50 -86 -68q-6 -78 -36 -135q-35 -66 -86 -66q-55 0 -83 70q-25 59 -20 153q4 89 37 153q36 70 91 70q74 0 80 -62q2 -25 -10 -38q-14 -15 -35 -6q0 15 -7 33q-9 23 -23 23q-47 0 -56 -166q-3 -68 6 -115q9 -52 30 -52q35 0 57 135zM88 -184q-8 18 -8 37q2 53 46 53
q43 0 29 -65q-9 -42 -47 -42q-12 0 -20 17z" />
    <glyph glyph-name="uni1EDA" unicode="b&#x7a;" horiz-adv-x="659" 
d="M203 325q34 -3 73 4q13 -20 -1 -40q-13 -22 -47 -27l-28 -3q-1 -106 34 -172q41 -74 122 -74q83 0 142 113q55 105 58 251q4 158 -40 258q-51 116 -158 113q-151 -5 -236 -162q-36 -68 -36 -129q-2 -67 39 -102q24 138 86 215q28 34 64 40q33 6 34 -13q-84 -68 -106 -272
zM577 692h-12l9 -15q70 -118 66 -302q-4 -169 -78 -288q-81 -131 -214 -131q-114 0 -175 96q-56 86 -56 216q-80 24 -99 109q-18 78 20 176q37 98 115 167q85 75 188 82q131 9 208 -89q20 34 22 61q1 37 -31 50q-6 7 3 17q11 12 34 12q31 0 46 -21q16 -22 8 -58
q-7 -29 -54 -82zM481 1011q23 -22 16 -56q-8 -41 -56 -86q-15 -13 -28 -12q-12 1 -10 12q39 111 47 144q8 20 31 -2z" />
    <glyph glyph-name="uni1EDB" unicode="w&#x7a;" horiz-adv-x="270" 
d="M229 349h-12q-1 -5 -7 -13q-14 -15 -35 -6q0 15 -7 33q-9 23 -23 23q-47 0 -56 -166q-3 -68 6 -115q9 -52 30 -52q35 0 57 135q-34 15 -32 69q1 51 33 56q21 2 34.5 -14.5t18.5 -50.5q51 23 86 77q13 0 13 -25q1 -25 -12 -41q-41 -50 -86 -68q-6 -78 -36 -135
q-35 -66 -86 -66q-55 0 -83 70q-25 59 -20 153q4 89 37 153q36 70 91 70q59 0 75 -40q8 21 8 35q1 37 -31 50q-6 7 3 17q11 12 34 12q31 0 46 -21q16 -22 8 -58q-7 -29 -54 -82zM123 634q6 37 40 55q34 19 37 -5q-4 -30 -20 -111q-8 -45 -36 -45q-40 0 -21 106z" />
    <glyph glyph-name="quoteleft" unicode="f&#x1ed5;" horiz-adv-x="74" 
d="M96 778q10 -8 -4 -40q-13 -34 -34 -34q-20 0 -31 17q-13 19 -3 50q27 85 56 85q9 0 14 -14q-11 -48 2 -64z" />
    <glyph glyph-name="quoteright" unicode="jj" horiz-adv-x="138" 
d="M54 782q-11 8 3 40q13 34 35 34q20 0 31 -17q12 -19 3 -50q-28 -85 -56 -85q-9 0 -14 14q11 48 -2 64z" />
    <glyph glyph-name="quotesinglbase" unicode="&#x1ed6;&#x1ed5;" horiz-adv-x="206" 
d="M80 31q-11 8 3 40q13 34 35 34q20 0 31 -17q12 -19 3 -50q-28 -85 -56 -85q-9 0 -14 14q11 48 -2 64z" />
    <glyph glyph-name="quotedblleft" unicode="Uj" horiz-adv-x="172" 
d="M194 778q10 -8 -4 -40q-13 -34 -34 -34q-20 0 -31 17q-13 19 -3 50q27 85 56 85q10 0 13 -14q-10 -48 3 -64zM96 778q10 -8 -4 -40q-13 -34 -34 -34q-20 0 -31 17q-13 19 -3 50q27 85 56 85q9 0 14 -14q-11 -48 2 -64z" />
    <glyph glyph-name="quotedblright" unicode="Mj" horiz-adv-x="236" 
d="M54 782q-11 8 3 40q13 34 35 34q20 0 31 -17q12 -19 3 -50q-28 -85 -56 -85q-9 0 -14 14q11 48 -2 64zM152 782q-11 8 3 40q13 34 35 34q20 0 31 -17q12 -19 3 -50q-28 -85 -56 -85q-9 0 -14 14q11 48 -2 64z" />
    <glyph glyph-name="o_uni1ED5" unicode="o&#x1ed5;" horiz-adv-x="511" 
d="M234 168q-10 -71 -39 -121q-35 -57 -80 -57q-55 0 -83 70q-25 59 -20 153q4 89 37 153q36 70 91 70q74 0 80 -62q2 -25 -10 -38q-14 -15 -35 -6q0 15 -7 33q-9 23 -23 23q-47 0 -56 -166q-3 -68 6 -115q9 -52 30 -52q32 0 54 115q-31 20 -29 82q2 58 33 63q25 2 39 -19.5
t16 -65.5q39 30 73 120q-42 24 -48 78q-6 46 15 99q19 47 45 70q29 23 44 -5q19 -32 -4 -190q39 0 68 12q25 -6 44 -40q23 -38 5 -61q-36 -46 -53 -146q-16 -100 16 -100q44 0 92 136q9 8 20 -11q13 -19 4 -43q-55 -153 -136 -153q-66 0 -72 108q-7 107 55 235
q-27 -3 -54 -1q-52 -141 -118 -168zM326 515q-16 0 -21 -47q-6 -48 16 -61q8 55 9.5 81t-4.5 27z" />
    <glyph glyph-name="A_j" unicode="Aj" horiz-adv-x="551" 
d="M369 288q-17 -38 -16 -60q1 -28 28 -28q2 -20 -17 -33q-14 -10 -31 -10q-61 0 -50 72q-17 -9 -41 -17q-10 -84 -40 -144q-34 -72 -89 -72q-83 0 -93 166q-8 145 28 227q15 35 41 49q24 10 27 -6q-22 -108 -24 -227q-3 -147 36 -147q16 0 33 48q15 42 23 108
q-33 30 -30 111q1 79 38 87q26 5 42 -47q14 -46 13 -95q30 8 60 24q72 136 180 136q57 -16 52 -81q-16 -128 -109 -240q24 -11 45 -28q18 -15 21 -15q11 0 31 29q27 39 50 106q9 8 20 -11q13 -18 5 -43q-50 -147 -115 -147l-17 12l-73 43q-41 -57 -59 -57q-21 0 -27 21
q-5 19 3 45q20 65 66 58q36 53 65 141q25 79 20 113q-53 0 -96 -88z" />
    <glyph glyph-name="N_j" unicode="Nj" horiz-adv-x="678" 
d="M490 288q-18 -37 -17 -60q1 -28 28 -28q3 -19 -17 -33q-14 -10 -31 -10q-63 0 -49 74q-24 -12 -40 -17q-14 -218 -112 -218q-46 0 -74 61q-34 -55 -76 -55q-44 0 -69 63q-21 54 -21 135q0 114 25 180q24 61 58 61q11 0 13 -9q-23 -121 -23 -230q0 -133 36 -133
q21 0 38 45q-14 58 -14 119q0 116 45 125q16 4 30 -20q14 -26 14 -71q0 -67 -24 -139q16 -69 42 -69q50 0 54 153q-32 26 -32 105q0 40 11 71q14 35 35 35q22 0 35 -52q12 -45 12 -94v-7q25 3 65 32q74 128 175 128q57 -16 52 -81q-16 -128 -109 -240q25 -11 45 -28
q19 -15 21 -15q11 0 31 29q30 44 50 106q9 7 21 -11q12 -19 4 -43q-49 -147 -115 -147l-17 12l-73 43q-41 -57 -59 -57q-21 0 -27 21q-5 19 3 45q20 65 66 58q38 57 65 141q26 82 20 113q-52 0 -95 -88z" />
    <glyph glyph-name="H_j" unicode="Hj" horiz-adv-x="549" 
d="M368 288q-18 -37 -17 -60q1 -28 28 -28q3 -19 -17 -33q-14 -10 -31 -10q-44 0 -50 41q-6 38 21 90l-2 -3q-32 -11 -54 -12v-8q-1 -100 -38 -179q-39 -86 -97 -86q-101 0 -94 226q10 299 55 471q9 37 41 60t38 2q-57 -287 -62 -538q-4 -160 24 -160q23 0 43 75
q20 70 21 147q-51 24 -54 79t45 55q58 0 74 -93q33 -2 104 30q64 76 139 76q57 -16 52 -81q-16 -128 -109 -240q25 -11 45 -28q19 -15 21 -15q11 0 31 29q30 44 50 106q9 7 21 -11q12 -19 4 -43q-50 -147 -115 -147l-17 12l-73 43q-41 -57 -59 -57q-21 0 -27 21q-5 19 3 45
q20 65 66 58q38 57 65 141q26 82 20 113q-52 0 -95 -88z" />
    <glyph glyph-name=".notdef" horiz-adv-x="195" 
 />
    <glyph glyph-name=".null" horiz-adv-x="0" 
 />
    <glyph glyph-name="nonmarkingreturn" horiz-adv-x="333" 
 />
    <glyph glyph-name="NULL" horiz-adv-x="0" 
 />
    <glyph glyph-name="NULL" horiz-adv-x="0" 
 />
    <glyph glyph-name="CR" unicode="&#xd;" horiz-adv-x="195" 
 />
    <glyph glyph-name="space" unicode=" " horiz-adv-x="195" 
 />
    <glyph glyph-name="exclam" unicode="!" horiz-adv-x="208" 
d="M88 12q-8 18 -8 37q2 53 46 53q43 0 29 -65q-9 -42 -47 -42q-12 0 -20 17zM108 612l9 89q5 33 39 58q35 26 42 4q-38 -254 -44 -575q0 -11 -18 -11q-53 0 -41 256q3 85 13 179z" />
    <glyph glyph-name="quotedbl" unicode="&#x22;" horiz-adv-x="223" 
d="M103 769q29 7 27 -12q-25 -69 -39 -173q-6 -10 -20 -5q-15 6 -17 33q-3 60 11 114q11 36 38 43zM189 769q29 8 26 -12q-19 -52 -39 -173q-4 -10 -20 -5q-16 6 -16 33q-3 66 10 114q11 36 39 43z" />
    <glyph glyph-name="numbersign" unicode="#" horiz-adv-x="497" 
d="M79 508q-13 25 3 32q47 -4 66 -4q6 73 13 93q10 35 42 61q31 25 36 1l-23 -159l107 -5q7 80 14 102q10 35 42 61q31 25 36 1q-12 -70 -24 -166h24q33 -1 48 -21t2 -21q-22 -3 -80 -5q-10 -88 -13 -124h24q33 -2 48 -21q15 -20 2 -21q-24 -3 -79 -5q-5 -59 -7 -145
q0 -4 -7 -5q-6 -1 -14 2q-21 9 -24 46q-4 35 -4 101q-95 0 -120 1q-5 -58 -7 -145q0 -4 -7 -5q-6 -1 -14 2q-21 9 -24 46q-4 36 -4 103q-16 0 -34 2q-28 2 -41 27t3 32l73 -5q5 96 7 115h-1h-1h-1l-20 2q-28 2 -41 27zM196 361q41 -3 116 -5q5 100 7 121q-88 0 -110 1
q-11 -91 -13 -117z" />
    <glyph glyph-name="dollar" unicode="$" horiz-adv-x="344" 
d="M181 629l3 24q8 33 29 43q21 11 26 -8q-4 -16 -7 -60q43 -7 69 -38q24 -32 21 -72q-3 -37 -30 -47q-26 -11 -29 11q17 77 -36 95l-13 -189q59 -53 77 -71q67 -70 32 -156t-124 -94q0 -12 -0.5 -28t-1 -24.5t-0.5 -13.5q0 -8 -16 -1q-15 7 -20 33q-2 18 -2 35
q-67 7 -108 55q-34 40 -34 88q0 35 26 52q25 16 40 3q0 -123 76 -145q0 58 6 214l-38 37q-79 76 -52 162q24 80 106 95zM231 269l-23 22l-8 -172q57 8 69 53q14 47 -38 97zM134 521q-5 -47 35 -90l4 79q4 51 4 67q-39 -13 -43 -56z" />
    <glyph glyph-name="percent" unicode="%" horiz-adv-x="543" 
d="M495 701q13 1 20 -4t2 -16q-275 -401 -387 -678q-3 -7 -11 -1q-8 8 -8 27q0 8 5 30q73 267 314 597q28 40 65 45zM83 419q-24 40 -22 100t30 100q30 45 80 45q45 0 70 -45q22 -40 19 -100q-1 -58 -28 -100q-28 -45 -72 -45q-48 0 -77 45zM121 520q-5 -93 41 -93
q38 0 41 93q2 92 -35 92q-42 0 -47 -92zM316 56q-24 40 -22 100t30 100q30 45 80 45q44 0 70 -45q22 -40 19 -100q-1 -58 -28 -100q-29 -45 -72 -45q-49 0 -77 45zM354 157q-4 -93 41 -93q38 0 41 93q2 92 -35 92q-42 0 -47 -92z" />
    <glyph glyph-name="ampersand" unicode="&#x26;" horiz-adv-x="654" 
d="M750 -126q-18 -25 -56 -25q-178 0 -330 165q-50 -24 -107 -24q-111 0 -173 58q-55 50 -61 131q-6 75 33 138q41 67 109 80q-39 158 -8 262q35 113 140 113q92 0 122 -90q26 -81 -12 -167q187 -24 252 -3q9 -1 14 -15q5 -17 -2 -32q-19 -46 -95 -46q-35 0 -70 7
q40 -69 20 -181q-23 -115 -96 -185q143 -152 324 -152q14 -11 -4 -34zM218 659q-14 -63 2 -156q35 -224 171 -398q49 63 63 161q14 97 -13 177l-35 12l-31 10q-36 -39 -83 -39q-24 0 -37 13t-9 30q9 44 98 49q19 74 -1 139q-21 64 -68 64q-42 0 -57 -62zM330 55
q-102 128 -154 300q-34 -25 -54 -78t-12 -105q16 -133 152 -133q37 0 68 16z" />
    <glyph glyph-name="quotesingle" unicode="'" horiz-adv-x="162" 
d="M124 769q29 8 26 -12q-19 -52 -39 -173q-4 -9 -20 -5q-15 6 -17 33q-3 60 11 114q9 36 39 43z" />
    <glyph glyph-name="parenleft" unicode="(" horiz-adv-x="220" 
d="M258 783q15 -1 21 -6.5t2 -15.5q-119 -126 -159 -361q-42 -248 39 -448q3 -6 -5 -7q-5 0 -14 2q-24 6 -37 31q-90 166 -61 408q29 240 152 368q29 31 62 29z" />
    <glyph glyph-name="parenright" unicode=")" horiz-adv-x="258" 
d="M70 -59q-30 0 -24 20q109 136 128 372q22 250 -74 444q-3 6 7 7q4 0 12 -1q24 -3 39 -27q103 -158 94 -401q-9 -241 -122 -380q-28 -34 -60 -34z" />
    <glyph glyph-name="asterisk" unicode="*" horiz-adv-x="265" 
d="M112 690q-73 56 -59 79q7 13 82 -39q11 95 31 96q15 0 13 -95q82 46 85 29q3 -22 -71 -72l25 -19q25 -21 27 -44q1 -23 -18 -18l-54 37l-6 -67q-1 -7 -17 -3q-17 5 -19 28q-1 5 -1 45l-30 -19q-19 -13 -34 -5q-13 7 -12 20q17 20 58 47z" />
    <glyph glyph-name="plus" unicode="+" horiz-adv-x="413" 
d="M189 273l6 53q4 37 37 62t37 0q-8 -50 -17 -118l68 -4q28 -1 41 -22q10 -18 0 -31q-39 -3 -115 -5l-11 -113q-1 -10 -24 -1q-24 8 -26 37q-2 23 0 77q-42 0 -56 2q-29 3 -44 32q-15 28 1 35z" />
    <glyph glyph-name="comma" unicode="," horiz-adv-x="218" 
d="M91 54q4 49 42 49q20 0 29 -17q11 -18 0 -50q-10 -33 -38 -61q-24 -24 -41 -24q-13 0 -2 20q32 58 10 83z" />
    <glyph glyph-name="hyphen" unicode="-" horiz-adv-x="413" 
d="M129 210q-30 4 -45 30q-13 25 2 32q157 -5 234 -11q30 -1 41 -19q10 -16 0 -29q-177 -10 -232 -3z" />
    <glyph glyph-name="period" unicode="." horiz-adv-x="213" 
d="M88 12q-8 18 -8 37q2 53 46 53q43 0 29 -65q-9 -42 -47 -42q-12 0 -20 17z" />
    <glyph glyph-name="slash" unicode="/" horiz-adv-x="395" 
d="M474 778q13 1 22 -4q7 -5 2 -16q-205 -299 -409 -799q-1 -3 -7 -3q-5 0 -10 5q-13 14 -2 54q33 118 165 395q125 261 171 323q30 40 68 45z" />
    <glyph glyph-name="zero" unicode="0" horiz-adv-x="465" 
d="M82 79q-47 80 -51 203q-6 116 24 217q31 104 87 133q28 67 106 67q102 0 155 -111q47 -99 39 -243t-64 -244q-62 -111 -155 -111q-90 0 -141 89zM198 631q-90 -127 -77 -356q6 -100 33 -161q30 -68 74 -68q52 0 86 93q33 88 37 206q5 124 -22 205q-31 93 -93 93
q-18 0 -38 -12z" />
    <glyph glyph-name="one" unicode="1" horiz-adv-x="375" 
d="M154 45q0 235 32 445q-52 -120 -124 -120q-18 0 -28 13q-10 11 -8 31q65 6 131 122q44 77 68 154q5 14 18 11q13 -1 29 -16q38 -36 23 -76q-58 -165 -64 -565l99 -3q26 -2 32 -20q6 -17 -5 -26q-33 0 -149 -4q-105 -4 -135 -4q-47 -2 -58 25q-11 21 6 38q34 -4 133 -5z
" />
    <glyph glyph-name="two" unicode="2" horiz-adv-x="436" 
d="M165 41q-74 -59 -113 -51q-22 4 -27 23t8 38q33 52 110 52h7q145 139 183 347q16 83 2 140q-15 57 -55 57q-42 0 -88 -44q-43 -41 -61 -96q-21 -60 1 -97q24 -44 98 -44q8 -24 -14 -41q-24 -20 -64 -13q-84 15 -108 78q-23 57 9 131q30 73 93 123q67 55 143 55
q91 0 125 -69q31 -60 11 -166q-42 -223 -205 -377q85 -30 183 2q9 -1 12 -18q3 -18 -4 -34q-20 -47 -88 -47q-78 0 -158 51z" />
    <glyph glyph-name="three" unicode="3" horiz-adv-x="457" 
d="M340 138q20 102 -34 165q-46 -25 -99 -25q-28 0 -44 13q-15 13 -13 30q6 43 77 43q35 0 65 -6q52 73 63 181q11 107 -35 107q-32 0 -82 -30q-48 -30 -76 -67q-32 -41 -16 -67q17 -30 97 -30q8 -23 -15 -41q-26 -20 -65 -13q-84 15 -101 65q-16 45 23 102q37 55 105 94
q71 41 141 41q59 0 90 -40q29 -38 30 -98q1 -133 -98 -225q61 -32 77 -93q16 -56 -6 -120q-23 -64 -72 -104q-53 -44 -116 -44q-64 0 -119 41q-52 39 -68 96q-14 45 16 79q29 32 61 19q-1 -55 24 -110q32 -69 88 -69q81 0 102 106z" />
    <glyph glyph-name="four" unicode="4" horiz-adv-x="497" 
d="M414 514q39 21 45 -7q-31 -91 -42 -267q30 5 62 12q8 -2 11 -17q3 -14 -2 -31q-15 -44 -76 -47q-4 -61 -4 -157q-10 -16 -42 -9q-33 9 -33 38q-2 81 1 130q-40 2 -125 12q-77 8 -106 7q-32 -25 -63 -25q-20 0 -28 11q-7 9 -2 25q14 36 68 48q140 220 140 456
q23 23 53 -14q33 -38 22 -111q-33 -195 -132 -329q153 -6 177 -5q10 146 30 225q7 33 46 55z" />
    <glyph glyph-name="five" unicode="5" horiz-adv-x="438" 
d="M108 17q-48 39 -64 96q-14 45 16 79q29 32 61 19q-1 -55 24 -110q31 -69 88 -69q43 0 72 50q28 47 29 111q3 66 -23 110q-29 50 -86 50q-35 0 -85 -25q-21 -45 -51 -45q-26 0 -28 23q-1 22 29 48q15 139 -25 265q-8 21 21 47q23 22 38 22q69 -18 175 -13q102 5 129 23
q28 -22 6 -68q-26 -51 -91 -51q-82 0 -185 38q22 -109 0 -225q50 29 124 29q83 0 120 -70q34 -60 20 -152t-64 -153q-57 -70 -135 -70q-65 0 -115 41z" />
    <glyph glyph-name="six" unicode="6" horiz-adv-x="423" 
d="M187 333q-43 -43 -65 -103q-2 -152 65 -190q17 -6 32 -6q43 0 74 52q26 47 34 116q8 68 -12 115q-19 52 -65 52q-26 0 -63 -36zM72 76q-47 98 -28 242q19 148 94 253q79 111 197 126q55 7 72 -19q15 -24 -6 -37q-97 0 -169 -84q-64 -76 -92 -193q45 65 125 65
q85 0 127 -70q38 -62 27 -154q-10 -89 -62 -154q-58 -72 -139 -73q-96 0 -146 98z" />
    <glyph glyph-name="seven" unicode="7" horiz-adv-x="445" 
d="M204 317q41 163 95 266q-78 -15 -180 -7q-69 4 -90 54q-20 45 7 64q105 -52 305 -44q43 57 84 57q31 0 22 -34q-11 -36 -64 -63q-48 -94 -88 -289q62 2 72 1q33 -1 44 -21q9 -17 -3 -27l-124 -9q-40 -214 -28 -263q-36 -21 -61 1q-26 23 -26 74q0 76 22 180
q-66 -2 -69 -2q-48 -1 -66 27q-16 23 -2 47q62 -13 150 -12z" />
    <glyph glyph-name="eight" unicode="8" horiz-adv-x="457" 
d="M411 438q-41 -54 -106 -92l53 -51q108 -105 61 -212t-195 -107q-85 0 -139 42q-49 39 -57 101q-7 60 31 120q39 62 124 101l-10 10q-91 91 -91 174q0 72 56 123q59 53 144 53q78 0 89 -56q80 -14 80 -105q0 -46 -40 -101zM282 247l-62 57q-98 -73 -100 -172q0 -43 26 -71
q27 -29 78 -29q84 0 105 77q22 76 -47 138zM235 413l32 -32q95 71 95 154q0 65 -36 92q-1 2 1 7q-22 12 -50 12q-40 0 -73 -33q-34 -34 -34 -80q0 -58 65 -120z" />
    <glyph glyph-name="nine" unicode="9" horiz-adv-x="436" 
d="M273 354q43 41 65 102q2 152 -65 190q-17 6 -32 6q-43 0 -74 -52q-26 -47 -34 -115q-8 -69 12 -116q19 -52 65 -52q26 0 63 37zM388 610q47 -98 28 -242q-19 -147 -94 -252q-81 -112 -197 -127q-55 -7 -72 19q-15 24 6 37q97 0 169 85q64 74 92 192q-45 -65 -125 -65
q-85 0 -127 70q-38 62 -27 154q10 89 62 154q58 72 139 73q96 0 146 -98z" />
    <glyph glyph-name="colon" unicode=":" horiz-adv-x="238" 
d="M88 12q-8 18 -8 37q2 53 46 53q43 0 29 -65q-9 -42 -47 -42q-12 0 -20 17zM113 303q-8 18 -8 37q2 53 46 53q43 0 29 -65q-9 -42 -47 -42q-12 0 -20 17z" />
    <glyph glyph-name="semicolon" unicode=";" horiz-adv-x="244" 
d="M124 303q-8 18 -8 37q2 53 46 53q43 0 29 -65q-9 -42 -47 -42q-12 0 -20 17zM91 54q4 49 42 49q20 0 29 -17q11 -18 0 -50q-10 -33 -38 -61q-24 -24 -41 -24q-13 0 -2 20q32 58 10 83z" />
    <glyph glyph-name="less" unicode="&#x3c;" horiz-adv-x="401" 
d="M150 225q-30 -8 -47 -8q-34 0 -50 9t-14 27q3 36 63 36q28 0 50 -7q135 65 161 137q33 11 44 -24q11 -38 -26 -72q-36 -34 -110 -69q70 -41 95 -93q21 -42 2 -70q-17 -25 -41 -17q-56 108 -127 151z" />
    <glyph glyph-name="equal" unicode="=" horiz-adv-x="415" 
d="M149 162q-29 3 -44 32q-15 28 1 35q80 -3 216 -11q28 -1 41 -22q10 -18 0 -31q-164 -9 -214 -3zM149 260q-29 3 -44 32q-15 28 1 35q80 -3 216 -11q28 -1 41 -22q10 -18 0 -31q-164 -9 -214 -3z" />
    <glyph glyph-name="greater" unicode="&#x3e;" horiz-adv-x="442" 
d="M298 268q27 9 47 9q68 0 65 -36q-4 -36 -64 -36q-26 0 -51 6q-132 -64 -160 -136q-33 -11 -44 24q-11 38 26 72q40 35 109 69q-67 39 -94 93q-21 42 -2 70q17 25 41 17q51 -104 127 -152z" />
    <glyph glyph-name="question" unicode="?" horiz-adv-x="431" 
d="M259 426q87 124 87 191q0 102 -99 102q-39 0 -73 -29q-30 -27 -39 -65q-10 -39 8 -65q21 -29 73 -29q7 -22 -14 -42q-24 -19 -64 -12q-57 10 -78 59q-20 44 0 100t69 93q56 42 130 42q81 0 127 -45q45 -44 45 -116q0 -68 -100 -208q-97 -136 -91 -214q-16 -16 -42 5
q-25 22 -25 57q0 51 86 176zM155 49q-2 53 45 53q39 0 37 -53q-3 -54 -44 -54q-37 0 -38 54z" />
    <glyph glyph-name="at" unicode="@" horiz-adv-x="590" 
d="M487 -45q-3 -25 -27 -52q-61 -67 -171 -67q-135 0 -210 111q-68 103 -58 248q12 155 98 268q94 124 228 124q120 0 182 -89q53 -77 50 -197q-1 -110 -49 -197q-50 -89 -119 -89q-51 0 -65 83q-24 -89 -82 -89q-45 0 -64 64q-17 59 -6 142q12 84 47 142q40 64 95 64
q41 0 62 -25q18 -22 17 -52q-2 -31 -19 -47q-19 -19 -46 -8q8 32 3 59t-19 27q-38 0 -62 -146q-10 -54 -8 -101q1 -46 16 -46q42 0 64 172q21 10 44 -2q26 -14 25 -42l-2 -41l-3 -31q-5 -56 18 -56q40 0 67 70q27 69 24 155q-3 95 -42 155q-46 70 -131 70q-98 0 -167 -99
q-61 -88 -75 -217q-12 -129 34 -217q52 -99 160 -99q98 0 173 90q21 -10 18 -35z" />
    <glyph glyph-name="A" unicode="A" horiz-adv-x="656" 
d="M259 198q78 189 114 361q18 25 38 -13t12 -80q-20 -116 -88 -268q31 0 99 3q59 3 75 2q-17 105 -30 220q-23 185 -32 234q-19 90 -52 90q-31 0 -82 -51q-52 -52 -82 -111q-36 -69 -27 -112q12 -51 86 -51q9 -14 -7 -35q-18 -23 -56 -23q-81 0 -95 68q-13 60 28 151
q40 87 108 150q74 68 143 68q100 0 133 -242q50 -369 69 -452q41 -179 74 -179q16 0 85 39q31 -15 5 -53q-25 -36 -77 -47q-48 -9 -86.5 34.5t-67.5 140.5q-13 43 -28 111q-104 -6 -210 -10q-96 -187 -182 -187q-75 0 -101 122q-24 116 20 190q17 26 39 29t30 -12
q-21 -65 -18 -167q5 -107 37 -107q40 0 101 130h-9q-48 -2 -65 24q-15 23 -2 45q38 -8 101 -12z" />
    <glyph glyph-name="B" unicode="B" horiz-adv-x="666" 
d="M256 47q4 81 4 186q-17 3 -25 9t-7 15q2 17 32 35q0 265 -9 358q2 8 14 9t28 -8q42 -25 46 -92q3 -81 -3 -240q28 5 48 5q29 0 67 -5q65 42 93 118q27 73 11 144q-16 74 -75 118q-65 48 -167 40q-90 -8 -149 -61q-54 -48 -67 -115q-13 -65 20 -112q38 -50 115 -50
q6 -17 -7 -36q-15 -22 -47 -22q-98 0 -139 72q-38 65 -12 157q25 93 104 157q89 72 211 72q116 0 197 -57q74 -53 101 -136q26 -84 -4 -166q-31 -87 -115 -142q74 -30 105 -88q29 -57 10 -115q-20 -62 -82 -99q-70 -42 -174 -42q-42 0 -91 12q-15 -31 -32 -26q-18 5 -10 40
q-107 40 -141 111q-20 37 -6 66q12 29 41 27q40 -91 115 -139zM491 43q45 28 58 73q14 45 -8 85q-25 45 -80 67q-46 -19 -91 -27q-23 -5 -38 -6q-9 -149 -24 -213q30 -10 64 -10q72 0 119 31z" />
    <glyph glyph-name="C" unicode="C" horiz-adv-x="513" 
d="M491 207q12 -41 -11 -99q-25 -63 -78 -104q-62 -48 -147 -48q-137 0 -200 132q-55 118 -34 291q21 170 103 291q90 132 210 132q70 0 113 -45q40 -40 52 -107q12 -65 -7 -125q-20 -66 -63 -100q-28 -20 -59 -13q-31 8 -29 25q89 89 77 201q-4 46 -27 76q-22 30 -55 30
q-83 0 -149 -115q-60 -103 -80 -252q-20 -153 16 -252q40 -115 138 -115q75 0 129 87q45 73 48 147q41 8 53 -37z" />
    <glyph glyph-name="D" unicode="D" horiz-adv-x="699" 
d="M99 93q-11 25 -11 41q0 24 13 38q14 15 33 14q40 -91 115 -139q4 76 4 270q0 247 -9 334q2 8 14 9t29 -8q41 -26 45 -92q1 -7 1 -55q0 -357 -32 -483q30 -10 64 -10q107 0 172 105q58 94 58 234q0 163 -78 274q-88 125 -238 115q-94 -6 -153 -68q-51 -56 -51 -127
q0 -59 38 -100q40 -43 112 -43q6 -17 -7 -36q-15 -22 -47 -22q-83 0 -129 52q-42 46 -42 122q0 109 79 191q89 93 229 93q176 0 280 -140q91 -124 91 -303q0 -165 -78 -278q-86 -125 -228 -125q-46 0 -91 13q-14 -26 -28 -26q-20 0 -14 39q-106 40 -141 111z" />
    <glyph glyph-name="E" unicode="E" horiz-adv-x="512" 
d="M195 706q-42 -37 -61 -100q-42 -141 53 -252q47 15 93 15q84 0 87 -45q0 -19 -26 -33q-23 -13 -53 -13q-52 0 -98 17q-49 -25 -76 -75q-25 -46 -22 -94q3 -50 36 -81q37 -34 100 -34q83 0 140 81q48 69 53 153q37 7 51 -37q13 -43 -8 -100q-56 -152 -242 -152
q-96 0 -154 44q-51 39 -59 104q-7 62 24 123q35 65 97 102q-60 48 -81 129q-21 79 1 156q22 82 84 132q67 55 163 55q151 0 189 -128q16 -53 0 -108q-17 -56 -62 -92q-25 -21 -59 -10q-31 10 -28 26q88 73 68 166q-18 91 -106 91q-60 0 -104 -40z" />
    <glyph glyph-name="F" unicode="F" horiz-adv-x="545" 
d="M330 391q16 189 62 291q-262 -31 -352 24q-40 24 -34 59q4 32 36 37q46 -38 174 -57q116 -18 209 -7q49 64 123 64q30 0 43 -13q13 -12 4 -30q-23 -45 -143 -68l-3 -1q-25 -72 -38 -295q75 2 84 1q33 -1 44 -21q9 -17 -3 -27l-128 -8q-7 -173 -13 -232
q-16 -151 -119 -151q-53 0 -113 78q-65 83 -54 164q5 29 25 39q19 10 34 -2q4 -69 47 -150q40 -76 68 -76t33 95l4 104l5 125q-100 -5 -136 -5q-47 -1 -66 27q-15 25 -2 47q72 -17 209 -12z" />
    <glyph glyph-name="G" unicode="G" horiz-adv-x="520" 
d="M398 118q18 166 67 166q39 0 34 -62q-5 -64 -50 -123q14 -192 3 -263q-21 -151 -133 -151q-59 0 -115 46q-64 52 -87 136q-11 44 13 78q23 32 51 19q27 -106 68 -170q41 -60 78 -60q30 0 45 99q4 27 18 210q-62 -44 -147 -44q-131 0 -190 125q-53 114 -31 276
q23 164 104 276q92 125 213 125q69 0 113 -45q40 -40 52 -107q12 -64 -6 -125q-20 -66 -64 -100q-28 -20 -59 -13q-29 8 -29 25q89 89 77 202q-4 46 -27 76q-22 31 -55 31q-85 0 -154 -107q-63 -100 -82 -234q-20 -142 17 -235q44 -107 144 -107q68 0 132 56z" />
    <glyph glyph-name="H" unicode="H" horiz-adv-x="687" 
d="M756 -56q28 -16 0 -50q-30 -35 -86 -35q-122 0 -120 323q-47 -30 -202 5q-12 -86 -13 -92q-25 -139 -119 -139q-81 0 -149 104q-67 104 -26 169q42 68 233 36q45 477 0 477q-28 0 -71 -58q-43 -56 -70 -127q-28 -78 -11 -128q19 -58 104 -58q9 -15 -7 -36
q-18 -25 -52 -25q-90 0 -114 77q-21 68 13 169q33 97 95 168q68 77 134 77q65 0 75 -193q8 -152 -14 -357q132 -25 195 -16q10 283 60 475q13 51 60 77q19 11 33 9q16 -2 17 -14q-61 -148 -84 -504q-22 -355 28 -355q27 0 91 21zM256 91l12 116q-149 33 -166 -23
q-13 -41 35 -109q48 -65 88 -65q23 0 31 81z" />
    <glyph glyph-name="I" unicode="I" horiz-adv-x="376" 
d="M65 0q-31 28 -23 69q4 19 11 26.5t17 3.5q12 -23 55 -54t61 -31q69 0 88 331q10 161 -9 270q-23 126 -78 126q-32 0 -62 -62q-30 -61 -36 -135q-7 -84 24 -136q35 -62 115 -62q9 -24 -10 -42q-21 -21 -64 -15q-84 10 -121 92q-33 73 -19 175q15 97 65 169q55 76 129 76
q72 0 116 -137q43 -129 35 -300q-23 -408 -180 -408q-64 0 -114 44z" />
    <glyph glyph-name="J" unicode="J" horiz-adv-x="448" 
d="M267 244q-21 -22 -64 -16q-95 13 -133 106q-33 82 -12 196q19 108 77 187q62 84 136 84q87 0 127 -201q38 -186 15 -413q-13 -162 -63 -258q-53 -101 -129 -101q-69 0 -135 72q-72 78 -82 182q-5 47 18 74q20 25 50 14q29 -149 74 -224q39 -65 78 -65q87 0 107 317
q13 205 -6 365q-22 178 -78 178q-37 0 -75 -71q-36 -69 -45 -155q-10 -95 23 -156q38 -71 127 -71q9 -25 -10 -44z" />
    <glyph glyph-name="K" unicode="K" horiz-adv-x="656" 
d="M178 39q37 -25 60 -25q18 0 27 90q6 69 7 95q-25 4 -25 27q0 14 27 31q20 485 -33 485q-26 0 -71 -58q-43 -57 -69 -127q-29 -80 -12 -128q21 -58 104 -58q10 -14 -7 -36q-18 -25 -52 -25q-89 0 -113 77q-21 68 13 169q31 97 95 168q68 77 133 77q125 0 94 -514
q59 11 92 1q70 68 113 201q48 147 38 293q14 23 40 0q30 -26 33 -91q6 -103 -45 -230q-55 -133 -136 -203q5 -8 36 -84q26 -68 56 -119q88 -151 210 -145q13 -16 0 -39q-17 -27 -59 -30q-116 -8 -206 153q-63 114 -84 231q-30 -17 -62 -22q-24 -3 -33 -4l-3 -38
q-19 -205 -121 -205q-66 0 -107 38q-29 29 -22 69q7 39 29 27q13 -25 53 -51z" />
    <glyph glyph-name="L" unicode="L" horiz-adv-x="588" 
d="M260 211l-37 11q-41 14 -55 41q-14 26 2 36q55 -25 94 -34l7 104q16 202 63 316q47 116 114 116q61 0 102 -95q41 -94 37 -208q-3 -128 -60 -207q-66 -92 -187 -91q-11 -74 -32 -123q277 -174 406 -142q16 -19 -8 -50q-28 -34 -82 -34q-125 0 -345 170q-47 -65 -110 -65
q-52 0 -96 38q-38 33 -56 83q-17 50 -5 83q14 38 58 38q46 0 180 -84q6 45 10 97zM356 376l-9 -117q84 9 126 87q35 64 37 166q2 88 -21 162q-23 72 -48 72q-63 0 -85 -370zM235 56q-110 87 -142 87q-18 0 -16 -20q1 -19 15 -45q35 -65 77 -65q47 0 66 43z" />
    <glyph glyph-name="M" unicode="M" horiz-adv-x="849" 
d="M264 -36q-32 20 -30 57l18 460q4 262 -28 262q-26 0 -66 -58t-60 -127q-22 -78 -2 -128q24 -58 106 -58q9 -18 -9 -39q-20 -23 -50 -23q-89 0 -118 77q-26 68 3 169q27 98 86 169q65 77 133 77q76 0 76 -246q48 207 136 207q86 0 97 -179q58 216 154 216q46 -1 70 -53
q27 -58 21 -166l-10 -179q-9 -160 -10 -217q-6 -259 33 -259q22 0 89 21q29 -18 1 -51q-28 -34 -82 -34q-121 0 -121 324q0 64 14 372q9 173 -15 173q-42 0 -91 -165q-64 -209 -80 -546q-11 -20 -39 1q-32 23 -30 69l6 190l8 197q4 217 -28 217q-28 0 -64 -131
q-53 -199 -80 -600q-7 -18 -38 1z" />
    <glyph glyph-name="N" unicode="N" horiz-adv-x="687" 
d="M320 451q81 349 212 349q52 0 81 -53q32 -59 26 -166l-10 -179q-9 -160 -10 -216q-6 -259 33 -259q22 0 89 21q29 -18 1 -51q-28 -34 -82 -34q-121 0 -121 323q0 61 15 382q4 80 -1 117q-6 44 -34 44q-64 0 -131 -244q-64 -237 -86 -522q-7 -18 -38 1q-32 20 -30 57
l18 460q4 262 -28 262q-26 0 -66 -58t-60 -127q-22 -78 -2 -128q24 -58 106 -58q9 -18 -9 -39q-20 -23 -50 -23q-89 0 -118 77q-26 68 3 169q27 98 86 169q65 77 133 77q94 0 73 -351z" />
    <glyph glyph-name="O" unicode="O" horiz-adv-x="659" 
d="M173 52q-56 86 -56 216q-80 24 -99 109q-18 78 20 176q37 98 115 167q85 75 188 82q153 11 233 -125q70 -118 66 -302q-4 -169 -78 -288q-81 -131 -214 -131q-114 0 -175 96zM203 325q34 -3 73 4q13 -20 -1 -40q-13 -22 -47 -27l-28 -3q-1 -106 34 -172q41 -74 122 -74
q83 0 142 113q55 105 58 251q4 158 -40 258q-51 116 -158 113q-151 -5 -236 -162q-36 -68 -36 -129q-2 -67 39 -102q24 138 86 215q28 34 64 40q33 6 34 -13q-84 -68 -106 -272z" />
    <glyph glyph-name="P" unicode="P" horiz-adv-x="650" 
d="M77 64q3 15 12 23q7 7 18 3q54 -76 113 -76q33 0 38 236q1 207 -15 361q0 8 14 10q13 3 29 -3q43 -18 46 -74q8 -228 -4 -364q115 24 181 119q60 86 57 194q-3 109 -70 177q-74 76 -198 69q-88 -4 -147 -59q-53 -49 -65 -115q-10 -67 24 -113q37 -51 116 -51
q8 -17 -6 -36q-15 -22 -47 -22q-92 0 -134 72q-39 66 -18 157q23 96 96 157q85 72 207 72q140 0 231 -89q82 -81 93 -203q10 -122 -61 -224q-78 -113 -228 -150q-26 -6 -38 -7q-9 -60 -20 -99q-23 -74 -98 -74q-63 0 -103 39q-31 29 -23 70z" />
    <glyph glyph-name="Q" unicode="Q" horiz-adv-x="576" 
d="M117 331q0 -139 43 -226q48 -96 133 -96q37 0 68 21q-150 207 -161 473q-4 117 31 191q39 77 115 77q100 0 163 -132q60 -123 57 -288q-4 -202 -103 -316q131 -140 291 -125q14 -17 -2 -41q-18 -30 -69 -30q-157 0 -284 144q-50 -29 -111 -29q-95 0 -159 70
q-57 62 -80 171q-48 226 58 410q25 45 55 61q28 15 28 -6q-73 -115 -73 -329zM279 656q-21 -60 -12 -160q21 -226 150 -405q66 105 66 265q0 147 -36 254q-37 111 -93 111q-52 0 -75 -65z" />
    <glyph glyph-name="R" unicode="R" horiz-adv-x="658" 
d="M77 64q3 15 12 23q7 7 18 3q54 -76 113 -76q25 0 34 134q-44 4 -39 30q5 25 42 47q5 225 -14 386q0 8 14 10q13 3 29 -3q43 -18 46 -74q7 -161 1 -294q50 5 86 -17q76 36 116 124q37 83 27 174q-12 96 -75 151q-71 64 -189 57q-88 -4 -147 -59q-53 -49 -65 -115
q-10 -67 24 -113q37 -51 116 -51q8 -17 -6 -36q-15 -22 -47 -22q-92 0 -134 72q-39 66 -18 157q23 96 96 157q85 72 207 72q127 0 215 -73q81 -67 103 -171q22 -102 -22 -200q-49 -105 -160 -160l39 -68q38 -65 65 -98q100 -127 227 -121q14 -17 1 -39q-16 -27 -58 -31
q-115 -13 -222 133q-74 101 -103 199q-1 1 -1 3l-41 -12q-27 -7 -42 -9q-11 -85 -24 -125q-23 -74 -98 -74q-63 0 -103 39q-31 29 -23 70z" />
    <glyph glyph-name="S" unicode="S" horiz-adv-x="500" 
d="M152 355q18 1 27 -3q11 -5 6 -14q-85 -74 -71 -198q15 -129 143 -129q103 0 138 92q36 93 -44 177l-1 1l-1 1l-1 1l-1 1l-1 1l-1 1l-1 2l-1 1l-1 1l-1 1l-1 1l-1 1l-1 1l-1 1l-1 1l-1 1l-2 1l-1 1l-1 1l-1 1l-1 1l-1 1l-1 1l-1 1l-1 2l-1 1l-1 1l-1 1l-1 1l-1 1l-1 1
l-1 1l-1 1v1l-1 1l-1 1l-1 1l-1 1l-1 1l-1 1l-1 1l-1 1l-2 1l-108 112q-110 120 -51 245q56 119 194 119q67 0 105 -41q34 -37 35 -95q1 -55 -23 -107q-26 -53 -65 -75q-27 -14 -51 -7q-24 6 -25 25q67 32 86 138q8 46 -4 74q-15 33 -53 33q-93 0 -127 -85q-38 -93 65 -193
q132 -132 147 -149q101 -118 40 -240q-62 -123 -221 -123q-160 0 -208 136q-43 124 30 215q35 44 79 48z" />
    <glyph glyph-name="T" unicode="T" horiz-adv-x="453" 
d="M6 765q4 32 36 37q46 -38 174 -57q116 -18 209 -7q49 64 123 64q30 0 43 -13q13 -12 4 -30q-23 -45 -143 -68l-3 -1q-26 -72 -36 -280q-16 -294 -18 -302q-16 -151 -119 -151q-53 0 -113 78q-65 83 -54 164q5 29 25 39q19 10 34 -2q4 -69 47 -150q40 -76 68 -76t33 95
q22 459 76 577q-262 -31 -352 24q-40 24 -34 59z" />
    <glyph glyph-name="U" unicode="U" horiz-adv-x="724" 
d="M773 -52q28 -16 0 -50q-30 -35 -86 -35q-115 0 -120 294q-75 -207 -201 -207q-59 0 -89 56q-29 56 -23 157l15 187q12 139 14 181q12 211 -37 211q-26 0 -69 -58q-44 -59 -68 -127q-27 -80 -9 -128q22 -58 105 -58q9 -21 -9 -40q-17 -20 -48 -20q-97 0 -124 77
q-24 68 10 168q33 97 98 168q71 77 140 77q52 0 77 -64q27 -70 17 -200l-13 -163q-9 -109 -13 -183q-4 -95 3 -129q9 -42 42 -42q51 0 108 113q50 98 84 238q21 219 51 339q13 51 61 77q19 11 33 9q15 -1 16 -14q-60 -146 -83 -502q-23 -353 27 -353q26 0 91 21z" />
    <glyph glyph-name="V" unicode="V" horiz-adv-x="691" 
d="M632 263q-44 -135 -108 -216q-73 -91 -156 -91q-170 0 -117 380q29 224 28 309q-2 98 -38 98q-25 0 -68 -58q-45 -60 -67 -127q-28 -78 -11 -128q21 -58 105 -58q7 -21 -9 -40q-17 -18 -48 -20q-93 -2 -120 75q-23 68 10 169q32 99 96 169q69 77 138 77q45 0 70 -78
q29 -89 15 -242q-28 -247 -32 -285q-10 -83 5 -132t51 -49q58 0 113 97q53 90 81 226q30 137 22 257q-9 132 -63 190q-2 15 13 20q14 5 35 0q51 -15 72 -65q76 -181 -17 -478z" />
    <glyph glyph-name="W" unicode="W" horiz-adv-x="889" 
d="M438 76q33 49 53 124q-6 91 3 197q16 213 68 213q46 0 36 -184q-7 -124 -44 -235q20 -167 72 -167q53 0 98 96q41 87 61 222q45 321 -61 444q-2 15 13 20q14 5 35 0q51 -15 72 -65q75 -179 0 -478q-35 -136 -89 -216q-61 -91 -131 -91q-83 0 -115 125q-68 -125 -145 -125
q-91 0 -116 130q-18 99 3 250q29 224 28 309q-2 98 -38 98q-25 0 -68 -58q-45 -60 -67 -127q-28 -78 -11 -128q21 -58 105 -58q7 -21 -9 -40q-17 -18 -48 -20q-93 -2 -120 75q-23 68 10 169q32 99 96 169q69 77 138 77q45 0 70 -78q29 -89 15 -242q-28 -247 -32 -285
q-11 -81 6 -128q15 -45 46 -45q32 0 66 52z" />
    <glyph glyph-name="X" unicode="X" horiz-adv-x="633" 
d="M592 800q11 2 23 -9q30 -25 30 -86q0 -197 -182 -475q45 -139 117 -223q82 -97 188 -97q14 -10 -5 -35q-21 -30 -70 -30q-65 0 -138 68q-87 81 -149 237q-152 -194 -271 -194q-75 0 -116 80q-35 72 -28 161q5 54 32 77q25 22 54 9q-15 -104 2 -183q17 -84 64 -84
q101 0 238 207l-12 41q-8 33 -67 313q-36 169 -71 169q-21 0 -56 -59q-35 -60 -52 -130q-18 -80 5 -130q27 -59 111 -59q7 -21 -9 -40q-18 -20 -48 -20q-97 0 -129 77q-27 68 -2 170q24 97 78 170q57 77 113 77q68 0 116 -141q20 -59 81 -339q124 237 141 467q1 9 12 11z
" />
    <glyph glyph-name="Y" unicode="Y" horiz-adv-x="694" 
d="M500 196q51 107 85 259q18 152 43 255q13 51 61 77q19 11 33 9q15 -1 16 -14q-57 -136 -90 -572q-20 -287 -33 -374q-23 -156 -133 -156q-145 0 -218 145q-23 47 -1 90q20 41 49 27q34 -100 84 -156q46 -52 94 -52q38 0 53 171q23 252 29 288l-5 -9v10
q-79 -195 -201 -195q-59 0 -89 56q-29 56 -23 157q5 63 15 163q12 110 14 156q12 211 -37 211q-26 0 -69 -58q-44 -59 -68 -127q-27 -80 -9 -128q22 -58 105 -58q9 -21 -9 -40q-17 -20 -48 -20q-97 0 -124 77q-24 68 10 168q33 97 98 168q71 77 140 77q52 0 77 -64
q27 -70 17 -200l-13 -138q-9 -93 -13 -159q-4 -94 3 -129q9 -42 42 -42q55 0 115 127z" />
    <glyph glyph-name="Z" unicode="Z" horiz-adv-x="577" 
d="M323 -10q-82 36 -116 39q-85 -74 -145 -74q-62 0 -43 43q19 40 87 69q40 17 84 18q129 131 226 398q40 113 47 184q9 77 -23 77q-147 0 -269 -125q-49 -51 -48 -87q1 -39 69 -39q10 -24 -9 -43q-19 -21 -59 -21q-91 0 -91 82q0 83 139 183q149 107 291 107q74 0 86 -80
q10 -69 -31 -193q-86 -257 -261 -449q35 -8 102 -34q57 -22 86 -22q21 0 32 81q10 76 -1 144q15 21 46 -6q32 -29 32 -84q0 -81 -31 -142q-30 -60 -70 -60q-53 0 -130 34z" />
    <glyph glyph-name="bracketleft" unicode="[" horiz-adv-x="280" 
d="M333 810q7 -4 5 -23q-3 -22 -24 -32q-26 -15 -90 -15q-40 -361 -60 -832q54 -5 106 5q9 -5 3 -24q-6 -22 -28 -31q-49 -21 -103 -17q-33 0 -40 40q-7 42 16 438q22 378 30 417q8 29 29 51q20 23 35 21q6 -1 121 2z" />
    <glyph glyph-name="backslash" unicode="\" horiz-adv-x="428" 
d="M31 775q8 12 17 14q9 1 13 -8q101 -337 366 -819q2 -3 -2 -7q-3 -3 -11 -5q-19 -1 -42 32q-70 98 -204 377q-124 258 -145 335q-13 49 8 81z" />
    <glyph glyph-name="bracketright" unicode="]" horiz-adv-x="272" 
d="M7 -163q-7 4 -4 23q3 21 23 32q27 15 90 15q40 361 60 832q-54 5 -106 -5q-9 4 -3 24q6 22 28 31q49 21 103 17q33 0 40 -40q7 -42 -16 -438q-22 -378 -30 -417q-6 -28 -28 -51q-21 -22 -36 -21q-6 1 -121 -2z" />
    <glyph glyph-name="asciicircum" unicode="^" horiz-adv-x="297" 
d="M181 709q-48 -85 -67 -109q-14 -15 -33 -11q-20 4 -16 19q43 96 108 185q8 11 21 11q14 -2 21 -12q54 -94 79 -184q6 -16 -20 -21q-27 -6 -44 23q-31 53 -49 99z" />
    <glyph glyph-name="underscore" unicode="_" horiz-adv-x="510" 
d="M99 -114q-30 4 -45 30q-13 25 2 32q7 0 30.5 -1t79 -2t104.5 -2l177 -6q30 -1 41 -19q10 -16 0 -29q-285 -17 -389 -3z" />
    <glyph glyph-name="grave" unicode="`" horiz-adv-x="177" 
d="M141 557q2 -11 -10 -12q-13 -1 -28 12q-48 45 -56 86q-7 34 16 56t31 2q8 -33 47 -144z" />
    <glyph glyph-name="a" unicode="a" 
d="M169 77q-26 -83 -80 -83q-45 0 -64 69q-17 63 -6 152q12 88 47 151q41 69 95 69q41 0 62 -25q19 -20 17 -52q-2 -31 -18 -47q-19 -19 -47 -8q9 31 4 59q-5 27 -20 27q-36 0 -62 -161q-24 -161 8 -161q37 0 64 201q21 10 45 -2q26 -14 24 -42l-5 -104q-3 -43 6 -43
q7 0 19 18q30 44 50 106q10 7 21 -11q13 -19 4 -43q-49 -147 -117 -147q-36 0 -47 77z" />
    <glyph glyph-name="b" unicode="b" horiz-adv-x="271" 
d="M246 273v-8q-1 -100 -38 -179q-39 -86 -97 -86q-101 0 -94 226q10 299 55 471q9 37 41 60t38 2q-57 -287 -62 -538q-4 -160 24 -160q23 0 43 75q20 70 21 147q-51 24 -54 79t45 55q58 0 74 -93q65 3 112 47q5 1 7.5 -4.5t3.5 -17.5q0 -27 -16 -40q-38 -35 -103 -36z" />
    <glyph glyph-name="c" unicode="c" horiz-adv-x="235" 
d="M161 348q4 43 -14 43q-17 0 -35 -62q-18 -58 -23 -132q-7 -144 54 -144q64 0 115 148q10 7 21 -11q12 -19 4 -43q-25 -72 -70 -115q-43 -42 -93 -42q-57 0 -86 63q-25 53 -20 140q4 93 40 166q39 78 97 78q43 0 62 -34q17 -29 9 -70q-8 -42 -30 -61q-26 -23 -55 -5
q19 39 24 81z" />
    <glyph glyph-name="d" unicode="d" horiz-adv-x="286" 
d="M332 190q12 -19 4 -43q-50 -147 -117 -147q-37 0 -48 75q-24 -81 -79 -81q-45 0 -66 69q-19 62 -10 152t43 151q37 69 93 69q16 0 28 -3q14 171 27 264q6 39 39 61q32 23 38 1q-29 -225 -44 -538q-8 -143 2 -143q7 0 19 18q30 44 50 106q9 7 21 -11zM168 243l9 141
q-12 5 -27 5q-38 0 -56 -161q-20 -161 14 -161t60 176z" />
    <glyph glyph-name="e" unicode="e" horiz-adv-x="235" 
d="M208 395q14 -37 2 -89q-12 -53 -43 -90q-35 -41 -79 -43q0 -120 55 -120q64 0 115 148q10 7 21 -11q12 -19 4 -43q-25 -72 -70 -115q-43 -42 -93 -42q-57 0 -86 63q-25 53 -20 140q4 94 40 165q39 77 97 77q41 0 57 -40zM113 332q-19 -59 -23 -124q45 26 65 105
q8 32 5 53q-2 23 -13 23q-16 0 -34 -57z" />
    <glyph glyph-name="f" unicode="f" horiz-adv-x="238" 
d="M122 669q14 9 24 9q11 2 11 -8q-34 -155 -55 -397q25 -6 47 -23q6 0 7 1q87 17 150 72q14 2 17 -15q2 -18 -10 -28q-47 -45 -128 -73q57 -103 21 -271q-15 -71 -44 -117q-31 -49 -66 -49q-96 0 -70 416q-29 11 -24 40t31 42q21 246 45 340q7 38 44 61zM127 190l-32 -6
q-24 -352 18 -352q21 0 32 152q11 156 -18 206z" />
    <glyph glyph-name="g" unicode="g" horiz-adv-x="281" 
d="M240 -6q-10 -357 -112 -357q-50 0 -94 53q-42 51 -48 117q-7 72 33 118q47 55 150 57v94q-24 -76 -80 -76q-45 0 -63 66q-18 62 -6 147q12 87 47 146q39 66 94 66q39 0 62 -23q19 -20 17 -49q-1 -28 -19 -44q-19 -16 -46 -6q8 32 3 53q-5 20 -19 20q-38 0 -62 -151
q-26 -152 8 -152q37 0 64 195q21 9 43 -1q24 -11 26 -38l3 -159q54 75 67 131q9 7 18 -10q10 -17 4 -43q-28 -104 -90 -154zM168 -64q-118 -8 -107 -125q4 -42 24 -80q19 -35 38 -37q19 -1 30 59.5t15 182.5z" />
    <glyph glyph-name="h" unicode="h" horiz-adv-x="310" 
d="M352 190q12 -19 4 -43q-50 -147 -117 -147q-51 0 -55 109q-2 66 14 196q3 26 -6 26q-8 0 -76 -263q-20 -71 -46 -71q-47 0 -51 112q-5 68 3 188q16 273 36 402q6 38 38 61q31 22 39 1q-35 -278 -49 -629q58 282 122 291q29 5 46 -20q19 -28 15 -86q-10 -122 -12 -180
t5 -60q7 0 19 18q30 44 50 106q9 7 21 -11z" />
    <glyph glyph-name="i" unicode="i" horiz-adv-x="144" 
d="M63 659q8 38 41 55q33 19 36 -5q0 -8 -20 -111q-8 -45 -36 -45q-40 0 -21 106zM20 122q-4 88 14 224q6 42 43 66q16 9 25 8q10 0 9 -12q-20 -167 -23.5 -248.5t9.5 -82.5q7 0 19 18q30 44 50 106q10 7 21 -11q13 -19 4 -43q-50 -147 -121 -147q-45 0 -50 122z" />
    <glyph glyph-name="j" unicode="j" horiz-adv-x="139" 
d="M81 57q65 55 84 144q9 7 20 -10q13 -18 5 -43q-39 -114 -109 -153q-3 -345 -110 -345q-52 0 -94 50q-41 47 -49 110q-7 66 34 110q50 52 152 53v10q0 253 19 363q6 42 43 66q16 9 25 8q11 0 9 -12q-22 -161 -29 -351zM13 -73q-120 -6 -109 -113q5 -39 25 -73
q19 -33 37 -34q44 -2 47 220zM55 562q-4 27 5 71q7 37 42 55q34 19 36 -5q-2 -19 -22 -111q-8 -45 -37 -45q-21 0 -24 35z" />
    <glyph glyph-name="k" unicode="k" horiz-adv-x="281" 
d="M319 190q12 -19 4 -43q-49 -147 -117 -147q-32 0 -52 32q-14 22 -36 90q-27 -9 -42 -8q-3 -63 -3 -108q0 -11 -18 -11q-37 0 -43 43l1 93q7 368 40 553q3 28 25 49q20 18 38 18q9 0 11 -5q-18 -112 -38 -409q34 97 91 97q76 0 64 -107q-12 -103 -81 -172q34 -82 53 -82
q17 0 32 22q30 44 50 106q9 7 21 -11zM120 188q54 68 54 175q0 25 -9 25q-34 0 -79 -201q13 3 34 1z" />
    <glyph glyph-name="l" unicode="l" horiz-adv-x="213" 
d="M221 675q13 -70 1 -178q-14 -108 -43 -183q-34 -84 -76 -88q-5 -173 39 -173q61 0 110 148q9 7 20 -10q10 -19 3 -44q-25 -76 -69 -118q-40 -38 -83 -38q-108 0 -87 308q12 168 43 294q39 156 87 160q41 2 55 -78zM105 278l-1 -11q39 54 61 243q22 187 0 187
q-15 0 -37 -175q-20 -160 -23 -244z" />
    <glyph glyph-name="m" unicode="m" horiz-adv-x="468" 
d="M512 190q13 -18 5 -43q-49 -147 -117 -147q-50 0 -52 120q-1 55 17 207q3 26 -6 26q-5 0 -79 -285q-18 -65 -47 -63q-39 1 -43 104q-2 68 4 178q2 26 -6 26q-9 0 -68 -245q-18 -71 -46 -71q-48 0 -52 112q-7 106 15 254q6 43 43 65q16 9 25 8q11 0 9 -12
q-25 -207 -25 -308q51 255 109 276q25 8 41 -13q22 -26 20 -88q-2 -90 -2 -132q54 259 115 274q29 8 46 -18q20 -29 15 -88q-7 -83 -10.5 -139t-3.5 -83.5t4 -27.5q7 0 19 18q27 39 50 106q9 8 20 -11z" />
    <glyph glyph-name="n" unicode="n" horiz-adv-x="311" 
d="M212 423q29 5 46 -20q19 -28 15 -86q-10 -122 -12 -180t5 -60q7 0 19 18q27 39 50 106q9 8 20 -11q13 -18 5 -43q-50 -147 -117 -147q-51 0 -54 112q-1 61 15 200q3 26 -6 26t-78 -270q-20 -71 -46 -71q-48 0 -52 112q-7 106 15 254q6 43 43 65q16 9 25 8q11 0 9 -12
q-25 -207 -25 -304q59 294 123 303z" />
    <glyph glyph-name="o" unicode="o" horiz-adv-x="270" 
d="M182 188q-34 15 -32 69q1 51 33 56q21 2 34.5 -14.5t18.5 -50.5q51 23 86 77q13 0 13 -25q1 -25 -12 -41q-41 -50 -86 -68q-6 -78 -36 -135q-35 -66 -86 -66q-55 0 -83 70q-25 59 -20 153q4 89 37 153q36 70 91 70q74 0 80 -62q2 -25 -10 -38q-14 -15 -35 -6q0 15 -7 33
q-9 23 -23 23q-47 0 -56 -166q-3 -68 6 -115q9 -52 30 -52q35 0 57 135z" />
    <glyph glyph-name="p" unicode="p" horiz-adv-x="295" 
d="M81 448q33 21 40 5q-10 -55 -16 -133q41 101 102 101q67 0 65 -122q-1 -114 -61 -242q27 0 59 32q39 40 61 113q10 6 20 -13q10 -21 3 -43q-25 -75 -72 -116q-38 -34 -78 -34q-41 0 -57 25q-15 24 -2 54q25 61 45 174q20 119 -1 119q-20 0 -49 -71q-34 -85 -53 -210
q-18 -234 -20 -387q-2 -17 -30 -10q-27 7 -29 27q-16 301 36 674q3 36 37 57z" />
    <glyph glyph-name="q" unicode="q" horiz-adv-x="281" 
d="M238 217l-13 -168q64 73 84 152q7 7 18 -10q10 -17 4 -43q-19 -78 -78 -143q89 -43 63 -207q-9 -65 -36 -112q-28 -49 -63 -49q-60 0 -70 136q-8 101 8 291q-24 -67 -66 -67q-45 0 -65 68q-17 63 -5 149q10 88 47 149q41 68 95 68q40 0 61 -23q20 -20 18 -49
q-1 -26 -19 -44q-19 -16 -46 -6q8 32 3 53q-5 20 -19 20q-37 0 -63 -156q-24 -156 9 -156q38 0 64 191q21 10 44 -2q26 -14 25 -42zM257 -172q2 135 -37 144q-18 -278 7 -278q28 0 30 134z" />
    <glyph glyph-name="r" unicode="r" horiz-adv-x="269" 
d="M72 515q-16 0 -21 -47q-6 -48 16 -61q8 55 9.5 81t-4.5 27zM311 190q12 -19 3 -43q-56 -153 -136 -153q-64 0 -72 108q-6 110 55 235q-32 -4 -63 -1q-29 -145 -71 -233q-12 -26 -32 -21t-18 20q47 81 80 246q-42 24 -48 78q-6 46 15 99q19 47 45 70q29 23 44 -5
q19 -32 -4 -190q39 0 77 12q25 -6 44 -40q23 -38 5 -61q-36 -46 -53 -146q-16 -100 16 -100q44 0 92 136q9 7 21 -11z" />
    <glyph glyph-name="s" unicode="s" horiz-adv-x="251" 
d="M143 267l78 -117q31 -49 -7 -105q-37 -55 -91 -55t-87 42q-29 35 -34 88q-3 44 12 72q17 29 45 23q2 -67 21 -116q22 -57 53 -57q27 0 31 25q5 25 -14 51l-62 97q-43 67 -44 120q-1 49 31 81q29 29 68 29q49 0 74 -28q21 -23 21 -59q-2 -34 -20 -54q-21 -23 -49 -14
q11 24 9 63q-3 45 -30 45q-28 0 -33 -39q-6 -43 28 -92z" />
    <glyph glyph-name="t" unicode="t" horiz-adv-x="149" 
d="M-75 511l123 2q2 26 5 39q6 42 43 66q16 9 25 8q11 0 9 -12q-6 -41 -11 -99q202 4 260 2q1 -14 -7 -21t-27 -8q-105 -6 -230 -11q-12 -132 -18 -222t-6 -134t7 -44q10 0 22 18q39 58 52 106q9 7 20 -10q12 -18 5 -43q-15 -52 -48 -96q-37 -52 -78 -52q-57 0 -52 128
q4 149 24 346q-103 -4 -129 -4q-22 0 -16 19q6 17 27 22z" />
    <glyph glyph-name="u" unicode="u" 
d="M162 72q-27 -76 -77 -76q-65 0 -71 129q-5 101 20 214q10 53 45 78q32 25 40 5q-34 -159 -37 -263q-2 -90 20 -90q34 0 57 128q3 72 14 149q4 41 43 66q14 10 25 8q11 0 9 -12q-21 -167 -24.5 -248.5t10.5 -82.5q7 0 19 18q27 39 50 106q9 7 21 -11q12 -19 4 -43
q-50 -147 -121 -147q-35 0 -47 72z" />
    <glyph glyph-name="v" unicode="v" horiz-adv-x="276" 
d="M89 438q24 10 27 -6q-22 -108 -24 -227q-3 -147 36 -147q16 0 33 48q15 42 23 108q-33 30 -30 111q1 79 38 87q26 5 42 -47q14 -46 13 -95q56 26 90 76q13 0 12 -25q0 -25 -13 -41q-41 -50 -94 -68q-10 -84 -40 -144q-34 -72 -89 -72q-83 0 -93 166q-8 145 28 227
q15 35 41 49z" />
    <glyph glyph-name="w" unicode="w" horiz-adv-x="405" 
d="M159 114q-14 58 -14 119q0 116 45 125q16 4 30 -20q14 -26 14 -71q0 -67 -24 -139q16 -69 42 -69q50 0 54 153q-32 26 -32 105q0 40 11 71q14 35 35 35q22 0 35 -52q12 -45 12 -94v-7q54 25 88 76q13 0 13 -25q0 -68 -104 -107q-14 -218 -112 -218q-46 0 -74 61
q-34 -55 -76 -55q-44 0 -69 63q-21 54 -21 135q0 114 25 180q24 61 58 61q11 0 13 -9q-23 -121 -23 -230q0 -133 36 -133q21 0 38 45z" />
    <glyph glyph-name="x" unicode="x" horiz-adv-x="326" 
d="M297 415q7 -25 0 -53q-11 -47 -74 -156q40 -127 58 -127q7 0 19 18q30 44 50 106q9 7 21 -11q12 -19 4 -43q-49 -147 -117 -147q-42 0 -86 114q-52 -85 -69 -100q-15 -16 -29 -13q-12 3 -17 18q38 54 94 160q-29 105 -43 168q-6 29 -17 29q-19 0 -22 -85q-5 -86 36 -86
q9 -12 0 -32q-11 -23 -42 -23q-33 0 -47 45q-11 41 -1 98q11 57 34 97q29 45 60 45q47 0 74 -94l17 -62q11 21 71 153q19 8 26 -19z" />
    <glyph glyph-name="y" unicode="y" horiz-adv-x="283" 
d="M166 220q4 84 11 126q6 42 43 66q16 9 25 8q11 0 9 -12q-22 -161 -29 -351q65 55 84 144q9 7 20 -10q13 -18 5 -43q-39 -114 -109 -153q-3 -345 -110 -345q-52 0 -94 50q-41 47 -49 110q-7 66 34 110q50 52 152 53v10q0 55 1 78q-25 -63 -72 -63q-63 0 -71 122
q-5 94 20 206q10 52 46 78q31 25 39 5q-34 -159 -37 -256q-1 -82 20 -82q42 0 62 149zM157 -73q-120 -6 -109 -113q5 -39 25 -73q19 -33 37 -34q44 -2 47 220z" />
    <glyph glyph-name="z" unicode="z" horiz-adv-x="277" 
d="M93 288q-18 -37 -17 -60q1 -28 28 -28q3 -19 -17 -33q-14 -10 -31 -10q-46 0 -50 43q-4 39 24 94q72 136 180 136q57 -16 52 -81q-20 -143 -100 -240q55 -43 57 -43q11 0 31 29q30 44 50 106q9 7 21 -11q12 -19 4 -43q-49 -147 -115 -147q-11 0 -81 55q-41 -57 -59 -57
q-21 0 -27 21q-5 19 3 45q20 65 66 58q37 51 61 141q21 80 15 113q-52 0 -95 -88z" />
    <glyph glyph-name="braceleft" unicode="{" horiz-adv-x="315" 
d="M132 285q-22 -5 -38 -5q-29 0 -45 13q-16 12 -16 28q0 41 73 41q20 0 38 -9q33 40 37 160q2 38 2 96l3 78q12 123 114 123q39 0 58 -19t0 -41q-42 9 -68 -8q-27 -17 -31 -52q-2 -16 -4 -80q-1 -57 -5 -104q-12 -136 -63 -189q35 -51 31 -133l-10 -120q-11 -100 8 -136
q22 -46 95 -31q17 -17 -3 -39q-21 -23 -66 -23q-56 0 -87 45q-35 50 -24 140q23 226 1 265z" />
    <glyph glyph-name="bar" unicode="|" horiz-adv-x="251" 
d="M188 798q31 25 34 1q-59 -389 -70 -953q0 -10 -22 -1q-23 8 -28 37q-7 42 16 438q22 378 30 417q9 37 40 61z" />
    <glyph glyph-name="braceright" unicode="}" horiz-adv-x="345" 
d="M235 360q22 5 39 5q29 0 45 -13q16 -12 16 -28q0 -41 -73 -41q-17 0 -39 8q-33 -40 -37 -160q0 -9 -0.5 -22.5t-1 -34.5t-0.5 -38q0 -48 -2 -78q-12 -123 -114 -123q-39 0 -58 19t0 41q42 -9 68 8q27 17 31 52q2 16 4 79q1 59 5 105q12 137 63 189q-35 51 -31 133l10 120
q11 100 -8 136q-22 46 -95 31q-17 16 3 39q21 23 66 23q56 0 87 -45q35 -50 24 -140q-23 -228 -2 -265z" />
    <glyph glyph-name="asciitilde" unicode="~" horiz-adv-x="442" 
d="M192 222q-71 15 -96 -22q-14 0 -20 13q-6 14 1 30q17 42 84 42q1 0 113 -20q61 -10 89 24q16 0 24 -14q6 -14 0 -31q-13 -46 -68 -46q-9 0 -127 24z" />
    <glyph glyph-name="exclamdown" unicode="&#xa1;" horiz-adv-x="208" 
d="M162 754q8 -18 8 -36q-2 -54 -46 -54q-43 0 -29 65q9 42 47 42q12 0 20 -17zM142 154l-9 -89q-5 -33 -39 -58q-35 -26 -42 -4q38 254 44 575q0 11 18 11q53 0 41 -256q-3 -85 -13 -179z" />
    <glyph glyph-name="cent" unicode="&#xa2;" horiz-adv-x="305" 
d="M300 313q8 -22 -4 -51q-28 -73 -109 -87q-4 -81 -4 -119q0 -8 -16 -1q-15 7 -20 33q-3 26 -2 86q-63 7 -93 68q-28 53 -20 130q7 74 42 133q37 62 92 76q6 68 7 71q7 32 30 45q21 10 25 -10l-12 -104q47 -7 73 -45q23 -36 14 -76q-4 -23 -23 -31q-17 -6 -34 5
q13 79 -35 99q-13 -163 -21 -312q64 23 77 114q25 -1 33 -24zM162 529q-50 -39 -61 -158q-11 -121 45 -147q5 142 16 305z" />
    <glyph glyph-name="sterling" unicode="&#xa3;" horiz-adv-x="399" 
d="M312 303l-91 -6q-6 -76 -23 -135q88 -43 186 -19q16 -16 -1 -43q-21 -31 -78 -31q-72 0 -130 43q-29 -44 -75 -44q-30 0 -53 21q-20 20 -23 46q-4 26 11 46q17 21 50 21q21 0 51 -11l5 46l4 57q-31 0 -36 1q-27 3 -38 24q-9 18 2 27q19 -1 76 -1q25 286 140 286
q53 0 79 -50q24 -47 10 -120q-4 -28 -25 -45q-24 -20 -49 -7q21 63 16 118q-6 53 -32 53q-46 0 -63 -234q41 0 51 -1q27 -1 36 -18q8 -13 0 -24zM127 144q-18 8 -37 8q-24 0 -18 -16q8 -17 29 -17q19 0 26 25z" />
    <glyph glyph-name="yen" unicode="&#xa5;" horiz-adv-x="430" 
d="M317 242l-92 -6q-7 -100 -6 -154q-12 -17 -36 -11q-26 8 -27 37q-1 21 5 125q-36 -2 -47 1q-28 3 -39 24q-9 18 3 27q23 -1 87 -1l3 32q-18 -1 -45 1q-29 3 -39 24q-9 18 3 27q21 -1 80 -1q-7 81 -51 155q-37 62 -70 73q11 23 34 30q27 10 50 -11q52 -47 85 -186
q38 126 134 191q23 16 45 11q21 -6 20 -30q-108 -66 -170 -232q37 0 46 -1q27 -1 36 -18q8 -13 0 -24l-93 -6l-4 -34q42 0 52 -1q27 -2 36 -18q7 -14 0 -24z" />
    <glyph glyph-name="brokenbar" unicode="&#xa6;" horiz-adv-x="251" 
d="M183 798q31 25 35 1q-26 -203 -43 -450q-1 -10 -29 -2q-28 9 -26 38q4 257 24 352q7 37 39 61zM144 277q24 12 29 -3l-26 -426q-1 -10 -26 -2q-26 9 -24 38q4 301 14 346q7 33 33 47z" />
    <glyph glyph-name="section" unicode="&#xa7;" horiz-adv-x="493" 
d="M489 202q-18 -84 -103 -121l12 -12q94 -99 39 -208q-55 -108 -191 -108q-132 0 -184 100q-49 95 13 181q29 41 70 49q39 8 44 -15q-79 -66 -59 -164t115 -98q92 0 121 74q30 76 -48 145q-70 62 -142 134q-93 91 -79 186q13 88 107 120q-106 106 -56 215q48 105 181 105
q67 0 109 -36q36 -31 47 -82q8 -49 -10 -92q-20 -45 -58 -63q-31 -13 -52 -7q-20 6 -20 23q62 27 63 115q0 37 -17 62q-19 27 -55 27q-88 0 -109 -80q-23 -86 75 -168q92 -78 131 -117q74 -78 56 -165zM242 426q-53 -28 -55 -97q0 -75 80 -143l78 -66q57 29 61 89
q5 65 -56 118q-62 53 -108 99z" />
    <glyph glyph-name="dieresis" unicode="&#xa8;" horiz-adv-x="257" 
d="M43 575q-3 26 5 65q4 34 36 51q31 16 34 -5l-18 -102q-8 -41 -34 -41q-18 0 -23 32zM144 575q-3 26 5 65q5 34 36 51q31 16 34 -5l-18 -102q-8 -41 -34 -41q-18 0 -23 32z" />
    <glyph glyph-name="copyright" unicode="&#xa9;" horiz-adv-x="673" 
d="M114 85q-69 81 -80 212q-9 122 39 223q49 106 139 127q68 53 154 53q155 0 239 -111q75 -100 65 -243q-9 -143 -96 -244q-96 -111 -245 -111q-136 0 -215 94zM312 642h3q-98 -17 -156 -112q-53 -88 -55 -203q-1 -115 55 -193q61 -87 175 -87q112 0 183 93q66 87 70 206
q5 122 -55 205q-68 93 -190 93q-6 0 -30 -2zM469 278q7 -23 -7 -57q-36 -82 -127 -82q-75 0 -109 64q-31 58 -22 142t51 142q46 64 110 64t95 -46q28 -42 12 -97q-10 -31 -33 -40t-43 9q22 49 10 87q-10 36 -43 36q-30 0 -56 -48q-22 -45 -30 -107q-7 -61 7 -107
q16 -48 57 -48q34 0 59 31q25 32 32 82q30 0 37 -25z" />
    <glyph glyph-name="ordfeminine" unicode="&#xaa;" 
d="M185 540q-13 -66 -56 -66q-30 0 -43 46q-12 42 -4 102q7 60 32 102q25 46 64 46q28 0 41 -13t12 -39q-2 -21 -13 -32q-14 -12 -31 -5q6 22 2 35q-3 14 -13 14q-25 0 -41 -100t5 -100q25 0 43 128q13 7 30 -1q16 -7 16 -28q-1 -99 1 -99q6 0 13 12l12 20q6 9 15 -5
q10 -15 1 -30q-28 -49 -56 -49q-25 0 -30 62zM107 408q-31 5 -41 23t5 25l161 -11q60 -4 36 -34q-128 -8 -161 -3z" />
    <glyph glyph-name="guillemotleft" unicode="&#xab;" horiz-adv-x="467" 
d="M153 255q66 -38 95 -92q21 -42 2 -70q-17 -25 -41 -17q-49 107 -128 154q-36 20 -3 39q58 31 113 81q52 48 60 71q33 11 44 -24q11 -38 -26 -72q-42 -38 -116 -70zM315 255q66 -38 95 -92q21 -42 2 -70q-17 -25 -41 -17q-49 107 -128 154q-36 20 -3 39q58 31 113 81
q52 48 60 71q33 11 44 -24q11 -38 -26 -72q-42 -38 -116 -70z" />
    <glyph glyph-name="uni00AD" unicode="&#xad;" horiz-adv-x="413" 
d="M129 210q-30 4 -45 30q-13 25 2 32q157 -5 234 -11q30 -1 41 -19q10 -16 0 -29q-177 -10 -232 -3z" />
    <glyph glyph-name="registered" unicode="&#xae;" horiz-adv-x="673" 
d="M442 219q42 -47 42 -51q0 -19 -43 -19q-51 0 -118 123q-16 -4 -45 -5v-106q-3 -12 -31 -12q-38 0 -38 33l2 80q1 51 1 133l-2 99q0 16 23 34t43 18q198 0 198 -136q0 -88 -90 -122q8 -12 58 -69zM279 492v-172q126 4 126 90q0 78 -126 82zM589 600q74 -91 74 -226
q0 -152 -88 -261q-98 -122 -254 -122q-145 0 -226 107q-70 94 -70 234q0 114 47 203q51 94 133 113q67 52 153 52q147 0 231 -100zM514 146q65 92 65 216q0 116 -59 195q-68 87 -186 87q-109 0 -176 -100q-62 -92 -62 -217q0 -117 56 -194q62 -86 174 -86q116 0 188 99z" />
    <glyph glyph-name="degree" unicode="&#xb0;" horiz-adv-x="215" 
d="M39 673q-3 30 9 55q14 27 35 33q12 24 47 24q41 0 64 -29q20 -26 17 -64q-1 -37 -26 -65q-26 -29 -64 -29q-75 0 -82 75zM125 743h-4q-27 -22 -28 -62q-2 -41 30 -41q36 0 37 52q2 51 -35 51z" />
    <glyph glyph-name="plusminus" unicode="&#xb1;" horiz-adv-x="413" 
d="M189 273l6 53q4 37 37 62t37 0q-8 -50 -17 -118l68 -4q28 -1 41 -22q10 -18 0 -31q-39 -3 -115 -5l-11 -113q-1 -10 -24 -1q-24 8 -26 37q-2 23 0 77q-42 0 -56 2q-29 3 -44 32q-15 28 1 35zM126 2q-29 3 -44 32q-15 28 1 35q157 -5 234 -11q28 -1 41 -22q10 -18 0 -31
q-177 -10 -232 -3z" />
    <glyph glyph-name="twosuperior" unicode="&#xb2;" horiz-adv-x="290" 
d="M138 440q-37 -24 -66 -20q-27 3 -15 32t53 29l15 -1q69 68 89 163q8 40 2 64q-8 26 -27 26q-47 0 -72 -63q-10 -27 -1 -44q12 -20 48 -20q8 -14 -3 -27q-14 -14 -39 -10q-42 8 -54 40q-11 30 5 68q15 38 47 65q35 29 71 29q98 0 80 -114q-16 -102 -97 -186q38 -4 82 13
q16 -7 8 -35q-8 -29 -48 -29q-33 0 -78 20z" />
    <glyph glyph-name="threesuperior" unicode="&#xb3;" horiz-adv-x="275" 
d="M195 502q6 43 -25 70q-20 -7 -41 -7q-30 0 -27 21q2 21 36 21q17 0 32 -3q26 34 31 82q4 46 -17 46q-38 0 -65 -34q-27 -36 30 -41q5 -12 -8 -25q-14 -14 -34 -8q-38 11 -45 35q-6 22 11 49q42 63 116 63q68 0 70 -68t-53 -111q63 -33 43 -102q-21 -70 -98 -70
q-81 0 -99 64q-7 22 7 42q13 18 36 18q-2 -27 12 -53q17 -33 43 -33q40 0 45 44z" />
    <glyph glyph-name="acute" unicode="&#xb4;" horiz-adv-x="177" 
d="M120 699q23 -22 16 -56q-8 -41 -56 -86q-15 -13 -28 -12q-12 1 -10 12q39 111 47 144q8 20 31 -2z" />
    <glyph glyph-name="mu" unicode="&#xb5;" 
d="M164 72q-25 -76 -77 -76q-10 0 -19 3l-9 -212q0 -17 -28 -10q-26 7 -28 27q-7 313 33 535q10 53 45 78q32 25 40 5q-34 -162 -36 -263q-1 -90 19 -90q36 0 57 128q3 72 14 149q6 42 43 66q16 9 25 8q11 0 9 -12q-20 -167 -23.5 -248.5t9.5 -82.5q7 0 19 18q30 44 50 106
q9 7 21 -11q12 -19 4 -43q-50 -147 -121 -147q-35 0 -47 72z" />
    <glyph glyph-name="paragraph" unicode="&#xb6;" horiz-adv-x="542" 
d="M545 788q11 -14 1 -32q-26 -48 -134 -67q-55 -155 -67 -750q-1 -13 -11 -16q-11 -2 -24 7q-34 22 -34 71q0 121 7 218q-133 -7 -201 71q-61 70 -44 177q18 108 106 184q98 85 248 91q46 60 114 60q27 0 39 -14zM216 593q-50 -59 -62 -131q-11 -73 22 -123q34 -55 111 -63
q8 114 24 229q13 103 44 174q-83 -21 -139 -86zM461 626q23 17 29 5q-32 -180 -43 -660q0 -11 -9 -12t-19 6q-28 22 -28 79q0 351 40 535q6 29 30 47z" />
    <glyph glyph-name="periodcentered" unicode="&#xb7;" horiz-adv-x="213" 
d="M88 220q-8 18 -8 37q2 53 46 53q43 0 29 -65q-9 -42 -47 -42q-12 0 -20 17z" />
    <glyph glyph-name="onesuperior" unicode="&#xb9;" horiz-adv-x="267" 
d="M125 462q0 88 16 185q-29 -54 -57 -54q-36 0 -20 37q30 3 62 60q24 43 31 75q6 24 30 3q25 -20 17 -42q-31 -87 -32 -265l40 -2q20 -1 25 -15q5 -12 -3 -18l-140 -4q-32 0 -38 18q-5 14 4 24q40 -2 65 -2z" />
    <glyph glyph-name="ordmasculine" unicode="&#xba;" horiz-adv-x="270" 
d="M215 606q-23 11 -22 46q2 36 23 37q13 1 21.5 -8.5t12.5 -31.5q16 5 36 33q5 4 8 0.5t5 -13.5q3 -19 -6 -30q-22 -24 -42 -32q-4 -49 -25 -89q-23 -44 -56 -44q-36 0 -55 46q-16 41 -13 103q3 60 24 102q24 46 61 46q48 0 53 -41q1 -15 -7 -25q-9 -10 -23 -4q0 29 -20 29
q-31 0 -37 -100q-5 -101 24 -101q24 0 38 77zM111 408q-31 5 -41 23t5 25l161 -11q60 -4 36 -34q-128 -8 -161 -3z" />
    <glyph glyph-name="guillemotright" unicode="&#xbb;" horiz-adv-x="482" 
d="M375 241q-69 39 -95 92q-21 42 -2 70q17 25 41 17q49 -107 128 -154q36 -20 3 -39q-58 -31 -113 -81q-52 -48 -60 -71q-33 -11 -44 24q-11 38 26 72q41 38 116 70zM213 241q-69 39 -95 92q-21 42 -2 70q17 25 41 17q49 -107 128 -154q36 -20 3 -39q-58 -31 -113 -81
q-52 -48 -60 -71q-33 -11 -44 24q-11 38 26 72q41 38 116 70z" />
    <glyph glyph-name="onequarter" unicode="&#xbc;" horiz-adv-x="616" 
d="M548 701q11 1 20 -4q7 -6 1 -16q-273 -401 -387 -678q-2 -8 -10 -1q-9 8 -9 27q0 8 5 30q75 267 314 597q30 40 66 45zM545 259q20 10 31 -4q-15 -45 -21 -122q2 0 21 4q10 -3 6 -25q-5 -23 -30 -29q-2 -36 -2 -82q-5 -10 -25 -5t-21 19q-2 35 0 68q-54 4 -62 5
q-33 4 -54 4q-20 -12 -40 -12q-22 0 -14 23q8 24 39 28q63 107 63 216q13 11 32 -8q21 -21 15 -56q-15 -93 -57 -153q67 -3 81 -2q4 62 13 103q4 17 25 28zM137 385q0 88 16 185q-29 -54 -57 -54q-36 0 -20 37q32 3 63 60q25 43 32 75q6 24 30 3q25 -20 17 -42
q-31 -87 -32 -265l40 -2q20 -1 25 -15q5 -12 -3 -18l-142 -4q-32 0 -38 18q-5 14 4 24q40 -2 65 -2z" />
    <glyph glyph-name="onehalf" unicode="&#xbd;" horiz-adv-x="609" 
d="M546 701q11 1 20 -4q7 -6 1 -16q-273 -401 -387 -678q-2 -8 -10 -1q-9 8 -9 27q0 8 5 30q75 267 314 597q30 40 66 45zM440 20q-35 -23 -66 -20q-27 3 -15 32q14 29 53 29l15 -1q69 68 89 163q8 40 2 64q-8 26 -27 26q-47 0 -72 -63q-11 -27 0 -44q11 -20 47 -20
q8 -14 -3 -27q-14 -14 -39 -10q-42 8 -54 40q-10 28 5 68q17 40 47 65q35 29 71 29q98 0 80 -114q-16 -102 -97 -186q38 -4 82 13q17 -8 9 -35q-9 -29 -49 -29q-33 0 -78 20zM137 385q0 88 16 185q-29 -54 -57 -54q-36 0 -20 37q30 3 62 60q24 43 31 75q6 24 30 3
q25 -20 17 -42q-31 -87 -32 -265l40 -2q20 -1 25 -15q5 -12 -3 -18l-140 -4q-32 0 -38 18q-5 14 4 24q40 -2 65 -2z" />
    <glyph glyph-name="threequarters" unicode="&#xbe;" horiz-adv-x="619" 
d="M548 701q13 1 20 -4q7 -6 1 -16q-273 -401 -387 -678q-2 -8 -10 -1q-9 8 -9 27q0 8 5 30q75 267 314 597q30 40 66 45zM209 431q6 43 -25 70q-20 -7 -41 -7q-30 0 -27 21q2 21 36 21q17 0 32 -3q26 34 31 82q4 46 -17 46q-38 0 -65 -34q-27 -36 30 -41q5 -12 -8 -25
q-14 -14 -34 -8q-38 11 -45 35q-6 22 11 49q42 63 116 63q68 0 70 -68t-53 -111q63 -33 43 -102q-21 -70 -98 -70q-81 0 -99 64q-7 22 7 42q13 18 36 18q-2 -27 12 -53q17 -33 43 -33q40 0 45 44zM545 259q20 10 31 -4q-13 -45 -21 -122q2 0 21 4q10 -3 6 -25
q-5 -23 -30 -29q-2 -36 -2 -82q-5 -9 -24 -5q-21 4 -22 19q-2 35 0 68q-54 4 -62 5q-33 4 -54 4q-20 -12 -40 -12q-22 0 -14 23q9 24 39 28q63 107 63 216q13 11 32 -8q23 -21 15 -56q-15 -93 -57 -153q67 -3 81 -2q4 62 13 103q4 17 25 28z" />
    <glyph glyph-name="questiondown" unicode="&#xbf;" horiz-adv-x="430" 
d="M172 340q-87 -124 -87 -191q0 -102 99 -102q39 0 73 29q30 27 39 65q10 39 -8 65q-23 29 -73 29q-7 22 14 42q24 19 64 12q57 -10 78 -59q20 -44 0 -100q-19 -56 -69 -93q-56 -42 -130 -42q-80 0 -127 45q-45 44 -45 116q0 68 100 208q97 136 91 214q16 16 41 -5
q26 -23 26 -57q0 -51 -86 -176zM276 718q2 -54 -45 -54q-39 0 -37 54q3 53 44 53q36 0 38 -53z" />
    <glyph glyph-name="Agrave" unicode="&#xc0;" horiz-adv-x="656" 
d="M445 868q3 -10 -9 -12q-13 -1 -29 12q-48 45 -56 86q-8 35 17 56q23 21 30 2q14 -51 47 -144zM259 198q78 189 114 361q18 25 38 -13t12 -80q-20 -116 -88 -268q31 0 99 3q59 3 75 2q-17 105 -30 220q-23 185 -32 234q-19 90 -52 90q-31 0 -82 -51q-52 -52 -82 -111
q-36 -69 -27 -112q12 -51 86 -51q9 -14 -7 -35q-18 -23 -56 -23q-81 0 -95 68q-13 60 28 151q40 87 108 150q74 68 143 68q100 0 133 -242q50 -369 69 -452q41 -179 74 -179q16 0 85 39q31 -15 5 -53q-25 -36 -77 -47q-48 -9 -86.5 34.5t-67.5 140.5q-13 43 -28 111
q-104 -6 -210 -10q-96 -187 -182 -187q-75 0 -101 122q-24 116 20 190q17 26 39 29t30 -12q-21 -65 -18 -167q5 -107 37 -107q40 0 101 130h-9q-48 -2 -65 24q-15 23 -2 45q38 -8 101 -12z" />
    <glyph glyph-name="Aacute" unicode="&#xc1;" horiz-adv-x="656" 
d="M481 1011q23 -22 16 -56q-8 -41 -56 -86q-15 -13 -28 -12q-12 1 -10 12q39 111 47 144q8 20 31 -2zM259 198q78 189 114 361q18 25 38 -13t12 -80q-20 -116 -88 -268q31 0 99 3q59 3 75 2q-17 105 -30 220q-23 185 -32 234q-19 90 -52 90q-31 0 -82 -51q-52 -52 -82 -111
q-36 -69 -27 -112q12 -51 86 -51q9 -14 -7 -35q-18 -23 -56 -23q-81 0 -95 68q-13 60 28 151q40 87 108 150q74 68 143 68q100 0 133 -242q50 -369 69 -452q41 -179 74 -179q16 0 85 39q31 -15 5 -53q-25 -36 -77 -47q-48 -9 -86.5 34.5t-67.5 140.5q-13 43 -28 111
q-104 -6 -210 -10q-96 -187 -182 -187q-75 0 -101 122q-24 116 20 190q17 26 39 29t30 -12q-21 -65 -18 -167q5 -107 37 -107q40 0 101 130h-9q-48 -2 -65 24q-15 23 -2 45q38 -8 101 -12z" />
    <glyph glyph-name="Acircumflex" unicode="&#xc2;" horiz-adv-x="656" 
d="M414 932q-32 -50 -47 -68q-9 -10 -23 -7q-13 3 -12 13q35 80 74 131q6 8 15 8t14 -8q58 -129 58 -131q5 -11 -13 -14q-19 -2 -32 16q-24 38 -34 60zM259 198q78 189 114 361q18 25 38 -13t12 -80q-20 -116 -88 -268q31 0 99 3q59 3 75 2q-17 105 -30 220q-23 185 -32 234
q-19 90 -52 90q-31 0 -82 -51q-52 -52 -82 -111q-36 -69 -27 -112q12 -51 86 -51q9 -14 -7 -35q-18 -23 -56 -23q-81 0 -95 68q-13 60 28 151q40 87 108 150q74 68 143 68q100 0 133 -242q50 -369 69 -452q41 -179 74 -179q16 0 85 39q31 -15 5 -53q-25 -36 -77 -47
q-48 -9 -86.5 34.5t-67.5 140.5q-13 43 -28 111q-104 -6 -210 -10q-96 -187 -182 -187q-75 0 -101 122q-24 116 20 190q17 26 39 29t30 -12q-21 -65 -18 -167q5 -107 37 -107q40 0 101 130h-9q-48 -2 -65 24q-15 23 -2 45q38 -8 101 -12z" />
    <glyph glyph-name="Atilde" unicode="&#xc3;" horiz-adv-x="656" 
d="M259 198q78 189 114 361q18 25 38 -13t12 -80q-20 -116 -88 -268q31 0 99 3q59 3 75 2q-17 105 -30 220q-23 185 -32 234q-19 90 -52 90q-31 0 -82 -51q-52 -52 -82 -111q-36 -69 -27 -112q12 -51 86 -51q9 -14 -7 -35q-18 -23 -56 -23q-81 0 -95 68q-13 60 28 151
q40 87 108 150q74 68 143 68q100 0 133 -242q50 -369 69 -452q41 -179 74 -179q16 0 85 39q31 -15 5 -53q-25 -36 -77 -47q-48 -9 -86.5 34.5t-67.5 140.5q-13 43 -28 111q-104 -6 -210 -10q-96 -187 -182 -187q-75 0 -101 122q-24 116 20 190q17 26 39 29t30 -12
q-21 -65 -18 -167q5 -107 37 -107q40 0 101 130h-9q-48 -2 -65 24q-15 23 -2 45q38 -8 101 -12zM408 883q-33 16 -52 -24q-13 -4 -19 9q-5 12 -1 29q11 47 53 47q3 0 57 -22q31 -12 45 26q16 4 23 -9q6 -13 2 -32q-11 -50 -52 -50l-6 3q-5 2 -20 9z" />
    <glyph glyph-name="AE" unicode="&#xc6;" horiz-adv-x="864" 
d="M861 759q12 -21 -3 -27q-68 12 -258 9l-19 -433q165 5 188 3q33 -1 44 -21q9 -16 -3 -27q-109 -6 -232 -10l-10 -232q56 14 215 6q37 -1 51 -21q13 -19 -8 -32q-25 3 -100 -6q-90 -11 -130 -11q-30 0 -68 33q-38 34 -39 69q-2 44 9 191l-144 -5q-126 -288 -228 -288
q-75 0 -101 122q-24 116 20 190q17 26 39 29t30 -12q-21 -65 -18 -167q5 -107 37 -107q52 0 143 232h-5q-47 -2 -66 27q-15 25 -2 47q29 -7 98 -10q67 182 93 306q18 25 38 -13t12 -80q-10 -76 -65 -215h123q22 264 38 434q-204 -10 -309 -165q-41 -60 -33 -105
q9 -48 70 -48q9 -14 -7 -35q-18 -23 -56 -23q-71 0 -89 61q-18 60 24 139q47 86 140 145q110 71 256 84q9 0 12 1q10 26 33 36q21 8 24 -10l-2 -22q111 5 212 -12q34 -4 46 -27z" />
    <glyph glyph-name="Egrave" unicode="&#xc8;" horiz-adv-x="512" 
d="M323 868q3 -11 -10 -12q-12 -1 -28 12q-48 45 -56 86q-7 34 16 56t31 2q8 -33 47 -144zM195 706q-42 -37 -61 -100q-42 -141 53 -252q47 15 93 15q84 0 87 -45q0 -19 -26 -33q-23 -13 -53 -13q-52 0 -98 17q-49 -25 -76 -75q-25 -46 -22 -94q3 -50 36 -81q37 -34 100 -34
q83 0 140 81q48 69 53 153q37 7 51 -37q13 -43 -8 -100q-56 -152 -242 -152q-96 0 -154 44q-51 39 -59 104q-7 62 24 123q35 65 97 102q-60 48 -81 129q-21 79 1 156q22 82 84 132q67 55 163 55q151 0 189 -128q16 -53 0 -108q-17 -56 -62 -92q-25 -21 -59 -10
q-31 10 -28 26q88 73 68 166q-18 91 -106 91q-60 0 -104 -40z" />
    <glyph glyph-name="Eacute" unicode="&#xc9;" horiz-adv-x="512" 
d="M325 1011q23 -22 16 -56q-8 -41 -56 -86q-15 -13 -28 -12q-12 1 -10 12q39 111 47 144q8 20 31 -2zM195 706q-42 -37 -61 -100q-42 -141 53 -252q47 15 93 15q84 0 87 -45q0 -19 -26 -33q-23 -13 -53 -13q-52 0 -98 17q-49 -25 -76 -75q-25 -46 -22 -94q3 -50 36 -81
q37 -34 100 -34q83 0 140 81q48 69 53 153q37 7 51 -37q13 -43 -8 -100q-56 -152 -242 -152q-96 0 -154 44q-51 39 -59 104q-7 62 24 123q35 65 97 102q-60 48 -81 129q-21 79 1 156q22 82 84 132q67 55 163 55q151 0 189 -128q16 -53 0 -108q-17 -56 -62 -92
q-25 -21 -59 -10q-31 10 -28 26q88 73 68 166q-18 91 -106 91q-60 0 -104 -40z" />
    <glyph glyph-name="Ecircumflex" unicode="&#xca;" horiz-adv-x="512" 
d="M287 932q-32 -50 -47 -68q-9 -10 -23 -7q-13 3 -12 13q32 76 74 131q6 8 15 8t14 -8q58 -129 58 -131q5 -11 -13 -14q-19 -2 -32 16q-19 29 -34 60zM195 706q-42 -37 -61 -100q-42 -141 53 -252q47 15 93 15q84 0 87 -45q0 -19 -26 -33q-23 -13 -53 -13q-52 0 -98 17
q-49 -25 -76 -75q-25 -46 -22 -94q3 -50 36 -81q37 -34 100 -34q83 0 140 81q48 69 53 153q37 7 51 -37q13 -43 -8 -100q-56 -152 -242 -152q-96 0 -154 44q-51 39 -59 104q-7 62 24 123q35 65 97 102q-60 48 -81 129q-21 79 1 156q22 82 84 132q67 55 163 55
q151 0 189 -128q16 -53 0 -108q-17 -56 -62 -92q-25 -21 -59 -10q-31 10 -28 26q88 73 68 166q-18 91 -106 91q-60 0 -104 -40z" />
    <glyph glyph-name="Igrave" unicode="&#xcc;" horiz-adv-x="376" 
d="M65 0q-31 28 -23 69q4 19 11 26.5t17 3.5q12 -23 55 -54t61 -31q69 0 88 331q10 161 -9 270q-23 126 -78 126q-32 0 -62 -62q-30 -61 -36 -135q-7 -84 24 -136q35 -62 115 -62q9 -24 -10 -42q-21 -21 -64 -15q-84 10 -121 92q-33 73 -19 175q15 97 65 169q55 76 129 76
q72 0 116 -137q43 -129 35 -300q-23 -408 -180 -408q-64 0 -114 44zM213 868q3 -10 -9 -12q-13 -1 -29 12q-48 45 -56 86q-8 35 17 56q23 21 30 2q14 -51 47 -144z" />
    <glyph glyph-name="Iacute" unicode="&#xcd;" horiz-adv-x="376" 
d="M236 1011q23 -22 16 -56q-8 -41 -56 -86q-15 -13 -28 -12q-12 1 -10 12q39 111 47 144q8 20 31 -2zM65 0q-31 28 -23 69q4 19 11 26.5t17 3.5q12 -23 55 -54t61 -31q69 0 88 331q10 161 -9 270q-23 126 -78 126q-32 0 -62 -62q-30 -61 -36 -135q-7 -84 24 -136
q35 -62 115 -62q9 -24 -10 -42q-21 -21 -64 -15q-84 10 -121 92q-33 73 -19 175q15 97 65 169q55 76 129 76q72 0 116 -137q43 -129 35 -300q-23 -408 -180 -408q-64 0 -114 44z" />
    <glyph glyph-name="Eth" unicode="&#xd0;" horiz-adv-x="699" 
d="M99 93q-11 25 -11 41q0 24 13 38q14 15 33 14q40 -91 115 -139q3 111 4 222q-28 4 -42 31q-13 24 2 31q9 -1 40 -1q0 236 -9 321q2 8 14 9t29 -8q41 -26 45 -92q1 -7 1 -55q0 -98 -4 -179l118 -6q30 -1 41 -19q10 -16 0 -29q-82 -5 -161 -5q-9 -177 -26 -245
q30 -10 64 -10q107 0 172 105q58 94 58 234q0 163 -78 274q-88 125 -238 115q-94 -6 -153 -68q-51 -56 -51 -127q0 -59 38 -100q40 -43 112 -43q6 -17 -7 -36q-15 -22 -47 -22q-83 0 -129 52q-42 46 -42 122q0 109 79 191q89 93 229 93q176 0 280 -140q91 -124 91 -303
q0 -165 -78 -278q-86 -125 -228 -125q-46 0 -91 13q-14 -26 -28 -26q-20 0 -14 39q-106 40 -141 111z" />
    <glyph glyph-name="Ograve" unicode="&#xd2;" horiz-adv-x="680" 
d="M429 868q3 -10 -9 -12q-13 -1 -29 12q-48 45 -56 86q-8 35 17 56q23 21 30 2q14 -51 47 -144zM196 52q-56 86 -56 216q-80 24 -99 109q-18 78 20 176q37 98 115 167q85 75 188 82q153 11 233 -125q70 -118 66 -302q-5 -169 -78 -288q-81 -131 -214 -131q-113 0 -175 96z
M226 325q34 -3 73 4q13 -20 -1 -40q-13 -22 -47 -27l-28 -3q-1 -106 34 -172q41 -74 122 -74q83 0 142 113q55 105 58 251q4 158 -40 258q-51 116 -158 113q-151 -5 -236 -162q-36 -68 -36 -129q-1 -67 39 -102q24 138 86 215q28 34 64 40q33 6 34 -13q-84 -68 -106 -272z
" />
    <glyph glyph-name="Oacute" unicode="&#xd3;" horiz-adv-x="680" 
d="M438 1011q23 -22 16 -56q-8 -41 -56 -86q-15 -13 -28 -12q-12 1 -10 12q39 111 47 144q8 20 31 -2zM196 52q-56 86 -56 216q-80 24 -99 109q-18 78 20 176q37 98 115 167q85 75 188 82q153 11 233 -125q70 -118 66 -302q-5 -169 -78 -288q-81 -131 -214 -131
q-113 0 -175 96zM226 325q34 -3 73 4q13 -20 -1 -40q-13 -22 -47 -27l-28 -3q-1 -106 34 -172q41 -74 122 -74q83 0 142 113q55 105 58 251q4 158 -40 258q-51 116 -158 113q-151 -5 -236 -162q-36 -68 -36 -129q-1 -67 39 -102q24 138 86 215q28 34 64 40q33 6 34 -13
q-84 -68 -106 -272z" />
    <glyph glyph-name="Ocircumflex" unicode="&#xd4;" horiz-adv-x="680" 
d="M393 932q-32 -50 -47 -68q-9 -10 -23 -7q-13 3 -12 13q35 80 74 131q6 8 15 8t14 -8q58 -129 58 -131q5 -11 -13 -14q-19 -2 -32 16q-24 38 -34 60zM196 52q-56 86 -56 216q-80 24 -99 109q-18 78 20 176q37 98 115 167q85 75 188 82q153 11 233 -125q70 -118 66 -302
q-5 -169 -78 -288q-81 -131 -214 -131q-113 0 -175 96zM226 325q34 -3 73 4q13 -20 -1 -40q-13 -22 -47 -27l-28 -3q-1 -106 34 -172q41 -74 122 -74q83 0 142 113q55 105 58 251q4 158 -40 258q-51 116 -158 113q-151 -5 -236 -162q-36 -68 -36 -129q-1 -67 39 -102
q24 138 86 215q28 34 64 40q33 6 34 -13q-84 -68 -106 -272z" />
    <glyph glyph-name="Otilde" unicode="&#xd5;" horiz-adv-x="680" 
d="M382 883q-33 16 -52 -24q-13 -4 -19 9q-5 12 -1 29q11 47 53 47q3 0 57 -22q31 -12 45 26q16 4 23 -9q6 -13 2 -32q-11 -50 -52 -50q-1 0 -56 26zM196 52q-56 86 -56 216q-80 24 -99 109q-18 78 20 176q37 98 115 167q85 75 188 82q153 11 233 -125q70 -118 66 -302
q-5 -169 -78 -288q-81 -131 -214 -131q-113 0 -175 96zM226 325q34 -3 73 4q13 -20 -1 -40q-13 -22 -47 -27l-28 -3q-1 -106 34 -172q41 -74 122 -74q83 0 142 113q55 105 58 251q4 158 -40 258q-51 116 -158 113q-151 -5 -236 -162q-36 -68 -36 -129q-1 -67 39 -102
q24 138 86 215q28 34 64 40q33 6 34 -13q-84 -68 -106 -272z" />
    <glyph glyph-name="multiply" unicode="&#xd7;" horiz-adv-x="376" 
d="M240 253l39 -40q33 -38 26 -76q-3 -15 -11 -21t-16 2q-53 64 -79 91l-57 -65q-17 -19 -40 -17q-10 1 -15 5.5t-4 12.5q27 42 77 103q-19 17 -51 49q-20 20 -17 47q1 14 7 19.5t16 3.5q29 -24 83 -74q21 24 39 42q34 36 72 28q15 -3 21 -11q5 -10 -2 -17q-57 -51 -88 -82z
" />
    <glyph glyph-name="Oslash" unicode="&#xd8;" horiz-adv-x="657" 
d="M183 38q-73 96 -65 254q-80 21 -100 101q-18 72 20 166q37 92 115 160q84 72 188 83q101 11 176 -63q28 36 65 39q14 2 20 -5q7 -5 2 -15l-44 -72q80 -123 78 -311q-1 -165 -79 -288q-83 -131 -211 -131q-80 0 -134 48q-15 -32 -19 -45q-1 -3 -7 -3q-5 0 -10 5
q-13 14 -2 54q2 8 7 23zM215 395q-33 -157 1 -267q121 304 265 555q-50 68 -123 65q-151 -7 -236 -164q-35 -65 -37 -128q0 -67 40 -101q24 138 86 215q28 34 64 40q33 6 34 -13q-62 -50 -94 -202zM244 70q41 -59 112 -59q84 0 141 114q54 107 57 252q3 133 -36 234
q-165 -303 -274 -541z" />
    <glyph glyph-name="Ugrave" unicode="&#xd9;" horiz-adv-x="724" 
d="M530 868q3 -10 -9 -12q-13 -1 -29 12q-47 45 -56 86q-6 35 17 56t30 2q14 -51 47 -144zM773 -52q28 -16 0 -50q-30 -35 -86 -35q-115 0 -120 294q-75 -207 -201 -207q-59 0 -89 56q-29 56 -23 157l15 187q12 139 14 181q12 211 -37 211q-26 0 -69 -58q-44 -59 -68 -127
q-27 -80 -9 -128q22 -58 105 -58q9 -21 -9 -40q-17 -20 -48 -20q-97 0 -124 77q-24 68 10 168q33 97 98 168q71 77 140 77q52 0 77 -64q27 -70 17 -200l-13 -163q-9 -109 -13 -183q-4 -95 3 -129q9 -42 42 -42q51 0 108 113q50 98 84 238q21 219 51 339q13 51 61 77
q19 11 33 9q15 -1 16 -14q-60 -146 -83 -502q-23 -353 27 -353q26 0 91 21z" />
    <glyph glyph-name="Uacute" unicode="&#xda;" horiz-adv-x="724" 
d="M550 1011q23 -22 16 -56q-8 -41 -56 -86q-15 -13 -28 -12q-12 1 -10 12q39 111 47 144q8 20 31 -2zM773 -52q28 -16 0 -50q-30 -35 -86 -35q-115 0 -120 294q-75 -207 -201 -207q-59 0 -89 56q-29 56 -23 157l15 187q12 139 14 181q12 211 -37 211q-26 0 -69 -58
q-44 -59 -68 -127q-27 -80 -9 -128q22 -58 105 -58q9 -21 -9 -40q-17 -20 -48 -20q-97 0 -124 77q-24 68 10 168q33 97 98 168q71 77 140 77q52 0 77 -64q27 -70 17 -200l-13 -163q-9 -109 -13 -183q-4 -95 3 -129q9 -42 42 -42q51 0 108 113q50 98 84 238q21 219 51 339
q13 51 61 77q19 11 33 9q15 -1 16 -14q-60 -146 -83 -502q-23 -353 27 -353q26 0 91 21z" />
    <glyph glyph-name="Yacute" unicode="&#xdd;" horiz-adv-x="694" 
d="M550 1011q23 -22 16 -56q-8 -41 -56 -86q-15 -13 -28 -12q-12 1 -10 12q39 111 47 144q8 20 31 -2zM500 196q51 107 85 259q18 152 43 255q13 51 61 77q19 11 33 9q15 -1 16 -14q-57 -136 -90 -572q-20 -287 -33 -374q-23 -156 -133 -156q-145 0 -218 145q-23 47 -1 90
q20 41 49 27q34 -100 84 -156q46 -52 94 -52q38 0 53 171q23 252 29 288l-5 -9v10q-79 -195 -201 -195q-59 0 -89 56q-29 56 -23 157q5 63 15 163q12 110 14 156q12 211 -37 211q-26 0 -69 -58q-44 -59 -68 -127q-27 -80 -9 -128q22 -58 105 -58q9 -21 -9 -40
q-17 -20 -48 -20q-97 0 -124 77q-24 68 10 168q33 97 98 168q71 77 140 77q52 0 77 -64q27 -70 17 -200l-13 -138q-9 -93 -13 -159q-4 -94 3 -129q9 -42 42 -42q55 0 115 127z" />
    <glyph glyph-name="Thorn" unicode="&#xde;" horiz-adv-x="650" 
d="M71 4q4 15 12 23q9 7 18 3q54 -76 113 -76q28 0 36 248q6 207 -3 440q-75 -17 -121 -72q-44 -50 -48 -111q-5 -63 31 -103q37 -45 111 -45q8 -17 -6 -36q-15 -22 -47 -22q-84 0 -128 62q-39 56 -28 141q10 84 69 152q65 74 163 95l-6 88q2 9 14 10q13 3 30 -3
q43 -18 45 -74v-14q138 -3 227 -92q81 -83 90 -203q8 -124 -62 -222q-79 -111 -228 -148q-24 -7 -44 -7q-4 -34 -14 -69q-23 -74 -98 -74q-63 0 -103 39q-30 30 -23 70zM497 201q60 81 63 186q2 105 -56 177q-63 79 -176 85q9 -361 -13 -560q1 1 4 1q112 22 178 111z" />
    <glyph glyph-name="germandbls" unicode="&#xdf;" horiz-adv-x="323" 
d="M107 66q-5 29 4 51q10 22 28 21q9 -39 32 -68q24 -28 46 -28t23 25q2 25 -16 51q-82 127 -100 190q-11 38 19 76q56 76 71 136q21 87 -13 87q-62 0 -95 -202q-28 -178 -30 -475q-2 -6 -11 -9q-10 -4 -22 1q-33 12 -31 68q3 239 21 364q43 310 171 310q42 0 64 -31
q22 -29 20 -78q-6 -112 -114 -205q3 -13 121 -200q30 -49 -8 -105q-36 -55 -90 -55q-77 0 -90 76z" />
    <glyph glyph-name="agrave" unicode="&#xe0;" 
d="M220 557q3 -11 -9 -12q-13 -1 -29 12q-47 45 -56 86q-6 35 17 56t30 2q14 -51 47 -144zM169 77q-26 -83 -80 -83q-45 0 -64 69q-17 63 -6 152q12 88 47 151q41 69 95 69q41 0 62 -25q19 -20 17 -52q-2 -31 -18 -47q-19 -19 -47 -8q9 31 4 59q-5 27 -20 27q-36 0 -62 -161
q-24 -161 8 -161q37 0 64 201q21 10 45 -2q26 -14 24 -42l-5 -104q-3 -43 6 -43q7 0 19 18q30 44 50 106q10 7 21 -11q13 -19 4 -43q-49 -147 -117 -147q-36 0 -47 77z" />
    <glyph glyph-name="aacute" unicode="&#xe1;" 
d="M214 699q23 -22 16 -56q-8 -41 -56 -86q-15 -13 -28 -12q-12 1 -10 12q39 111 47 144q8 20 31 -2zM169 77q-26 -83 -80 -83q-45 0 -64 69q-17 63 -6 152q12 88 47 151q41 69 95 69q41 0 62 -25q19 -20 17 -52q-2 -31 -18 -47q-19 -19 -47 -8q9 31 4 59q-5 27 -20 27
q-36 0 -62 -161q-24 -161 8 -161q37 0 64 201q21 10 45 -2q26 -14 24 -42l-5 -104q-3 -43 6 -43q7 0 19 18q30 44 50 106q10 7 21 -11q13 -19 4 -43q-49 -147 -117 -147q-36 0 -47 77z" />
    <glyph glyph-name="acircumflex" unicode="&#xe2;" 
d="M169 620q-32 -50 -47 -68q-9 -10 -23 -7q-13 3 -12 13q35 80 74 131q6 8 16 8q8 0 13 -8q58 -129 58 -131q5 -11 -13 -14q-19 -2 -32 16q-24 38 -34 60zM169 77q-26 -83 -80 -83q-45 0 -64 69q-17 63 -6 152q12 88 47 151q41 69 95 69q41 0 62 -25q19 -20 17 -52
q-2 -31 -18 -47q-19 -19 -47 -8q9 31 4 59q-5 27 -20 27q-36 0 -62 -161q-24 -161 8 -161q37 0 64 201q21 10 45 -2q26 -14 24 -42l-5 -104q-3 -43 6 -43q7 0 19 18q30 44 50 106q10 7 21 -11q13 -19 4 -43q-49 -147 -117 -147q-36 0 -47 77z" />
    <glyph glyph-name="atilde" unicode="&#xe3;" 
d="M145 570q-33 16 -52 -24q-13 -4 -19 9q-5 12 -1 29q11 47 53 47q3 0 57 -22q31 -12 45 26q16 4 23 -9q6 -13 2 -32q-11 -50 -52 -50l-5 2l-21 10zM169 77q-26 -83 -80 -83q-45 0 -64 69q-17 63 -6 152q12 88 47 151q41 69 95 69q41 0 62 -25q19 -20 17 -52
q-2 -31 -18 -47q-19 -19 -47 -8q9 31 4 59q-5 27 -20 27q-36 0 -62 -161q-24 -161 8 -161q37 0 64 201q21 10 45 -2q26 -14 24 -42l-5 -104q-3 -43 6 -43q7 0 19 18q30 44 50 106q10 7 21 -11q13 -19 4 -43q-49 -147 -117 -147q-36 0 -47 77z" />
    <glyph glyph-name="adieresis" unicode="&#xe4;" 
d="M86 575q-3 29 4 65q4 34 37 51q32 17 33 -5l-18 -102q-8 -41 -34 -41q-17 0 -22 32zM187 575q-3 29 4 65q4 34 37 51q32 17 33 -5l-18 -102q-8 -41 -34 -41q-17 0 -22 32zM169 77q-26 -83 -80 -83q-45 0 -64 69q-17 63 -6 152q12 88 47 151q41 69 95 69q41 0 62 -25
q19 -20 17 -52q-2 -31 -18 -47q-19 -19 -47 -8q9 31 4 59q-5 27 -20 27q-36 0 -62 -161q-24 -161 8 -161q37 0 64 201q21 10 45 -2q26 -14 24 -42l-5 -104q-3 -43 6 -43q7 0 19 18q30 44 50 106q10 7 21 -11q13 -19 4 -43q-49 -147 -117 -147q-36 0 -47 77z" />
    <glyph glyph-name="aring" unicode="&#xe5;" 
d="M93 605q-5 59 39 73q9 15 39 15q37 0 57 -23q17 -22 14 -51q-3 -31 -24 -52q-23 -23 -56 -23q-65 0 -69 61zM166 660h-4q-20 -14 -21 -48q-2 -35 23 -35q30 0 31 42q2 41 -29 41zM169 77q-26 -83 -80 -83q-45 0 -64 69q-17 63 -6 152q12 88 47 151q41 69 95 69
q41 0 62 -25q19 -20 17 -52q-2 -31 -18 -47q-19 -19 -47 -8q9 31 4 59q-5 27 -20 27q-36 0 -62 -161q-24 -161 8 -161q37 0 64 201q21 10 45 -2q26 -14 24 -42l-5 -104q-3 -43 6 -43q7 0 19 18q30 44 50 106q10 7 21 -11q13 -19 4 -43q-49 -147 -117 -147q-36 0 -47 77z" />
    <glyph glyph-name="ae" unicode="&#xe6;" horiz-adv-x="378" 
d="M426 190q12 -19 3 -43q-24 -71 -69 -115q-45 -42 -94 -42q-71 0 -96 91q-29 -86 -81 -86q-45 0 -64 69q-17 63 -6 152q12 88 47 151q41 69 95 69q46 0 58 -40q35 48 78 48q45 0 61 -43q16 -37 4 -93q-10 -55 -44 -93q-36 -43 -84 -42q0 -117 55 -117q66 0 115 145
q10 7 22 -11zM258 333q-19 -62 -23 -124q47 29 66 110q8 32 6 55q-1 24 -14 24q-17 0 -35 -65zM162 222l7 47q8 36 16 57q12 64 -17 64q-45 0 -71 -161q-11 -65 -9 -111q2 -50 17 -50q30 0 57 154z" />
    <glyph glyph-name="ccedilla" unicode="&#xe7;" horiz-adv-x="235" 
d="M161 351q5 47 -14 47q-17 0 -36 -66q-17 -62 -22 -135q-7 -141 54 -141q66 0 115 145q10 7 21 -11q12 -19 4 -43q-43 -131 -135 -153l-6 -24q27 0 40.5 -10.5t12.5 -31.5q-1 -39 -45 -74q-23 -19 -47 -14q-23 5 -15 20q40 23 50 47q5 13 -1 19t-25 6q-25 9 -21 28l1 4
q1 3 3 11.5l4 17.5q-47 11 -70 70q-19 54 -15 130q4 94 40 170q39 81 97 81q45 0 65 -35q17 -31 8 -73q-8 -41 -31 -63q-27 -24 -56 -6q19 39 24 84z" />
    <glyph glyph-name="egrave" unicode="&#xe8;" horiz-adv-x="235" 
d="M209 557q2 -11 -10 -12q-13 -1 -28 12q-48 45 -56 86q-7 34 16 56t31 2q8 -33 47 -144zM208 395q14 -37 2 -89q-12 -53 -43 -90q-35 -41 -79 -43q0 -120 55 -120q64 0 115 148q10 7 21 -11q12 -19 4 -43q-25 -72 -70 -115q-43 -42 -93 -42q-57 0 -86 63q-25 53 -20 140
q4 94 40 165q39 77 97 77q41 0 57 -40zM113 332q-19 -59 -23 -124q45 26 65 105q8 32 5 53q-2 23 -13 23q-16 0 -34 -57z" />
    <glyph glyph-name="eacute" unicode="&#xe9;" horiz-adv-x="235" 
d="M195 699q23 -22 16 -56q-8 -41 -56 -86q-16 -13 -28 -12q-13 1 -10 12q39 111 47 144q8 20 31 -2zM208 395q14 -37 2 -89q-12 -53 -43 -90q-35 -41 -79 -43q0 -120 55 -120q64 0 115 148q10 7 21 -11q12 -19 4 -43q-25 -72 -70 -115q-43 -42 -93 -42q-57 0 -86 63
q-25 53 -20 140q4 94 40 165q39 77 97 77q41 0 57 -40zM113 332q-19 -59 -23 -124q45 26 65 105q8 32 5 53q-2 23 -13 23q-16 0 -34 -57z" />
    <glyph glyph-name="ecircumflex" unicode="&#xea;" horiz-adv-x="235" 
d="M158 620q-32 -50 -47 -68q-10 -10 -24 -7q-12 3 -11 13q32 76 74 131q6 8 15 8t14 -8q58 -129 58 -131q5 -11 -14 -14q-18 -1 -31 16q-19 29 -34 60zM208 395q14 -37 2 -89q-12 -53 -43 -90q-35 -41 -79 -43q0 -120 55 -120q64 0 115 148q10 7 21 -11q12 -19 4 -43
q-25 -72 -70 -115q-43 -42 -93 -42q-57 0 -86 63q-25 53 -20 140q4 94 40 165q39 77 97 77q41 0 57 -40zM113 332q-19 -59 -23 -124q45 26 65 105q8 32 5 53q-2 23 -13 23q-16 0 -34 -57z" />
    <glyph glyph-name="edieresis" unicode="&#xeb;" horiz-adv-x="235" 
d="M73 575q-3 26 5 65q4 34 36 51q31 16 34 -5l-18 -102q-8 -41 -34 -41q-18 0 -23 32zM174 575q-3 26 5 65q5 34 36 51q31 16 34 -5l-18 -102q-8 -41 -34 -41q-18 0 -23 32zM208 395q14 -37 2 -89q-12 -53 -43 -90q-35 -41 -79 -43q0 -120 55 -120q64 0 115 148
q10 7 21 -11q12 -19 4 -43q-25 -72 -70 -115q-43 -42 -93 -42q-57 0 -86 63q-25 53 -20 140q4 94 40 165q39 77 97 77q41 0 57 -40zM113 332q-19 -59 -23 -124q45 26 65 105q8 32 5 53q-2 23 -13 23q-16 0 -34 -57z" />
    <glyph glyph-name="igrave" unicode="&#xec;" horiz-adv-x="144" 
d="M148 557q3 -11 -9 -12q-13 -1 -29 12q-47 45 -56 86q-6 35 17 56t30 2q14 -51 47 -144zM20 122q-4 88 14 224q6 42 43 66q16 9 25 8q10 0 9 -12q-20 -167 -23.5 -248.5t9.5 -82.5q7 0 19 18q30 44 50 106q10 7 21 -11q13 -19 4 -43q-50 -147 -121 -147q-45 0 -50 122z
" />
    <glyph glyph-name="iacute" unicode="&#xed;" horiz-adv-x="144" 
d="M130 699q23 -22 16 -56q-8 -41 -56 -86q-15 -13 -28 -12q-12 1 -10 12q39 111 47 144q8 20 31 -2zM20 122q-4 88 14 224q6 42 43 66q16 9 25 8q10 0 9 -12q-20 -167 -23.5 -248.5t9.5 -82.5q7 0 19 18q30 44 50 106q10 7 21 -11q13 -19 4 -43q-50 -147 -121 -147
q-45 0 -50 122z" />
    <glyph glyph-name="icircumflex" unicode="&#xee;" horiz-adv-x="144" 
d="M96 614q-18 -37 -38 -62q-9 -10 -23 -7q-13 3 -12 13q44 102 66 131q6 8 16 8q8 0 13 -8q25 -56 45 -131q5 -11 -13 -14q-19 -2 -32 16q-7 9 -22 54zM20 122q-4 88 14 224q6 42 43 66q16 9 25 8q10 0 9 -12q-20 -167 -23.5 -248.5t9.5 -82.5q7 0 19 18q30 44 50 106
q10 7 21 -11q13 -19 4 -43q-50 -147 -121 -147q-45 0 -50 122z" />
    <glyph glyph-name="idieresis" unicode="&#xef;" horiz-adv-x="144" 
d="M32 575q-3 29 4 65q4 34 35 51t32 -5l-17 -102q-8 -41 -33 -41q-18 0 -21 32zM123 640q5 34 36 51t32 -5l-18 -102q-5 -41 -32 -41q-34 0 -18 97zM20 122q-4 88 14 224q6 42 43 66q16 9 25 8q10 0 9 -12q-20 -167 -23.5 -248.5t9.5 -82.5q7 0 19 18q30 44 50 106
q10 7 21 -11q13 -19 4 -43q-50 -147 -121 -147q-45 0 -50 122z" />
    <glyph glyph-name="eth" unicode="&#xf0;" horiz-adv-x="270" 
d="M234 577l-35 -14q61 -172 45 -362q-18 -211 -132 -211q-51 0 -78 70q-26 63 -21 153q5 91 36 153q36 70 90 70q13 0 25 -6q-12 66 -26 110q-37 -12 -51 -16q-24 -7 -43 6t-7 24l87 26q-21 54 -42 93q-1 7 4.5 10.5t16.5 3.5q24 -2 40 -19q25 -26 42 -68q3 0 4 1
q29 9 41 0q10 -7 4 -24zM172 373q-16 13 -28 13q-48 0 -55 -169q-4 -67 5 -117q11 -53 30 -53q20 0 35 50q15 48 18 121q5 85 -5 155z" />
    <glyph glyph-name="ntilde" unicode="&#xf1;" horiz-adv-x="311" 
d="M153 570q-33 16 -51 -24q-14 -5 -19 9q-6 11 -2 29q11 47 54 47q3 0 57 -22q30 -12 45 26q16 4 22 -9t2 -32q-11 -50 -51 -50zM212 423q29 5 46 -20q19 -28 15 -86q-10 -122 -12 -180t5 -60q7 0 19 18q27 39 50 106q9 8 20 -11q13 -18 5 -43q-50 -147 -117 -147
q-51 0 -54 112q-1 61 15 200q3 26 -6 26t-78 -270q-20 -71 -46 -71q-48 0 -52 112q-7 106 15 254q6 43 43 65q16 9 25 8q11 0 9 -12q-25 -207 -25 -304q59 294 123 303z" />
    <glyph glyph-name="ograve" unicode="&#xf2;" horiz-adv-x="270" 
d="M205 557q2 -11 -10 -12q-13 -1 -28 12q-48 45 -56 86q-7 34 16 56t31 2q8 -33 47 -144zM182 188q-34 15 -32 69q1 51 33 56q21 2 34.5 -14.5t18.5 -50.5q51 23 86 77q13 0 13 -25q1 -25 -12 -41q-41 -50 -86 -68q-6 -78 -36 -135q-35 -66 -86 -66q-55 0 -83 70
q-25 59 -20 153q4 89 37 153q36 70 91 70q74 0 80 -62q2 -25 -10 -38q-14 -15 -35 -6q0 15 -7 33q-9 23 -23 23q-47 0 -56 -166q-3 -68 6 -115q9 -52 30 -52q35 0 57 135z" />
    <glyph glyph-name="oacute" unicode="&#xf3;" horiz-adv-x="270" 
d="M188 699q25 -21 17 -56q-8 -41 -56 -86q-16 -13 -29 -12q-12 1 -9 12q39 111 47 144q7 19 30 -2zM182 188q-34 15 -32 69q1 51 33 56q21 2 34.5 -14.5t18.5 -50.5q51 23 86 77q13 0 13 -25q1 -25 -12 -41q-41 -50 -86 -68q-6 -78 -36 -135q-35 -66 -86 -66q-55 0 -83 70
q-25 59 -20 153q4 89 37 153q36 70 91 70q74 0 80 -62q2 -25 -10 -38q-14 -15 -35 -6q0 15 -7 33q-9 23 -23 23q-47 0 -56 -166q-3 -68 6 -115q9 -52 30 -52q35 0 57 135z" />
    <glyph glyph-name="ocircumflex" unicode="&#xf4;" horiz-adv-x="270" 
d="M144 620q-32 -50 -47 -68q-10 -10 -24 -7q-12 3 -11 13q32 76 74 131q6 8 15 8t14 -8q58 -129 58 -131q5 -11 -14 -14q-18 -1 -31 16q-19 29 -34 60zM182 188q-34 15 -32 69q1 51 33 56q21 2 34.5 -14.5t18.5 -50.5q51 23 86 77q13 0 13 -25q1 -25 -12 -41
q-41 -50 -86 -68q-6 -78 -36 -135q-35 -66 -86 -66q-55 0 -83 70q-25 59 -20 153q4 89 37 153q36 70 91 70q74 0 80 -62q2 -25 -10 -38q-14 -15 -35 -6q0 15 -7 33q-9 23 -23 23q-47 0 -56 -166q-3 -68 6 -115q9 -52 30 -52q35 0 57 135z" />
    <glyph glyph-name="otilde" unicode="&#xf5;" horiz-adv-x="270" 
d="M122 570q-34 16 -52 -24q-13 -4 -19 9q-6 10 -1 29q11 47 53 47q3 0 57 -22q31 -12 45 26q16 4 23 -9q6 -11 1 -32q-11 -50 -51 -50q-1 0 -56 26zM182 188q-34 15 -32 69q1 51 33 56q21 2 34.5 -14.5t18.5 -50.5q51 23 86 77q13 0 13 -25q1 -25 -12 -41q-41 -50 -86 -68
q-6 -78 -36 -135q-35 -66 -86 -66q-55 0 -83 70q-25 59 -20 153q4 89 37 153q36 70 91 70q74 0 80 -62q2 -25 -10 -38q-14 -15 -35 -6q0 15 -7 33q-9 23 -23 23q-47 0 -56 -166q-3 -68 6 -115q9 -52 30 -52q35 0 57 135z" />
    <glyph glyph-name="odieresis" unicode="&#xf6;" horiz-adv-x="270" 
d="M69 575q-3 26 5 65q4 34 36 51q31 16 34 -5l-18 -102q-8 -41 -34 -41q-18 0 -23 32zM170 575q-3 26 5 65q5 34 36 51q31 16 34 -5l-18 -102q-8 -41 -34 -41q-18 0 -23 32zM182 188q-34 15 -32 69q1 51 33 56q21 2 34.5 -14.5t18.5 -50.5q51 23 86 77q13 0 13 -25
q1 -25 -12 -41q-41 -50 -86 -68q-6 -78 -36 -135q-35 -66 -86 -66q-55 0 -83 70q-25 59 -20 153q4 89 37 153q36 70 91 70q74 0 80 -62q2 -25 -10 -38q-14 -15 -35 -6q0 15 -7 33q-9 23 -23 23q-47 0 -56 -166q-3 -68 6 -115q9 -52 30 -52q35 0 57 135z" />
    <glyph glyph-name="divide" unicode="&#xf7;" horiz-adv-x="403" 
d="M179 53q-8 18 -8 37q2 53 46 53q43 0 29 -65q-9 -42 -47 -42q-12 0 -20 17zM204 344q-8 18 -8 37q2 53 46 53q43 0 29 -65q-9 -42 -47 -42q-12 0 -20 17zM119 203q-29 3 -44 32q-15 28 1 35q157 -5 234 -11q28 -1 41 -22q10 -18 0 -31q-177 -10 -232 -3z" />
    <glyph glyph-name="oslash" unicode="&#xf8;" horiz-adv-x="270" 
d="M210 399l7 10q29 42 52 38q10 -2 14 -9q4 -6 2 -12q-22 -33 -60 -106q31 -28 28 -109t-33 -146q-36 -75 -90 -75q-32 0 -54 24l-9 -21q-8 -8 -21 1q-15 11 -8 36l4 14q1 3 2 6.5t2 6t1 3.5q-40 99 -8 235q35 141 116 141q42 0 55 -37zM200 272l-87 -176q11 -33 27 -33
q45 0 62 155q4 30 -2 54zM185 354q-8 32 -25 32q-26 0 -42 -63q-15 -57 -15 -130z" />
    <glyph glyph-name="ugrave" unicode="&#xf9;" 
d="M219 557q2 -11 -10 -12q-13 -1 -28 12q-48 45 -56 86q-7 34 16 56t31 2q8 -33 47 -144zM162 72q-27 -76 -77 -76q-65 0 -71 129q-5 101 20 214q10 53 45 78q32 25 40 5q-34 -159 -37 -263q-2 -90 20 -90q34 0 57 128q3 72 14 149q4 41 43 66q14 10 25 8q11 0 9 -12
q-21 -167 -24.5 -248.5t10.5 -82.5q7 0 19 18q27 39 50 106q9 7 21 -11q12 -19 4 -43q-50 -147 -121 -147q-35 0 -47 72z" />
    <glyph glyph-name="uacute" unicode="&#xfa;" 
d="M216 699q25 -21 17 -56q-8 -41 -56 -86q-16 -13 -29 -12q-12 1 -9 12q39 111 47 144q7 19 30 -2zM162 72q-27 -76 -77 -76q-65 0 -71 129q-5 101 20 214q10 53 45 78q32 25 40 5q-34 -159 -37 -263q-2 -90 20 -90q34 0 57 128q3 72 14 149q4 41 43 66q14 10 25 8
q11 0 9 -12q-21 -167 -24.5 -248.5t10.5 -82.5q7 0 19 18q27 39 50 106q9 7 21 -11q12 -19 4 -43q-50 -147 -121 -147q-35 0 -47 72z" />
    <glyph glyph-name="ucircumflex" unicode="&#xfb;" 
d="M166 620q-32 -50 -47 -68q-10 -10 -24 -7t-11 13q32 76 74 131q6 8 15 8t14 -8q57 -130 58 -131q3 -11 -14 -14q-18 -1 -31 16q-19 29 -34 60zM162 72q-27 -76 -77 -76q-65 0 -71 129q-5 101 20 214q10 53 45 78q32 25 40 5q-34 -159 -37 -263q-2 -90 20 -90q34 0 57 128
q3 72 14 149q4 41 43 66q14 10 25 8q11 0 9 -12q-21 -167 -24.5 -248.5t10.5 -82.5q7 0 19 18q27 39 50 106q9 7 21 -11q12 -19 4 -43q-50 -147 -121 -147q-35 0 -47 72z" />
    <glyph glyph-name="udieresis" unicode="&#xfc;" 
d="M85 575q-3 26 5 65q4 34 36 51q31 16 34 -5l-18 -102q-8 -41 -34 -41q-18 0 -23 32zM186 575q-3 26 5 65q5 34 36 51q31 16 34 -5l-18 -102q-8 -41 -34 -41q-18 0 -23 32zM162 72q-27 -76 -77 -76q-65 0 -71 129q-5 101 20 214q10 53 45 78q32 25 40 5q-34 -159 -37 -263
q-2 -90 20 -90q34 0 57 128q3 72 14 149q4 41 43 66q14 10 25 8q11 0 9 -12q-21 -167 -24.5 -248.5t10.5 -82.5q7 0 19 18q27 39 50 106q9 7 21 -11q12 -19 4 -43q-50 -147 -121 -147q-35 0 -47 72z" />
    <glyph glyph-name="yacute" unicode="&#xfd;" horiz-adv-x="283" 
d="M219 699q23 -22 16 -56q-8 -41 -56 -86q-15 -13 -28 -12q-12 1 -10 12q39 111 47 144q8 20 31 -2zM166 220q4 84 11 126q6 42 43 66q16 9 25 8q11 0 9 -12q-22 -161 -29 -351q65 55 84 144q9 7 20 -10q13 -18 5 -43q-39 -114 -109 -153q-3 -345 -110 -345q-52 0 -94 50
q-41 47 -49 110q-7 66 34 110q50 52 152 53v10q0 55 1 78q-25 -63 -72 -63q-63 0 -71 122q-5 94 20 206q10 52 46 78q31 25 39 5q-34 -159 -37 -256q-1 -82 20 -82q42 0 62 149zM157 -73q-120 -6 -109 -113q5 -39 25 -73q19 -33 37 -34q44 -2 47 220z" />
    <glyph glyph-name="thorn" unicode="&#xfe;" horiz-adv-x="285" 
d="M95 620q33 21 40 5q-12 -74 -29 -313q34 120 96 120q72 0 72 -126q0 -124 -67 -248q71 0 118 143q10 6 20 -13q10 -21 3 -43q-22 -66 -63 -107q-40 -40 -86 -40q-58 0 -58 74q36 50 52 171q17 122 -8 122q-19 0 -45 -72q-30 -78 -50 -213q-17 -272 -19 -381
q-2 -17 -30 -10q-27 7 -29 27q-21 377 46 847q3 36 37 57z" />
    <glyph glyph-name="ydieresis" unicode="&#xff;" horiz-adv-x="283" 
d="M90 575q-4 25 4 65q4 34 37 51q32 17 33 -5l-18 -102q-8 -41 -34 -41q-19 0 -22 32zM191 575q-4 25 4 65q4 34 37 51q32 17 33 -5l-18 -102q-8 -41 -34 -41q-19 0 -22 32zM166 220q4 84 11 126q6 42 43 66q16 9 25 8q11 0 9 -12q-22 -161 -29 -351q65 55 84 144
q9 7 20 -10q13 -18 5 -43q-39 -114 -109 -153q-3 -345 -110 -345q-52 0 -94 50q-41 47 -49 110q-7 66 34 110q50 52 152 53v10q0 55 1 78q-25 -63 -72 -63q-63 0 -71 122q-5 94 20 206q10 52 46 78q31 25 39 5q-34 -159 -37 -256q-1 -82 20 -82q42 0 62 149zM157 -73
q-120 -6 -109 -113q5 -39 25 -73q19 -33 37 -34q44 -2 47 220z" />
    <glyph glyph-name="amacron" unicode="&#x101;" 
d="M189 547q-66 -2 -73 -2q-33 1 -40 31q-6 28 11 36q35 -9 74 -10l63 -3q26 -3 32 -21q6 -16 -5 -30q-9 1 -62 -1zM169 77q-26 -83 -80 -83q-45 0 -64 69q-17 63 -6 152q12 88 47 151q41 69 95 69q41 0 62 -25q19 -20 17 -52q-2 -31 -18 -47q-19 -19 -47 -8q9 31 4 59
q-5 27 -20 27q-36 0 -62 -161q-24 -161 8 -161q37 0 64 201q21 10 45 -2q26 -14 24 -42l-5 -104q-3 -43 6 -43q7 0 19 18q30 44 50 106q10 7 21 -11q13 -19 4 -43q-49 -147 -117 -147q-36 0 -47 77z" />
    <glyph glyph-name="Abreve" unicode="&#x102;" horiz-adv-x="656" 
d="M475 881q-25 -24 -58 -24t-53 23q-18 19 -18 47q0 23 12 35q13 11 20 4q8 -53 41 -53q40 0 56 58q11 6 21 -3q12 -11 9 -34q-5 -31 -30 -53zM259 198q78 189 114 361q18 25 38 -13t12 -80q-20 -116 -88 -268q31 0 99 3q59 3 75 2q-17 105 -30 220q-23 185 -32 234
q-19 90 -52 90q-31 0 -82 -51q-52 -52 -82 -111q-36 -69 -27 -112q12 -51 86 -51q9 -14 -7 -35q-18 -23 -56 -23q-81 0 -95 68q-13 60 28 151q40 87 108 150q74 68 143 68q100 0 133 -242q50 -369 69 -452q41 -179 74 -179q16 0 85 39q31 -15 5 -53q-25 -36 -77 -47
q-48 -9 -86.5 34.5t-67.5 140.5q-13 43 -28 111q-104 -6 -210 -10q-96 -187 -182 -187q-75 0 -101 122q-24 116 20 190q17 26 39 29t30 -12q-21 -65 -18 -167q5 -107 37 -107q40 0 101 130h-9q-48 -2 -65 24q-15 23 -2 45q38 -8 101 -12z" />
    <glyph glyph-name="abreve" unicode="&#x103;" 
d="M223 568q-25 -24 -59 -24q-33 0 -53 23q-18 19 -18 47q0 23 13 35q12 11 19 4q8 -53 41 -53q40 0 56 58q10 6 21 -3q12 -11 9 -34q-5 -32 -29 -53zM169 77q-26 -83 -80 -83q-45 0 -64 69q-17 63 -6 152q12 88 47 151q41 69 95 69q41 0 62 -25q19 -20 17 -52
q-2 -31 -18 -47q-19 -19 -47 -8q9 31 4 59q-5 27 -20 27q-36 0 -62 -161q-24 -161 8 -161q37 0 64 201q21 10 45 -2q26 -14 24 -42l-5 -104q-3 -43 6 -43q7 0 19 18q30 44 50 106q10 7 21 -11q13 -19 4 -43q-49 -147 -117 -147q-36 0 -47 77z" />
    <glyph glyph-name="aogonek" unicode="&#x105;" 
d="M247 -132q-10 -12 -34 -12q-30 0 -46 22q-16 21 -8 57q6 29 42 69q-24 13 -32 73q-26 -83 -80 -83q-45 0 -64 69q-17 63 -6 152q12 88 47 151q41 69 95 69q41 0 62 -25q19 -20 17 -52q-2 -31 -18 -47q-19 -19 -47 -8q9 31 4 59q-5 27 -20 27q-36 0 -62 -161
q-24 -161 8 -161q37 0 64 201q21 10 45 -2q26 -14 24 -42l-5 -104q-3 -43 6 -43q7 0 19 18q30 44 50 106q10 7 21 -11q13 -19 4 -43q-32 -95 -78 -131q-35 -45 -36 -82q-1 -35 31 -49q7 -7 -3 -17z" />
    <glyph glyph-name="cacute" unicode="&#x107;" horiz-adv-x="235" 
d="M195 699q23 -22 16 -56q-8 -41 -56 -86q-16 -13 -28 -12q-13 1 -10 12q39 111 47 144q8 20 31 -2zM161 348q4 43 -14 43q-17 0 -35 -62q-18 -58 -23 -132q-7 -144 54 -144q64 0 115 148q10 7 21 -11q12 -19 4 -43q-25 -72 -70 -115q-43 -42 -93 -42q-57 0 -86 63
q-25 53 -20 140q4 93 40 166q39 78 97 78q43 0 62 -34q17 -29 9 -70q-8 -42 -30 -61q-26 -23 -55 -5q19 39 24 81z" />
    <glyph glyph-name="Ccircumflex" unicode="&#x108;" horiz-adv-x="513" 
d="M319 932q-32 -50 -47 -68q-9 -10 -23 -7q-13 3 -12 13q35 80 74 131q6 8 16 8q8 0 13 -8q58 -129 58 -131q5 -11 -13 -14q-19 -2 -32 16q-24 38 -34 60zM491 207q12 -41 -11 -99q-25 -63 -78 -104q-62 -48 -147 -48q-137 0 -200 132q-55 118 -34 291q21 170 103 291
q90 132 210 132q70 0 113 -45q40 -40 52 -107q12 -65 -7 -125q-20 -66 -63 -100q-28 -20 -59 -13q-31 8 -29 25q89 89 77 201q-4 46 -27 76q-22 30 -55 30q-83 0 -149 -115q-60 -103 -80 -252q-20 -153 16 -252q40 -115 138 -115q75 0 129 87q45 73 48 147q41 8 53 -37z" />
    <glyph glyph-name="ccircumflex" unicode="&#x109;" horiz-adv-x="235" 
d="M158 620q-32 -50 -47 -68q-10 -10 -24 -7q-12 3 -11 13q32 76 74 131q6 8 15 8t14 -8q58 -129 58 -131q5 -11 -14 -14q-18 -1 -31 16q-19 29 -34 60zM161 348q4 43 -14 43q-17 0 -35 -62q-18 -58 -23 -132q-7 -144 54 -144q64 0 115 148q10 7 21 -11q12 -19 4 -43
q-25 -72 -70 -115q-43 -42 -93 -42q-57 0 -86 63q-25 53 -20 140q4 93 40 166q39 78 97 78q43 0 62 -34q17 -29 9 -70q-8 -42 -30 -61q-26 -23 -55 -5q19 39 24 81z" />
    <glyph glyph-name="cdotaccent" unicode="&#x10b;" horiz-adv-x="235" 
d="M123 634q6 37 40 55q34 19 37 -5q-4 -30 -20 -111q-8 -45 -36 -45q-40 0 -21 106zM161 348q4 43 -14 43q-17 0 -35 -62q-18 -58 -23 -132q-7 -144 54 -144q64 0 115 148q10 7 21 -11q12 -19 4 -43q-25 -72 -70 -115q-43 -42 -93 -42q-57 0 -86 63q-25 53 -20 140
q4 93 40 166q39 78 97 78q43 0 62 -34q17 -29 9 -70q-8 -42 -30 -61q-26 -23 -55 -5q19 39 24 81z" />
    <glyph glyph-name="ccaron" unicode="&#x10d;" horiz-adv-x="235" 
d="M166 621q28 48 47 68q9 10 23 7q13 -3 12 -13q-32 -76 -74 -131q-6 -8 -15 -8t-14 8q-58 129 -58 131q-5 11 13 14q19 2 32 -16q21 -35 34 -60zM161 348q4 43 -14 43q-17 0 -35 -62q-18 -58 -23 -132q-7 -144 54 -144q64 0 115 148q10 7 21 -11q12 -19 4 -43
q-25 -72 -70 -115q-43 -42 -93 -42q-57 0 -86 63q-25 53 -20 140q4 93 40 166q39 78 97 78q43 0 62 -34q17 -29 9 -70q-8 -42 -30 -61q-26 -23 -55 -5q19 39 24 81z" />
    <glyph glyph-name="dcaron" unicode="&#x10f;" horiz-adv-x="286" 
d="M344 764q25 -4 25 -36q0 -55 -19 -83q-11 -17 -24 -17q-13 -1 -13 10q12 70 2 115q5 16 29 11zM332 190q12 -19 4 -43q-50 -147 -117 -147q-37 0 -48 75q-24 -81 -79 -81q-45 0 -66 69q-19 62 -10 152t43 151q37 69 93 69q16 0 28 -3q14 171 27 264q6 39 39 61
q32 23 38 1q-29 -225 -44 -538q-8 -143 2 -143q7 0 19 18q30 44 50 106q9 7 21 -11zM168 243l9 141q-12 5 -27 5q-38 0 -56 -161q-20 -161 14 -161t60 176z" />
    <glyph glyph-name="Dcroat" unicode="&#x110;" horiz-adv-x="699" 
d="M99 93q-11 25 -11 41q0 24 13 38q14 15 33 14q40 -91 115 -139q3 111 4 222q-28 4 -42 31q-13 24 2 31q9 -1 40 -1q0 236 -9 321q2 8 14 9t29 -8q41 -26 45 -92q1 -7 1 -55q0 -98 -4 -179l118 -6q30 -1 41 -19q10 -16 0 -29q-82 -5 -161 -5q-9 -177 -26 -245
q30 -10 64 -10q107 0 172 105q58 94 58 234q0 163 -78 274q-88 125 -238 115q-94 -6 -153 -68q-51 -56 -51 -127q0 -59 38 -100q40 -43 112 -43q6 -17 -7 -36q-15 -22 -47 -22q-83 0 -129 52q-42 46 -42 122q0 109 79 191q89 93 229 93q176 0 280 -140q91 -124 91 -303
q0 -165 -78 -278q-86 -125 -228 -125q-46 0 -91 13q-14 -26 -28 -26q-20 0 -14 39q-106 40 -141 111z" />
    <glyph glyph-name="dcroat" unicode="&#x111;" horiz-adv-x="286" 
d="M332 190q12 -19 4 -43q-50 -147 -117 -147q-37 0 -48 75q-24 -81 -79 -81q-45 0 -66 69q-19 62 -10 152t43 151q37 69 93 69q16 0 28 -3q5 69 13 149q-72 0 -83 1q-27 2 -40 21q-13 21 2 27l126 -4l9 70q6 39 39 61q32 23 38 1q-6 -35 -16 -136h5q30 -2 38 -14
q6 -10 -4 -23q-38 -2 -42 -2q-17 -181 -25 -363q-8 -143 2 -143q7 0 19 18q30 44 50 106q9 7 21 -11zM168 243l9 141q-12 5 -27 5q-38 0 -56 -161q-20 -161 14 -161t60 176z" />
    <glyph glyph-name="emacron" unicode="&#x113;" horiz-adv-x="235" 
d="M178 547q-66 -2 -72 -2q-34 1 -40 31q-7 28 11 36q33 -9 74 -10l63 -3q24 -3 32 -21q5 -17 -5 -30q-9 1 -63 -1zM208 395q14 -37 2 -89q-12 -53 -43 -90q-35 -41 -79 -43q0 -120 55 -120q64 0 115 148q10 7 21 -11q12 -19 4 -43q-25 -72 -70 -115q-43 -42 -93 -42
q-57 0 -86 63q-25 53 -20 140q4 94 40 165q39 77 97 77q41 0 57 -40zM113 332q-19 -59 -23 -124q45 26 65 105q8 32 5 53q-2 23 -13 23q-16 0 -34 -57z" />
    <glyph glyph-name="ebreve" unicode="&#x115;" horiz-adv-x="235" 
d="M205 568q-26 -24 -58 -24q-33 0 -53 23q-18 19 -18 47q0 23 12 35q11 11 20 4q8 -53 41 -53q40 0 56 58q11 6 21 -3q12 -11 9 -34q-5 -31 -30 -53zM208 395q14 -37 2 -89q-12 -53 -43 -90q-35 -41 -79 -43q0 -120 55 -120q64 0 115 148q10 7 21 -11q12 -19 4 -43
q-25 -72 -70 -115q-43 -42 -93 -42q-57 0 -86 63q-25 53 -20 140q4 94 40 165q39 77 97 77q41 0 57 -40zM113 332q-19 -59 -23 -124q45 26 65 105q8 32 5 53q-2 23 -13 23q-16 0 -34 -57z" />
    <glyph glyph-name="edotaccent" unicode="&#x117;" horiz-adv-x="235" 
d="M123 634q6 37 40 55q34 19 37 -5q-4 -30 -20 -111q-8 -45 -36 -45q-40 0 -21 106zM208 395q14 -37 2 -89q-12 -53 -43 -90q-35 -41 -79 -43q0 -120 55 -120q64 0 115 148q10 7 21 -11q12 -19 4 -43q-25 -72 -70 -115q-43 -42 -93 -42q-57 0 -86 63q-25 53 -20 140
q4 94 40 165q39 77 97 77q41 0 57 -40zM113 332q-19 -59 -23 -124q45 26 65 105q8 32 5 53q-2 23 -13 23q-16 0 -34 -57z" />
    <glyph glyph-name="eogonek" unicode="&#x119;" horiz-adv-x="235" 
d="M169 -131q-10 -12 -34 -12q-31 0 -46 22q-16 21 -8 57q4 25 30 55q-54 5 -79 66q-22 55 -18 136q4 94 40 170q39 81 97 81q44 0 60 -43q16 -36 5 -93q-12 -55 -44 -93q-36 -43 -84 -42q0 -117 55 -117q66 0 115 145q10 7 21 -11q12 -19 4 -43q-41 -114 -118 -147
q-25 -40 -24 -71t31 -43q6 -7 -3 -17zM113 337q-19 -62 -23 -129q46 28 65 110q8 35 5 56q-2 24 -13 24q-16 0 -34 -61z" />
    <glyph glyph-name="ecaron" unicode="&#x11b;" horiz-adv-x="235" 
d="M166 621q28 48 47 68q9 10 23 7q13 -3 12 -13q-32 -76 -74 -131q-6 -8 -15 -8t-14 8q-58 129 -58 131q-5 11 13 14q19 2 32 -16q21 -35 34 -60zM208 395q14 -37 2 -89q-12 -53 -43 -90q-35 -41 -79 -43q0 -120 55 -120q64 0 115 148q10 7 21 -11q12 -19 4 -43
q-25 -72 -70 -115q-43 -42 -93 -42q-57 0 -86 63q-25 53 -20 140q4 94 40 165q39 77 97 77q41 0 57 -40zM113 332q-19 -59 -23 -124q45 26 65 105q8 32 5 53q-2 23 -13 23q-16 0 -34 -57z" />
    <glyph glyph-name="gcircumflex" unicode="&#x11d;" horiz-adv-x="281" 
d="M150 649l24 -10l-19 -32q-21 -34 -39 -55q-10 -10 -24 -7t-11 13q32 76 74 131q6 8 15 8t14 -8q57 -130 58 -131q5 -11 -14 -14q-18 -1 -31 16q-32 50 -47 89zM240 -6q-10 -357 -112 -357q-50 0 -94 53q-42 51 -48 117q-7 72 33 118q47 55 150 57v94q-24 -76 -80 -76
q-45 0 -63 66q-18 62 -6 147q12 87 47 146q39 66 94 66q39 0 62 -23q19 -20 17 -49q-1 -28 -19 -44q-19 -16 -46 -6q8 32 3 53q-5 20 -19 20q-38 0 -62 -151q-26 -152 8 -152q37 0 64 195q21 9 43 -1q24 -11 26 -38l3 -159q54 75 67 131q9 7 18 -10q10 -17 4 -43
q-28 -104 -90 -154zM168 -64q-118 -8 -107 -125q4 -42 24 -80q19 -35 38 -37q19 -1 30 59.5t15 182.5z" />
    <glyph glyph-name="gbreve" unicode="&#x11f;" horiz-adv-x="281" 
d="M216 568q-25 -24 -58 -24t-53 23q-18 19 -18 47q0 23 12 35q11 11 20 4q6 -53 41 -53q40 0 56 58q10 6 20 -3q13 -10 10 -34q-5 -31 -30 -53zM240 -6q-10 -357 -112 -357q-50 0 -94 53q-42 51 -48 117q-7 72 33 118q47 55 150 57v94q-24 -76 -80 -76q-45 0 -63 66
q-18 62 -6 147q12 87 47 146q39 66 94 66q39 0 62 -23q19 -20 17 -49q-1 -28 -19 -44q-19 -16 -46 -6q8 32 3 53q-5 20 -19 20q-38 0 -62 -151q-26 -152 8 -152q37 0 64 195q21 9 43 -1q24 -11 26 -38l3 -159q54 75 67 131q9 7 18 -10q10 -17 4 -43q-28 -104 -90 -154z
M168 -64q-118 -8 -107 -125q4 -42 24 -80q19 -35 38 -37q19 -1 30 59.5t15 182.5z" />
    <glyph glyph-name="gdotaccent" unicode="&#x121;" horiz-adv-x="281" 
d="M129 634q6 37 40 55q34 19 37 -5q-4 -30 -20 -111q-8 -45 -36 -45q-40 0 -21 106zM240 -6q-10 -357 -112 -357q-50 0 -94 53q-42 51 -48 117q-7 72 33 118q47 55 150 57v94q-24 -76 -80 -76q-45 0 -63 66q-18 62 -6 147q12 87 47 146q39 66 94 66q39 0 62 -23
q19 -20 17 -49q-1 -28 -19 -44q-19 -16 -46 -6q8 32 3 53q-5 20 -19 20q-38 0 -62 -151q-26 -152 8 -152q37 0 64 195q21 9 43 -1q24 -11 26 -38l3 -159q54 75 67 131q9 7 18 -10q10 -17 4 -43q-28 -104 -90 -154zM168 -64q-118 -8 -107 -125q4 -42 24 -80q19 -35 38 -37
q19 -1 30 59.5t15 182.5z" />
    <glyph glyph-name="uni0123" unicode="&#x123;" horiz-adv-x="281" 
d="M161 545q-25 4 -25 36q0 55 19 83q11 17 24 17q13 1 13 -10q-12 -70 -2 -115q-5 -16 -29 -11zM240 -6q-10 -357 -112 -357q-50 0 -94 53q-42 51 -48 117q-7 72 33 118q47 55 150 57v94q-24 -76 -80 -76q-45 0 -63 66q-18 62 -6 147q12 87 47 146q39 66 94 66q39 0 62 -23
q19 -20 17 -49q-1 -28 -19 -44q-19 -16 -46 -6q8 32 3 53q-5 20 -19 20q-38 0 -62 -151q-26 -152 8 -152q37 0 64 195q21 9 43 -1q24 -11 26 -38l3 -159q54 75 67 131q9 7 18 -10q10 -17 4 -43q-28 -104 -90 -154zM168 -64q-118 -8 -107 -125q4 -42 24 -80q19 -35 38 -37
q19 -1 30 59.5t15 182.5z" />
    <glyph glyph-name="hcircumflex" unicode="&#x125;" horiz-adv-x="310" 
d="M210 614q-18 -37 -38 -62q-9 -10 -24 -7q-12 3 -11 13q42 102 66 131q6 8 15 8t14 -8q25 -56 45 -131q5 -11 -14 -14q-18 -2 -31 16q-7 9 -22 54zM352 190q12 -19 4 -43q-50 -147 -117 -147q-51 0 -55 109q-2 66 14 196q3 26 -6 26q-8 0 -76 -263q-20 -71 -46 -71
q-47 0 -51 112q-5 68 3 188q16 273 36 402q6 38 38 61q31 22 39 1q-35 -278 -49 -629q58 282 122 291q29 5 46 -20q19 -28 15 -86q-10 -122 -12 -180t5 -60q7 0 19 18q30 44 50 106q9 7 21 -11z" />
    <glyph glyph-name="Hbar" unicode="&#x126;" horiz-adv-x="694" 
d="M756 -56q28 -16 0 -50q-30 -35 -86 -35q-122 0 -120 323q-47 -30 -202 5q-12 -86 -13 -92q-25 -139 -119 -139q-81 0 -149 104q-67 104 -26 169q42 68 233 36l5 55q-19 10 -27 26q-8 15 4 20l27 -1q32 377 -9 377q-28 0 -71 -58q-43 -56 -70 -127q-28 -78 -11 -128
q19 -58 104 -58q9 -15 -7 -36q-18 -25 -52 -25q-90 0 -114 77q-21 68 13 169q33 97 95 168q68 77 134 77q102 0 70 -443q72 -7 192 -22q20 241 54 374q13 51 60 77q19 11 33 9q16 -2 17 -14q-57 -136 -81 -462q34 -19 6 -32l-9 -1q-22 -364 28 -364q27 0 91 21zM256 91
l12 116q-149 33 -166 -23q-13 -41 35 -109q48 -65 88 -65q23 0 31 81zM551 235l3 53q-113 3 -193 13q-1 -12 -5 -50q132 -25 195 -16z" />
    <glyph glyph-name="hbar" unicode="&#x127;" horiz-adv-x="310" 
d="M355 190q13 -19 4 -43q-49 -147 -117 -147q-51 0 -55 109q-2 66 14 196q5 26 -6 26q-8 0 -76 -263q-18 -71 -46 -71q-47 0 -51 112q-5 68 3 188q13 201 22 286q-21 4 -32 24q-9 17 4 23q7 -1 33 -1l9 70q6 39 39 61q32 23 38 1l-16 -134l98 -5q30 -2 38 -14q7 -9 -4 -23
q-53 -4 -136 -4q-18 -182 -29 -449q60 282 122 291q29 4 46 -20q19 -28 15 -86q-6 -79 -9 -133t-2.5 -80.5t4.5 -26.5q7 0 19 18q30 44 50 106q10 7 21 -11z" />
    <glyph glyph-name="Itilde" unicode="&#x128;" horiz-adv-x="376" 
d="M65 0q-31 28 -23 69q4 19 11 26.5t17 3.5q12 -23 55 -54t61 -31q69 0 88 331q10 161 -9 270q-23 126 -78 126q-32 0 -62 -62q-30 -61 -36 -135q-7 -84 24 -136q35 -62 115 -62q9 -24 -10 -42q-21 -21 -64 -15q-84 10 -121 92q-33 73 -19 175q15 97 65 169q55 76 129 76
q72 0 116 -137q43 -129 35 -300q-23 -408 -180 -408q-64 0 -114 44zM173 883q-33 16 -52 -24q-13 -4 -19 9q-5 12 -1 29q11 47 53 47q3 0 57 -22q31 -12 45 26q16 4 23 -9q6 -13 2 -32q-11 -50 -52 -50q-1 0 -56 26z" />
    <glyph glyph-name="itilde" unicode="&#x129;" horiz-adv-x="144" 
d="M75 570q-31 16 -50 -24q-12 -5 -17 9q-5 12 -1 29q11 47 51 47l53 -22q29 -12 43 26q15 5 21 -9q6 -11 1 -32q-11 -50 -49 -50zM19 122q-4 88 14 224q6 42 43 66q16 9 25 8q11 0 9 -12q-21 -167 -24.5 -248.5t10.5 -82.5q7 0 19 18q30 44 50 106q9 7 21 -11q12 -19 4 -43
q-50 -147 -121 -147q-45 0 -50 122z" />
    <glyph glyph-name="imacron" unicode="&#x12b;" horiz-adv-x="144" 
d="M118 547q-46 -2 -58 -2q-34 1 -41 31q-6 28 12 36q1 -1 110 -13q25 -3 31 -21q6 -17 -4 -30q-11 1 -50 -1zM21 122q-4 91 15 224q4 41 43 66q14 9 24 8q11 0 10 -12q-21 -167 -24.5 -248.5t10.5 -82.5q7 0 19 18q27 39 50 106q9 8 20 -11q13 -18 5 -43
q-49 -147 -121 -147q-46 0 -51 122z" />
    <glyph glyph-name="iogonek" unicode="&#x12f;" horiz-adv-x="144" 
d="M128 -132q-11 -12 -34 -12q-31 0 -46 22q-16 21 -8 57q6 31 40 67q-67 28 -24 344q6 42 43 66q16 9 25 8q10 0 9 -12q-21 -167 -24.5 -248.5t10.5 -82.5q7 0 19 18q30 44 50 106q9 7 21 -11q12 -19 4 -43q-32 -93 -78 -130q-35 -47 -36 -82q-1 -36 32 -50q6 -7 -3 -17z
M84 634q6 37 40 55q34 19 37 -5q-4 -30 -20 -111q-7 -45 -36 -45q-40 0 -21 106z" />
    <glyph glyph-name="dotlessi" unicode="&#x131;" horiz-adv-x="144" 
d="M20 122q-4 88 14 224q6 42 43 66q16 9 25 8q10 0 9 -12q-20 -167 -23.5 -248.5t9.5 -82.5q7 0 19 18q30 44 50 106q10 7 21 -11q13 -19 4 -43q-50 -147 -121 -147q-45 0 -50 122z" />
    <glyph glyph-name="IJ" unicode="&#x132;" horiz-adv-x="824" 
d="M65 0q-31 28 -23 69q4 19 11 26.5t17 3.5q12 -23 55 -54t61 -31q69 0 88 331q10 161 -9 270q-23 126 -78 126q-32 0 -62 -62q-30 -61 -36 -135q-7 -84 24 -136q35 -62 115 -62q9 -24 -10 -42q-21 -21 -64 -15q-84 10 -121 92q-33 73 -19 175q15 97 65 169q55 76 129 76
q72 0 116 -137q43 -129 35 -300q-23 -408 -180 -408q-64 0 -114 44zM650 244q-21 -22 -64 -16q-95 13 -133 106q-33 82 -12 196q19 108 77 187q62 84 136 84q86 0 127 -201q38 -186 15 -413q-14 -162 -63 -258q-53 -101 -129 -101q-69 0 -135 72q-72 78 -82 182q-5 47 18 74
q20 25 50 14q29 -149 74 -224q39 -65 78 -65q87 0 107 317q13 205 -6 365q-22 178 -78 178q-37 0 -75 -71q-36 -69 -45 -155q-10 -95 23 -156q38 -71 127 -71q9 -25 -10 -44z" />
    <glyph glyph-name="ij" unicode="&#x133;" horiz-adv-x="283" 
d="M225 57q65 55 84 144q9 7 20 -10q13 -18 5 -43q-39 -114 -109 -153q-3 -345 -110 -345q-52 0 -94 50q-41 47 -49 110q-7 66 34 110q50 52 152 53v10q0 62 1 87q-40 -70 -86 -70q-45 0 -51 122q-3 91 15 224q6 42 43 66q16 9 25 8q11 0 9 -12q-21 -167 -24.5 -248.5
t10.5 -82.5q7 0 19 18q25 41 45 93q7 114 13 158q6 42 43 66q16 9 25 8q11 0 9 -12q-22 -161 -29 -351zM157 -73q-120 -6 -109 -113q5 -39 25 -73q19 -33 37 -34q44 -2 47 220zM199 562q-4 27 5 71q7 37 42 55q34 19 36 -5q-2 -19 -22 -111q-8 -45 -37 -45q-21 0 -24 35z
M65 634q6 37 40 55q34 19 37 -5q-4 -30 -20 -111q-8 -45 -36 -45q-40 0 -21 106z" />
    <glyph glyph-name="jcircumflex" unicode="&#x135;" horiz-adv-x="139" 
d="M81 57q65 55 84 144q9 7 20 -10q13 -18 5 -43q-39 -114 -109 -153q-3 -345 -110 -345q-52 0 -94 50q-41 47 -49 110q-7 66 34 110q50 52 152 53v10q0 253 19 363q6 42 43 66q16 9 25 8q11 0 9 -12q-22 -161 -29 -351zM13 -73q-120 -6 -109 -113q5 -39 25 -73
q19 -33 37 -34q44 -2 47 220zM88 614q-18 -37 -38 -62q-9 -10 -23 -7q-13 3 -12 13q44 102 66 131q6 8 15 8t14 -8q25 -56 45 -131q5 -11 -13 -14q-19 -2 -32 16q-7 9 -22 54z" />
    <glyph glyph-name="uni0137" unicode="&#x137;" horiz-adv-x="281" 
d="M132 -50q25 -4 25 -36q0 -55 -19 -83q-11 -17 -24 -17q-13 -1 -13 10q12 70 2 115q5 16 29 11zM319 190q12 -19 4 -43q-49 -147 -117 -147q-32 0 -52 32q-14 22 -36 90q-27 -9 -42 -8q-3 -63 -3 -108q0 -11 -18 -11q-37 0 -43 43l1 93q7 368 40 553q3 28 25 49
q20 18 38 18q9 0 11 -5q-18 -112 -38 -409q34 97 91 97q76 0 64 -107q-12 -103 -81 -172q34 -82 53 -82q17 0 32 22q30 44 50 106q9 7 21 -11zM120 188q54 68 54 175q0 25 -9 25q-34 0 -79 -201q13 3 34 1z" />
    <glyph glyph-name="kgreenlandic" unicode="&#x138;" horiz-adv-x="281" 
d="M319 190q12 -19 4 -43q-49 -147 -117 -147q-32 0 -52 32q-14 22 -36 90q-27 -9 -42 -8q-3 -63 -3 -108q0 -11 -18 -11q-37 0 -43 43l1 93q1 87 10 208q8 96 11 157q3 28 25 49q20 18 38 18q9 0 11 -5q-1 -25 -7 -82q-6 -51 -12 -139q34 97 91 97q76 0 64 -107
q-12 -103 -81 -172q34 -82 53 -82q17 0 32 22q30 44 50 106q9 7 21 -11zM120 188q54 68 54 175q0 25 -9 25q-34 0 -79 -201q13 3 34 1z" />
    <glyph glyph-name="Lacute" unicode="&#x139;" horiz-adv-x="588" 
d="M501 1011q25 -21 17 -56q-8 -41 -56 -86q-16 -13 -29 -12q-12 1 -9 12q33 93 47 144q7 19 30 -2zM260 211l-37 11q-41 14 -55 41q-14 26 2 36q55 -25 94 -34l7 104q16 202 63 316q47 116 114 116q61 0 102 -95q41 -94 37 -208q-3 -128 -60 -207q-66 -92 -187 -91
q-11 -74 -32 -123q277 -174 406 -142q16 -19 -8 -50q-28 -34 -82 -34q-125 0 -345 170q-47 -65 -110 -65q-52 0 -96 38q-38 33 -56 83q-17 50 -5 83q14 38 58 38q46 0 180 -84q6 45 10 97zM356 376l-9 -117q84 9 126 87q35 64 37 166q2 88 -21 162q-23 72 -48 72
q-63 0 -85 -370zM235 56q-110 87 -142 87q-18 0 -16 -20q1 -19 15 -45q35 -65 77 -65q47 0 66 43z" />
    <glyph glyph-name="lacute" unicode="&#x13a;" horiz-adv-x="213" 
d="M232 954q23 -22 16 -56q-8 -41 -56 -86q-15 -13 -28 -12q-12 1 -10 12q39 111 47 144q8 20 31 -2zM221 675q13 -70 1 -178q-14 -108 -43 -183q-34 -84 -76 -88q-5 -173 39 -173q61 0 110 148q9 7 20 -10q10 -19 3 -44q-25 -76 -69 -118q-40 -38 -83 -38q-108 0 -87 308
q12 168 43 294q39 156 87 160q41 2 55 -78zM105 278l-1 -11q39 54 61 243q22 187 0 187q-15 0 -37 -175q-20 -160 -23 -244z" />
    <glyph glyph-name="uni013C" unicode="&#x13c;" horiz-adv-x="213" 
d="M133 -50q25 -4 25 -36q0 -55 -19 -83q-9 -17 -24 -17q-13 -1 -13 10q12 70 2 115q5 16 29 11zM221 675q13 -70 1 -178q-14 -108 -43 -183q-34 -84 -76 -88q-5 -173 39 -173q61 0 110 148q9 7 20 -10q10 -19 3 -44q-25 -76 -69 -118q-40 -38 -83 -38q-108 0 -87 308
q12 168 43 294q39 156 87 160q41 2 55 -78zM105 278l-1 -11q39 54 61 243q22 187 0 187q-15 0 -37 -175q-20 -160 -23 -244z" />
    <glyph glyph-name="lcaron" unicode="&#x13e;" horiz-adv-x="213" 
d="M290 764q25 -4 25 -36q0 -55 -19 -83q-9 -17 -24 -17q-13 -1 -13 10q12 70 2 115q5 16 29 11zM221 675q13 -70 1 -178q-14 -108 -43 -183q-34 -84 -76 -88q-5 -173 39 -173q61 0 110 148q9 7 20 -10q10 -19 3 -44q-25 -76 -69 -118q-40 -38 -83 -38q-108 0 -87 308
q12 168 43 294q39 156 87 160q41 2 55 -78zM105 278l-1 -11q39 54 61 243q22 187 0 187q-15 0 -37 -175q-20 -160 -23 -244z" />
    <glyph glyph-name="Ldot" unicode="&#x13f;" horiz-adv-x="613" 
d="M469 150q6 37 40 55q34 19 37 -5q-4 -30 -20 -111q-8 -45 -36 -45q-40 0 -21 106zM260 211l-37 11q-41 14 -55 41q-14 26 2 36q55 -25 94 -34l7 104q16 202 63 316q47 116 114 116q61 0 102 -95q41 -94 37 -208q-3 -128 -60 -207q-66 -92 -187 -91q-11 -74 -32 -123
q277 -174 406 -142q16 -19 -8 -50q-28 -34 -82 -34q-125 0 -345 170q-47 -65 -110 -65q-52 0 -96 38q-38 33 -56 83q-17 50 -5 83q14 38 58 38q46 0 180 -84q6 45 10 97zM356 376l-9 -117q84 9 126 87q35 64 37 166q2 88 -21 162q-23 72 -48 72q-63 0 -85 -370zM235 56
q-110 87 -142 87q-18 0 -16 -20q1 -19 15 -45q35 -65 77 -65q47 0 66 43z" />
    <glyph glyph-name="ldot" unicode="&#x140;" horiz-adv-x="306" 
d="M226 286q8 38 41 55q33 19 36 -5q-4 -30 -20 -111q-7 -45 -36 -45q-40 0 -21 106zM91 226l3 31q42 25 69 234q9 68 12.5 114t1 69t-11.5 23q-15 0 -37 -175q-20 -160 -23 -244q-4 -104 1 -156q8 -65 35 -65q30 0 76 79q10 7 21 -11q13 -20 2 -43q-40 -91 -117 -91
q-108 0 -87 308q12 168 43 294q39 156 87 160q21 2 35 -18.5t21 -63.5q13 -75 -2 -187q-13 -109 -47 -184q-37 -81 -82 -74z" />
    <glyph glyph-name="Lslash" unicode="&#x141;" horiz-adv-x="588" 
d="M260 211l-37 11q-41 14 -55 41q-14 26 2 36q55 -25 94 -34l7 107l-11 -4q-29 -9 -53 9q-23 16 -12 29l83 35q45 360 170 360q61 0 102 -95q41 -94 37 -208q-3 -128 -60 -207q-66 -92 -187 -91q-11 -74 -32 -123q277 -174 406 -142q16 -19 -8 -50q-28 -34 -82 -34
q-125 0 -345 170q-47 -65 -110 -65q-52 0 -96 38q-38 33 -56 83q-17 50 -5 83q14 38 58 38q46 0 180 -84q6 45 10 97zM358 412l-11 -153q84 9 126 87q35 64 37 166q2 88 -21 162q-23 72 -48 72q-51 0 -77 -269l47 18q27 10 46 -1q15 -9 12 -25q-65 -35 -111 -57zM235 56
q-110 87 -142 87q-18 0 -16 -20q1 -19 15 -45q35 -65 77 -65q47 0 66 43z" />
    <glyph glyph-name="lslash" unicode="&#x142;" horiz-adv-x="213" 
d="M268 640l-46 -24q4 -124 -30 -249q-39 -135 -94 -141q-4 -169 38 -169q64 0 111 144q9 7 20 -10q10 -19 3 -44q-25 -76 -69 -118q-40 -38 -83 -38q-108 0 -87 308q9 132 33 248q-19 -1 -34 10q-13 12 -4 22l50 21q37 148 85 153q45 3 57 -95q2 0 3 1q28 10 41 3
q10 -6 6 -22zM168 591l-39 -18q-25 -170 -29 -295l-1 -11q53 73 69 324zM138 626l32 12q0 59 -10 59t-22 -71z" />
    <glyph glyph-name="nacute" unicode="&#x144;" horiz-adv-x="311" 
d="M218 699q25 -21 17 -56q-9 -41 -56 -86q-16 -13 -29 -12q-12 1 -9 12q33 93 47 144q7 19 30 -2zM212 423q29 5 46 -20q19 -28 15 -86q-10 -122 -12 -180t5 -60q7 0 19 18q27 39 50 106q9 8 20 -11q13 -18 5 -43q-50 -147 -117 -147q-51 0 -54 112q-1 61 15 200
q3 26 -6 26t-78 -270q-20 -71 -46 -71q-48 0 -52 112q-7 106 15 254q6 43 43 65q16 9 25 8q11 0 9 -12q-25 -207 -25 -304q59 294 123 303z" />
    <glyph glyph-name="uni0146" unicode="&#x146;" horiz-adv-x="311" 
d="M160 -50q25 -4 25 -36q0 -55 -19 -83q-11 -17 -24 -17q-13 -1 -13 10q11 70 2 115q5 15 29 11zM212 423q29 5 46 -20q19 -28 15 -86q-10 -122 -12 -180t5 -60q7 0 19 18q27 39 50 106q9 8 20 -11q13 -18 5 -43q-50 -147 -117 -147q-51 0 -54 112q-1 61 15 200q3 26 -6 26
t-78 -270q-20 -71 -46 -71q-48 0 -52 112q-7 106 15 254q6 43 43 65q16 9 25 8q11 0 9 -12q-25 -207 -25 -304q59 294 123 303z" />
    <glyph glyph-name="ncaron" unicode="&#x148;" horiz-adv-x="311" 
d="M184 621q28 48 47 68q9 10 23 7q13 -3 12 -13q-35 -80 -74 -131q-6 -8 -16 -8q-8 0 -13 8q-58 129 -58 131q-5 11 13 14q19 2 32 -16q21 -35 34 -60zM212 423q29 5 46 -20q19 -28 15 -86q-10 -122 -12 -180t5 -60q7 0 19 18q27 39 50 106q9 8 20 -11q13 -18 5 -43
q-50 -147 -117 -147q-51 0 -54 112q-1 61 15 200q3 26 -6 26t-78 -270q-20 -71 -46 -71q-48 0 -52 112q-7 106 15 254q6 43 43 65q16 9 25 8q11 0 9 -12q-25 -207 -25 -304q59 294 123 303z" />
    <glyph glyph-name="napostrophe" unicode="&#x149;" horiz-adv-x="311" 
d="M53 700q25 -4 25 -36q0 -55 -19 -83q-11 -17 -24 -17q-13 -1 -13 10q11 70 2 115q5 15 29 11zM212 423q29 5 46 -20q19 -28 15 -86q-10 -122 -12 -180t5 -60q7 0 19 18q27 39 50 106q9 8 20 -11q13 -18 5 -43q-50 -147 -117 -147q-51 0 -54 112q-1 61 15 200q3 26 -6 26
t-78 -270q-20 -71 -46 -71q-48 0 -52 112q-7 106 15 254q6 43 43 65q16 9 25 8q11 0 9 -12q-25 -207 -25 -304q59 294 123 303z" />
    <glyph glyph-name="omacron" unicode="&#x14d;" horiz-adv-x="270" 
d="M164 547q-66 -2 -72 -2q-34 1 -41 31q-6 28 12 36q33 -9 74 -10l63 -3q24 -3 32 -21q5 -17 -5 -30q-9 1 -63 -1zM182 188q-34 15 -32 69q1 51 33 56q21 2 34.5 -14.5t18.5 -50.5q51 23 86 77q13 0 13 -25q1 -25 -12 -41q-41 -50 -86 -68q-6 -78 -36 -135q-35 -66 -86 -66
q-55 0 -83 70q-25 59 -20 153q4 89 37 153q36 70 91 70q74 0 80 -62q2 -25 -10 -38q-14 -15 -35 -6q0 15 -7 33q-9 23 -23 23q-47 0 -56 -166q-3 -68 6 -115q9 -52 30 -52q35 0 57 135z" />
    <glyph glyph-name="obreve" unicode="&#x14f;" horiz-adv-x="270" 
d="M198 568q-26 -24 -58 -24q-33 0 -53 23q-18 19 -18 47q0 23 12 35q11 11 20 4q6 -53 41 -53q40 0 56 58q10 6 20 -3q13 -10 10 -34q-5 -31 -30 -53zM182 188q-34 15 -32 69q1 51 33 56q21 2 34.5 -14.5t18.5 -50.5q51 23 86 77q13 0 13 -25q1 -25 -12 -41
q-41 -50 -86 -68q-6 -78 -36 -135q-35 -66 -86 -66q-55 0 -83 70q-25 59 -20 153q4 89 37 153q36 70 91 70q74 0 80 -62q2 -25 -10 -38q-14 -15 -35 -6q0 15 -7 33q-9 23 -23 23q-47 0 -56 -166q-3 -68 6 -115q9 -52 30 -52q35 0 57 135z" />
    <glyph glyph-name="ohungarumlaut" unicode="&#x151;" horiz-adv-x="270" 
d="M223 699q23 -22 16 -56q-9 -42 -54 -86q-13 -13 -27 -12q-12 1 -9 12q31 87 45 144q8 19 29 -2zM134 699q23 -22 16 -56q-9 -42 -54 -86q-15 -13 -27 -12t-9 12q32 87 45 144q7 19 29 -2zM182 188q-34 15 -32 69q1 51 33 56q21 2 34.5 -14.5t18.5 -50.5q51 23 86 77
q13 0 13 -25q1 -25 -12 -41q-41 -50 -86 -68q-6 -78 -36 -135q-35 -66 -86 -66q-55 0 -83 70q-25 59 -20 153q4 89 37 153q36 70 91 70q74 0 80 -62q2 -25 -10 -38q-14 -15 -35 -6q0 15 -7 33q-9 23 -23 23q-47 0 -56 -166q-3 -68 6 -115q9 -52 30 -52q35 0 57 135z" />
    <glyph glyph-name="OE" unicode="&#x152;" horiz-adv-x="922" 
d="M914 759q10 -21 -3 -27q-67 12 -257 9l-17 -372q35 0 103 3q63 3 82 2q33 -1 44 -21q9 -17 -3 -27q-40 -2 -119 -9q-92 -7 -110 -8l-13 -288q56 14 215 6q38 -1 51 -21q13 -19 -8 -32q-26 3 -100 -6q-90 -11 -130 -11q-30 0 -68 33q-37 34 -39 69v19q-74 -122 -194 -122
q-113 0 -176 96q-55 85 -55 216q-79 24 -99 108q-18 77 20 174q38 98 115 166q84 75 188 86q175 16 242 -197l12 135q3 25 20 44q17 17 30 17q135 0 223 -15q32 -4 46 -27zM203 325q34 -3 73 4q11 -20 -1 -40q-13 -22 -47 -27l-28 -3q-1 -107 34 -173q40 -75 122 -75
q73 0 127 90q51 83 66 207q-35 6 -47 31q-11 23 1 42q8 -2 51 -8v4q3 154 -46 258q-54 117 -150 113q-151 -7 -236 -164q-35 -65 -37 -128q0 -67 40 -101q24 138 86 215q28 34 64 40q33 6 34 -13q-84 -68 -106 -272z" />
    <glyph glyph-name="oe" unicode="&#x153;" horiz-adv-x="404" 
d="M449 190q12 -19 3 -43q-24 -71 -69 -115q-45 -42 -94 -42q-61 0 -90 72q-33 -67 -86 -67q-54 0 -81 70q-25 60 -19 153q6 92 39 153q37 70 91 70q62 0 83 -71q39 74 94 74q45 0 61 -43q16 -37 4 -93q-10 -55 -44 -93q-36 -43 -84 -42q0 -117 55 -117q66 0 115 145
q10 7 22 -11zM282 337q-17 -61 -23 -128q46 28 65 110q8 32 6 55q-2 24 -14 24q-16 0 -34 -61zM184 212l1 19q5 84 -8 125q-11 35 -29 35q-47 0 -58 -161q-4 -61 4 -112q9 -50 29 -50q41 0 61 144z" />
    <glyph glyph-name="Racute" unicode="&#x154;" horiz-adv-x="658" 
d="M419 1011q23 -22 16 -56q-8 -41 -56 -86q-16 -13 -28 -12q-13 1 -10 12q39 111 47 144q8 20 31 -2zM77 64q3 15 12 23q7 7 18 3q54 -76 113 -76q25 0 34 134q-44 4 -39 30q5 25 42 47q5 225 -14 386q0 8 14 10q13 3 29 -3q43 -18 46 -74q7 -161 1 -294q50 5 86 -17
q76 36 116 124q37 83 27 174q-12 96 -75 151q-71 64 -189 57q-88 -4 -147 -59q-53 -49 -65 -115q-10 -67 24 -113q37 -51 116 -51q8 -17 -6 -36q-15 -22 -47 -22q-92 0 -134 72q-39 66 -18 157q23 96 96 157q85 72 207 72q127 0 215 -73q81 -67 103 -171q22 -102 -22 -200
q-49 -105 -160 -160l39 -68q38 -65 65 -98q100 -127 227 -121q14 -17 1 -39q-16 -27 -58 -31q-115 -13 -222 133q-74 101 -103 199q-1 1 -1 3l-41 -12q-27 -7 -42 -9q-11 -85 -24 -125q-23 -74 -98 -74q-63 0 -103 39q-31 29 -23 70z" />
    <glyph glyph-name="racute" unicode="&#x155;" horiz-adv-x="269" 
d="M218 699q23 -22 16 -56q-8 -41 -56 -86q-16 -13 -28 -12q-13 1 -10 12q39 111 47 144q8 20 31 -2zM72 515q-16 0 -21 -47q-6 -48 16 -61q8 55 9.5 81t-4.5 27zM311 190q12 -19 3 -43q-56 -153 -136 -153q-64 0 -72 108q-6 110 55 235q-32 -4 -63 -1q-29 -145 -71 -233
q-12 -26 -32 -21t-18 20q47 81 80 246q-42 24 -48 78q-6 46 15 99q19 47 45 70q29 23 44 -5q19 -32 -4 -190q39 0 77 12q25 -6 44 -40q23 -38 5 -61q-36 -46 -53 -146q-16 -100 16 -100q44 0 92 136q9 7 21 -11z" />
    <glyph glyph-name="uni0157" unicode="&#x157;" horiz-adv-x="269" 
d="M83 -50q25 -4 25 -36q0 -55 -19 -83q-11 -17 -24 -17q-13 -1 -13 10q12 70 2 115q5 16 29 11zM72 515q-16 0 -21 -47q-6 -48 16 -61q8 55 9.5 81t-4.5 27zM311 190q12 -19 3 -43q-56 -153 -136 -153q-64 0 -72 108q-6 110 55 235q-32 -4 -63 -1q-29 -145 -71 -233
q-12 -26 -32 -21t-18 20q47 81 80 246q-42 24 -48 78q-6 46 15 99q19 47 45 70q29 23 44 -5q19 -32 -4 -190q39 0 77 12q25 -6 44 -40q23 -38 5 -61q-36 -46 -53 -146q-16 -100 16 -100q44 0 92 136q9 7 21 -11z" />
    <glyph glyph-name="rcaron" unicode="&#x159;" horiz-adv-x="269" 
d="M200 621q25 43 47 68q9 10 23 7q13 -3 12 -13q-32 -76 -74 -131q-6 -8 -15 -8t-14 8q-58 129 -58 131q-5 11 13 14q19 2 32 -16q21 -35 34 -60zM72 515q-16 0 -21 -47q-6 -48 16 -61q8 55 9.5 81t-4.5 27zM311 190q12 -19 3 -43q-56 -153 -136 -153q-64 0 -72 108
q-6 110 55 235q-32 -4 -63 -1q-29 -145 -71 -233q-12 -26 -32 -21t-18 20q47 81 80 246q-42 24 -48 78q-6 46 15 99q19 47 45 70q29 23 44 -5q19 -32 -4 -190q39 0 77 12q25 -6 44 -40q23 -38 5 -61q-36 -46 -53 -146q-16 -100 16 -100q44 0 92 136q9 7 21 -11z" />
    <glyph glyph-name="sacute" unicode="&#x15b;" horiz-adv-x="251" 
d="M196 699q23 -22 16 -56q-8 -41 -56 -86q-15 -13 -28 -12q-12 1 -10 12q39 111 47 144q8 20 31 -2zM143 267l78 -117q31 -49 -7 -105q-37 -55 -91 -55t-87 42q-29 35 -34 88q-3 44 12 72q17 29 45 23q2 -67 21 -116q22 -57 53 -57q27 0 31 25q5 25 -14 51l-62 97
q-43 67 -44 120q-1 49 31 81q29 29 68 29q49 0 74 -28q21 -23 21 -59q-2 -34 -20 -54q-21 -23 -49 -14q11 24 9 63q-3 45 -30 45q-28 0 -33 -39q-6 -43 28 -92z" />
    <glyph glyph-name="scircumflex" unicode="&#x15d;" horiz-adv-x="251" 
d="M149 620q-32 -50 -47 -68q-9 -10 -23 -7q-13 3 -12 13q35 80 74 131q6 8 15 8t14 -8q58 -129 58 -131q5 -11 -13 -14q-19 -2 -32 16q-19 29 -34 60zM143 267l78 -117q31 -49 -7 -105q-37 -55 -91 -55t-87 42q-29 35 -34 88q-3 44 12 72q17 29 45 23q2 -67 21 -116
q22 -57 53 -57q27 0 31 25q5 25 -14 51l-62 97q-43 67 -44 120q-1 49 31 81q29 29 68 29q49 0 74 -28q21 -23 21 -59q-2 -34 -20 -54q-21 -23 -49 -14q11 24 9 63q-3 45 -30 45q-28 0 -33 -39q-6 -43 28 -92z" />
    <glyph glyph-name="scedilla" unicode="&#x15f;" horiz-adv-x="251" 
d="M143 267l78 -117q28 -45 -2 -98q-28 -49 -79 -60l-6 -22q27 0 40.5 -10.5t12.5 -31.5q-1 -39 -45 -74q-23 -19 -47 -14q-23 5 -15 20q40 23 50 47q5 13 -1 19t-25 6q-25 9 -21 28q1 11 9 34q-82 22 -90 126q-3 44 12 72q17 29 45 23q2 -67 21 -116q22 -57 53 -57
q27 0 31 25q5 25 -14 51l-62 97q-43 67 -44 120q-1 49 31 81q29 29 68 29q49 0 74 -28q21 -23 21 -59q-2 -34 -20 -54q-21 -23 -49 -14q11 24 9 63q-3 45 -30 45q-28 0 -33 -39q-6 -43 28 -92z" />
    <glyph glyph-name="scaron" unicode="&#x161;" horiz-adv-x="251" 
d="M162 621q25 43 47 68q10 10 24 7t11 -13q-32 -76 -74 -131q-6 -8 -15 -8t-14 8q-57 130 -58 131q-5 11 14 14q18 1 31 -16q21 -35 34 -60zM143 267l78 -117q31 -49 -7 -105q-37 -55 -91 -55t-87 42q-29 35 -34 88q-3 44 12 72q17 29 45 23q2 -67 21 -116q22 -57 53 -57
q27 0 31 25q5 25 -14 51l-62 97q-43 67 -44 120q-1 49 31 81q29 29 68 29q49 0 74 -28q21 -23 21 -59q-2 -34 -20 -54q-21 -23 -49 -14q11 24 9 63q-3 45 -30 45q-28 0 -33 -39q-6 -43 28 -92z" />
    <glyph glyph-name="uni0163" unicode="&#x163;" horiz-adv-x="150" 
d="M97 3l-9 -33q27 0 40.5 -10.5t12.5 -31.5q-1 -39 -45 -74q-23 -19 -47 -14q-23 5 -15 20q40 23 50 47q5 13 -1 19t-25 6q-25 9 -21 28q5 26 12 44q-29 24 -30 127q-2 89 12 334q-92 -4 -116 -4q-22 0 -16 20q6 18 27 23l108 2l5 53q5 35 38 57q32 21 39 5l-8 -113
q212 4 272 2q1 -15 -7 -22.5t-27 -8.5q-18 -1 -241 -11q-24 -396 -20 -404h3q2 1 5 4q9 7 23 22q38 44 57 111q9 7 20 -10q13 -18 5 -43q-35 -110 -101 -145z" />
    <glyph glyph-name="tcaron" unicode="&#x165;" horiz-adv-x="149" 
d="M208 764q25 -4 25 -36q0 -55 -19 -83q-11 -17 -24 -17q-13 -1 -13 10q12 70 2 115q5 16 29 11zM-75 511l123 2q2 26 5 39q6 42 43 66q16 9 25 8q11 0 9 -12q-6 -41 -11 -99q202 4 260 2q1 -14 -7 -21t-27 -8q-105 -6 -230 -11q-12 -132 -18 -222t-6 -134t7 -44
q10 0 22 18q39 58 52 106q9 7 20 -10q12 -18 5 -43q-15 -52 -48 -96q-37 -52 -78 -52q-57 0 -52 128q4 149 24 346q-103 -4 -129 -4q-22 0 -16 19q6 17 27 22z" />
    <glyph glyph-name="Tbar" unicode="&#x166;" horiz-adv-x="515" 
d="M6 765q4 32 36 37q46 -38 174 -57q116 -18 209 -7q49 64 123 64q30 0 43 -13q13 -12 4 -30q-23 -45 -143 -68l-3 -1q-17 -50 -28 -159l45 -3q30 -1 41 -19q10 -16 0 -29q-54 -3 -91 -4l-10 -200q-5 -106 -11 -168q-16 -151 -119 -151q-53 0 -113 78q-65 83 -54 164
q5 29 25 39q19 10 34 -2q4 -69 47 -150q40 -76 68 -76t33 95q13 296 22 370q-49 0 -63 2q-29 5 -44 30q-13 25 1 32l116 -5q17 91 44 148q-262 -31 -352 24q-40 24 -34 59z" />
    <glyph glyph-name="tbar" unicode="&#x167;" horiz-adv-x="149" 
d="M-75 511l124 2l6 46q5 35 37 57q31 21 38 5l-9 -106q200 4 258 2q1 -14 -7 -21t-27 -8q-110 -6 -228 -11l-7 -77h33q31 0 38 -13q7 -11 -3 -24l-72 -4q-26 -286 -22 -295h3q2 1 5 4q9 7 23 22q37 44 57 111q9 7 20 -10q13 -18 5 -43q-23 -73 -64 -115q-34 -37 -61 -37
q-52 0 -54 135q-1 48 15 226l-11 1q-27 2 -40 19q-13 19 2 25l53 -2l4 38l4 36l-131 -4q-22 0 -16 19q6 17 27 22z" />
    <glyph glyph-name="Utilde" unicode="&#x168;" horiz-adv-x="724" 
d="M488 883q-33 16 -52 -24q-13 -4 -19 9q-5 12 -1 29q11 47 53 47q3 0 57 -22q31 -12 45 26q16 4 23 -9q6 -13 2 -32q-11 -50 -52 -50l-6 3q-5 2 -20 9zM773 -52q28 -16 0 -50q-30 -35 -86 -35q-115 0 -120 294q-75 -207 -201 -207q-59 0 -89 56q-29 56 -23 157l15 187
q12 139 14 181q12 211 -37 211q-26 0 -69 -58q-44 -59 -68 -127q-27 -80 -9 -128q22 -58 105 -58q9 -21 -9 -40q-17 -20 -48 -20q-97 0 -124 77q-24 68 10 168q33 97 98 168q71 77 140 77q52 0 77 -64q27 -70 17 -200l-13 -163q-9 -109 -13 -183q-4 -95 3 -129q9 -42 42 -42
q51 0 108 113q50 98 84 238q21 219 51 339q13 51 61 77q19 11 33 9q15 -1 16 -14q-60 -146 -83 -502q-23 -353 27 -353q26 0 91 21z" />
    <glyph glyph-name="utilde" unicode="&#x169;" 
d="M147 570q-34 16 -52 -24q-13 -4 -19 9q-6 10 -1 29q11 47 53 47q3 0 57 -22q30 -12 45 26q16 4 22 -9q7 -11 2 -32q-11 -50 -51 -50q-1 0 -56 26zM162 72q-27 -76 -77 -76q-65 0 -71 129q-5 101 20 214q10 53 45 78q32 25 40 5q-34 -159 -37 -263q-2 -90 20 -90
q34 0 57 128q3 72 14 149q4 41 43 66q14 10 25 8q11 0 9 -12q-21 -167 -24.5 -248.5t10.5 -82.5q7 0 19 18q27 39 50 106q9 7 21 -11q12 -19 4 -43q-50 -147 -121 -147q-35 0 -47 72z" />
    <glyph glyph-name="umacron" unicode="&#x16b;" 
d="M181 547q-66 -2 -72 -2q-34 1 -41 31q-6 28 12 36q33 -9 74 -10l63 -3q24 -3 32 -21q5 -17 -5 -30q-9 1 -63 -1zM162 72q-27 -76 -77 -76q-65 0 -71 129q-5 101 20 214q10 53 45 78q32 25 40 5q-34 -159 -37 -263q-2 -90 20 -90q34 0 57 128q3 72 14 149q4 41 43 66
q14 10 25 8q11 0 9 -12q-21 -167 -24.5 -248.5t10.5 -82.5q7 0 19 18q27 39 50 106q9 7 21 -11q12 -19 4 -43q-50 -147 -121 -147q-35 0 -47 72z" />
    <glyph glyph-name="ubreve" unicode="&#x16d;" 
d="M219 568q-25 -24 -58 -24t-53 23q-18 19 -18 47q0 23 12 35q11 11 20 4q6 -53 41 -53q40 0 56 58q10 6 20 -3q13 -10 10 -34q-5 -31 -30 -53zM162 72q-27 -76 -77 -76q-65 0 -71 129q-5 101 20 214q10 53 45 78q32 25 40 5q-34 -159 -37 -263q-2 -90 20 -90q34 0 57 128
q3 72 14 149q4 41 43 66q14 10 25 8q11 0 9 -12q-21 -167 -24.5 -248.5t10.5 -82.5q7 0 19 18q27 39 50 106q9 7 21 -11q12 -19 4 -43q-50 -147 -121 -147q-35 0 -47 72z" />
    <glyph glyph-name="uring" unicode="&#x16f;" 
d="M96 605q-5 60 40 73q8 15 39 15q36 0 56 -23q17 -22 14 -51q-3 -30 -23 -52q-23 -23 -56 -23q-66 0 -70 61zM170 660h-4q-21 -14 -22 -48q-2 -35 24 -35q30 0 31 42q2 41 -29 41zM162 72q-27 -76 -77 -76q-65 0 -71 129q-5 101 20 214q10 53 45 78q32 25 40 5
q-34 -159 -37 -263q-2 -90 20 -90q34 0 57 128q3 72 14 149q4 41 43 66q14 10 25 8q11 0 9 -12q-21 -167 -24.5 -248.5t10.5 -82.5q7 0 19 18q27 39 50 106q9 7 21 -11q12 -19 4 -43q-50 -147 -121 -147q-35 0 -47 72z" />
    <glyph glyph-name="uhungarumlaut" unicode="&#x171;" 
d="M240 699q23 -22 16 -56q-9 -42 -54 -86q-14 -13 -27 -12q-12 1 -9 12q32 87 45 144q7 19 29 -2zM151 699q23 -22 16 -56q-9 -42 -54 -86q-15 -13 -27 -12t-9 12q31 87 45 144q8 19 29 -2zM162 72q-27 -76 -77 -76q-65 0 -71 129q-5 101 20 214q10 53 45 78q32 25 40 5
q-34 -159 -37 -263q-2 -90 20 -90q34 0 57 128q3 72 14 149q4 41 43 66q14 10 25 8q11 0 9 -12q-21 -167 -24.5 -248.5t10.5 -82.5q7 0 19 18q27 39 50 106q9 7 21 -11q12 -19 4 -43q-50 -147 -121 -147q-35 0 -47 72z" />
    <glyph glyph-name="uogonek" unicode="&#x173;" 
d="M244 -131q-10 -12 -34 -12q-31 0 -46 22q-16 21 -8 57q6 31 40 67q-27 13 -34 69q-27 -76 -77 -76q-65 0 -71 129q-5 101 20 214q10 53 45 78q32 25 40 5q-34 -159 -37 -263q-2 -90 20 -90q34 0 57 128q3 72 14 149q4 41 43 66q14 10 25 8q11 0 9 -12
q-21 -167 -24.5 -248.5t10.5 -82.5q7 0 19 18q27 39 50 106q9 7 21 -11q12 -19 4 -43q-31 -92 -78 -130q-35 -45 -36 -82q-1 -36 31 -49q6 -7 -3 -17zM543 841q11 12 34 12q31 0 46 -21q16 -22 8 -58q-7 -29 -54 -82h-43q35 46 37 82q1 37 -31 50q-6 7 3 17z" />
    <glyph glyph-name="wcircumflex" unicode="&#x175;" horiz-adv-x="401" 
d="M209 620q-32 -50 -47 -68q-9 -10 -23 -7q-13 3 -12 13q32 76 74 131q6 8 15 8t14 -8q58 -129 58 -131q5 -11 -13 -14q-19 -2 -32 16q-19 29 -34 60zM159 114q-14 58 -14 119q0 116 45 125q16 4 30 -20q14 -26 14 -71q0 -67 -24 -139q16 -69 42 -69q50 0 54 153
q-32 26 -32 105q0 40 11 71q14 35 35 35q22 0 35 -52q12 -45 12 -94v-7q54 25 88 76q13 0 13 -25q0 -68 -104 -107q-14 -218 -112 -218q-46 0 -74 61q-34 -55 -76 -55q-44 0 -69 63q-21 54 -21 135q0 114 25 180q24 61 58 61q11 0 13 -9q-23 -121 -23 -230q0 -133 36 -133
q21 0 38 45z" />
    <glyph glyph-name="ycircumflex" unicode="&#x177;" horiz-adv-x="283" 
d="M168 620q-32 -50 -47 -68q-9 -10 -23 -7q-13 3 -12 13q32 76 74 131q6 8 15 8t14 -8q58 -129 58 -131q5 -11 -13 -14q-19 -2 -32 16q-19 29 -34 60zM166 220q4 84 11 126q6 42 43 66q16 9 25 8q11 0 9 -12q-22 -161 -29 -351q65 55 84 144q9 7 20 -10q13 -18 5 -43
q-39 -114 -109 -153q-3 -345 -110 -345q-52 0 -94 50q-41 47 -49 110q-7 66 34 110q50 52 152 53v10q0 55 1 78q-25 -63 -72 -63q-63 0 -71 122q-5 94 20 206q10 52 46 78q31 25 39 5q-34 -159 -37 -256q-1 -82 20 -82q42 0 62 149zM157 -73q-120 -6 -109 -113q5 -39 25 -73
q19 -33 37 -34q44 -2 47 220z" />
    <glyph glyph-name="Zacute" unicode="&#x179;" horiz-adv-x="577" 
d="M378 1011q23 -22 16 -56q-8 -41 -56 -86q-15 -13 -28 -12q-12 1 -10 12q39 111 47 144q8 20 31 -2zM323 -10q-82 36 -116 39q-85 -74 -145 -74q-62 0 -43 43q19 40 87 69q40 17 84 18q129 131 226 398q40 113 47 184q9 77 -23 77q-147 0 -269 -125q-49 -51 -48 -87
q1 -39 69 -39q10 -24 -9 -43q-19 -21 -59 -21q-91 0 -91 82q0 83 139 183q149 107 291 107q74 0 86 -80q10 -69 -31 -193q-86 -257 -261 -449q35 -8 102 -34q57 -22 86 -22q21 0 32 81q10 76 -1 144q15 21 46 -6q32 -29 32 -84q0 -81 -31 -142q-30 -60 -70 -60
q-53 0 -130 34z" />
    <glyph glyph-name="zacute" unicode="&#x17a;" horiz-adv-x="281" 
d="M187 699q23 -22 16 -56q-8 -41 -56 -86q-15 -13 -28 -12q-12 1 -10 12q39 111 47 144q8 20 31 -2zM59 288q-18 -37 -17 -60q1 -28 28 -28q3 -19 -17 -33q-14 -10 -31 -10q-46 0 -50 43q-4 39 24 94q72 136 180 136q57 -16 52 -81q-20 -143 -100 -240q55 -43 57 -43
q11 0 31 29q30 44 50 106q9 7 21 -11q12 -19 4 -43q-49 -147 -115 -147q-11 0 -81 55q-41 -57 -59 -57q-21 0 -27 21q-5 19 3 45q20 65 66 58q37 51 61 141q21 80 15 113q-52 0 -95 -88z" />
    <glyph glyph-name="zdotaccent" unicode="&#x17c;" horiz-adv-x="281" 
d="M117 634q6 37 40 55q34 19 37 -5q-4 -30 -20 -111q-8 -45 -36 -45q-40 0 -21 106zM59 288q-18 -37 -17 -60q1 -28 28 -28q3 -19 -17 -33q-14 -10 -31 -10q-46 0 -50 43q-4 39 24 94q72 136 180 136q57 -16 52 -81q-20 -143 -100 -240q55 -43 57 -43q11 0 31 29
q30 44 50 106q9 7 21 -11q12 -19 4 -43q-49 -147 -115 -147q-11 0 -81 55q-41 -57 -59 -57q-21 0 -27 21q-5 19 3 45q20 65 66 58q37 51 61 141q21 80 15 113q-52 0 -95 -88z" />
    <glyph glyph-name="zcaron" unicode="&#x17e;" horiz-adv-x="281" 
d="M152 621q25 43 47 68q9 10 24 7q12 -3 11 -13q-32 -76 -74 -131q-6 -8 -15 -8t-14 8q-58 129 -58 131q-5 11 14 14q18 2 31 -16q21 -35 34 -60zM59 288q-18 -37 -17 -60q1 -28 28 -28q3 -19 -17 -33q-14 -10 -31 -10q-46 0 -50 43q-4 39 24 94q72 136 180 136
q57 -16 52 -81q-20 -143 -100 -240q55 -43 57 -43q11 0 31 29q30 44 50 106q9 7 21 -11q12 -19 4 -43q-49 -147 -115 -147q-11 0 -81 55q-41 -57 -59 -57q-21 0 -27 21q-5 19 3 45q20 65 66 58q37 51 61 141q21 80 15 113q-52 0 -95 -88z" />
    <glyph glyph-name="Ohorn" unicode="&#x1a0;" horiz-adv-x="659" 
d="M203 325q34 -3 73 4q13 -20 -1 -40q-13 -22 -47 -27l-28 -3q-1 -106 34 -172q41 -74 122 -74q83 0 142 113q55 105 58 251q4 158 -40 258q-51 116 -158 113q-151 -5 -236 -162q-36 -68 -36 -129q-2 -67 39 -102q24 138 86 215q28 34 64 40q33 6 34 -13q-84 -68 -106 -272
zM577 692h-12l9 -15q70 -118 66 -302q-4 -169 -78 -288q-81 -131 -214 -131q-114 0 -175 96q-56 86 -56 216q-80 24 -99 109q-18 78 20 176q37 98 115 167q85 75 188 82q131 9 208 -89q20 34 22 61q1 37 -31 50q-6 7 3 17q11 12 34 12q31 0 46 -21q16 -22 8 -58
q-7 -29 -54 -82z" />
    <glyph glyph-name="ohorn" unicode="&#x1a1;" horiz-adv-x="270" 
d="M229 349h-12q-1 -5 -7 -13q-14 -15 -35 -6q0 15 -7 33q-9 23 -23 23q-47 0 -56 -166q-3 -68 6 -115q9 -52 30 -52q35 0 57 135q-34 15 -32 69q1 51 33 56q21 2 34.5 -14.5t18.5 -50.5q51 23 86 77q13 0 13 -25q1 -25 -12 -41q-41 -50 -86 -68q-6 -78 -36 -135
q-35 -66 -86 -66q-55 0 -83 70q-25 59 -20 153q4 89 37 153q36 70 91 70q59 0 75 -40q8 21 8 35q1 37 -31 50q-6 7 3 17q11 12 34 12q31 0 46 -21q16 -22 8 -58q-7 -29 -54 -82z" />
    <glyph glyph-name="Uhorn" unicode="&#x1af;" horiz-adv-x="724" 
d="M753 758h-24q-55 -153 -74 -478q-23 -353 27 -353q26 0 91 21q28 -16 0 -50q-30 -35 -86 -35q-115 0 -120 294q-75 -207 -201 -207q-59 0 -89 56q-29 56 -23 157l15 187q12 139 14 181q12 211 -37 211q-26 0 -69 -58q-44 -59 -68 -127q-27 -80 -9 -128q22 -58 105 -58
q9 -21 -9 -40q-17 -20 -48 -20q-97 0 -124 77q-24 68 10 168q33 97 98 168q71 77 140 77q52 0 77 -64q27 -70 17 -200l-13 -163q-9 -109 -13 -183q-4 -95 3 -129q9 -42 42 -42q51 0 108 113q50 98 84 238q21 219 51 339q13 51 61 77q19 11 33 9q6 0 11 -3q12 23 14 47
q1 37 -31 50q-6 7 3 17q11 12 34 12q31 0 46 -21q16 -22 8 -58q-7 -29 -54 -82z" />
    <glyph glyph-name="uni01CB" unicode="&#x1cb;" horiz-adv-x="837" 
d="M319 437q85 363 224 363q52 0 81 -53q32 -59 26 -166l-9 -159q-6 -95 -10 -189q-8 -231 19 -268q34 8 69 8v10q0 253 19 363q6 42 43 66q16 9 25 8q10 0 9 -12q-22 -161 -29 -351q63 55 84 144q9 7 20 -10q13 -18 5 -43q-41 -114 -109 -153q-3 -345 -110 -345
q-42 0 -79 34q-36 32 -54 81q-42 118 49 176q-42 67 -42 245q0 61 15 382q4 80 -1 117q-6 44 -34 44q-66 0 -136 -244q-69 -234 -92 -522q-7 -18 -38 1q-32 20 -30 57l18 460q4 262 -28 262q-26 0 -66 -58t-60 -127q-22 -78 -2 -128q24 -58 106 -58q9 -18 -9 -39
q-20 -23 -50 -23q-89 0 -118 77q-26 68 3 169q27 98 86 169q65 77 133 77q95 0 72 -365zM638 -101q-45 -40 -22 -117q21 -74 55 -75q20 -1 31.5 47.5t15.5 147.5q-26 -9 -47 -9q-18 0 -33 6zM760 562q-4 27 5 71q7 37 42 55q34 19 36 -5q-2 -19 -22 -111q-7 -45 -37 -45
q-21 0 -24 35z" />
    <glyph glyph-name="uni0219" unicode="&#x219;" horiz-adv-x="251" 
d="M126 -50q25 -4 25 -36q0 -55 -19 -83q-11 -17 -24 -17q-13 -1 -13 10q12 70 2 115q5 16 29 11zM143 267l78 -117q31 -49 -7 -105q-37 -55 -91 -55t-87 42q-29 35 -34 88q-3 44 12 72q17 29 45 23q2 -67 21 -116q22 -57 53 -57q27 0 31 25q5 25 -14 51l-62 97
q-43 67 -44 120q-1 49 31 81q29 29 68 29q49 0 74 -28q21 -23 21 -59q-2 -34 -20 -54q-21 -23 -49 -14q11 24 9 63q-3 45 -30 45q-28 0 -33 -39q-6 -43 28 -92z" />
    <glyph glyph-name="uni021B" unicode="&#x21b;" horiz-adv-x="150" 
d="M75 -50q25 -4 25 -36q0 -55 -19 -83q-11 -17 -24 -17q-13 -1 -13 10q12 70 2 115q5 16 29 11zM-74 511l123 2q2 26 5 39q6 42 43 66q16 9 25 8q10 0 9 -12q-6 -41 -11 -99q202 4 260 2q1 -14 -7 -21t-27 -8q-105 -6 -230 -11q-12 -132 -18 -222t-6 -134t7 -44q10 0 22 18
q39 58 52 106q9 7 20 -10q12 -18 5 -43q-15 -52 -48 -96q-37 -52 -78 -52q-57 0 -52 128q4 149 24 346q-103 -4 -129 -4q-22 0 -16 19q6 17 27 22z" />
    <glyph glyph-name="circumflex" unicode="&#x2c6;" horiz-adv-x="243" 
d="M125 620q-32 -50 -47 -68q-9 -10 -23 -7q-13 3 -12 13q35 80 74 131q6 8 16 8q8 0 13 -8q58 -129 58 -131q5 -11 -13 -14q-19 -2 -32 16q-24 38 -34 60z" />
    <glyph glyph-name="caron" unicode="&#x2c7;" horiz-adv-x="243" 
d="M123 613q32 50 47 68q9 10 23 7q13 -3 12 -13q-35 -80 -74 -131q-6 -8 -16 -8q-8 0 -13 8q-58 129 -58 131q-5 11 13 14q19 2 32 -16q24 -38 34 -60z" />
    <glyph glyph-name="uni02C9" unicode="&#x2c9;" horiz-adv-x="264" 
d="M159 547q-66 -2 -72 -2q-34 1 -41 31q-6 28 12 36q33 -9 73 -10l64 -3q25 -3 31 -21q6 -17 -4 -30q-9 1 -63 -1z" />
    <glyph glyph-name="breve" unicode="&#x2d8;" horiz-adv-x="240" 
d="M169 568q-25 -24 -58 -24t-53 23q-18 19 -18 47q0 23 12 35q11 11 20 4q8 -53 41 -53q40 0 56 58q11 6 21 -3q12 -11 9 -34q-5 -31 -30 -53z" />
    <glyph glyph-name="dotaccent" unicode="&#x2d9;" horiz-adv-x="163" 
d="M60 634q6 37 40 55q34 19 37 -5q-4 -30 -20 -111q-7 -45 -36 -45q-40 0 -21 106z" />
    <glyph glyph-name="ring" unicode="&#x2da;" horiz-adv-x="231" 
d="M46 605q-5 60 40 73q9 15 39 15q36 0 56 -23q17 -22 14 -51q-3 -30 -23 -52q-23 -23 -56 -23q-64 0 -70 61zM120 660h-4q-21 -14 -22 -48q-2 -35 24 -35q30 0 31 42q2 41 -29 41z" />
    <glyph glyph-name="ogonek" unicode="&#x2db;" horiz-adv-x="180" 
d="M136 -132q-10 -12 -34 -12q-31 0 -46 22q-16 21 -8 57q7 29 54 82h43q-36 -48 -37 -82q-1 -37 31 -50q7 -7 -3 -17z" />
    <glyph glyph-name="tilde" unicode="&#x2dc;" horiz-adv-x="264" 
d="M116 570q-33 16 -52 -24q-13 -4 -19 9q-5 12 -1 29q11 47 53 47q3 0 57 -22q31 -12 45 26q16 4 23 -9q6 -13 2 -32q-11 -50 -52 -50l-6 2q-5 3 -20 10z" />
    <glyph glyph-name="hungarumlaut" unicode="&#x2dd;" horiz-adv-x="262" 
d="M206 699q23 -21 15 -56q-7 -42 -54 -86q-14 -14 -26 -12q-12 1 -10 12q31 87 45 144q7 19 30 -2zM117 699q23 -21 15 -56q-7 -42 -54 -86q-14 -13 -27 -12q-11 1 -9 12q32 87 45 144q7 19 30 -2z" />
    <glyph glyph-name="uni03BC" unicode="&#x3bc;" 
d="M164 72q-25 -76 -77 -76q-10 0 -19 3l-9 -212q0 -17 -28 -10q-26 7 -28 27q-7 313 33 535q10 53 45 78q32 25 40 5q-34 -162 -36 -263q-1 -90 19 -90q36 0 57 128q3 72 14 149q6 42 43 66q16 9 25 8q11 0 9 -12q-20 -167 -23.5 -248.5t9.5 -82.5q7 0 19 18q30 44 50 106
q9 7 21 -11q12 -19 4 -43q-50 -147 -121 -147q-35 0 -47 72z" />
    <glyph glyph-name="wgrave" unicode="&#x1e81;" horiz-adv-x="401" 
d="M250 557q2 -11 -10 -12q-13 -1 -28 12q-48 45 -56 86q-7 34 16 56t31 2q8 -33 47 -144zM159 114q-14 58 -14 119q0 116 45 125q16 4 30 -20q14 -26 14 -71q0 -67 -24 -139q16 -69 42 -69q50 0 54 153q-32 26 -32 105q0 40 11 71q14 35 35 35q22 0 35 -52q12 -45 12 -94
v-7q54 25 88 76q13 0 13 -25q0 -68 -104 -107q-14 -218 -112 -218q-46 0 -74 61q-34 -55 -76 -55q-44 0 -69 63q-21 54 -21 135q0 114 25 180q24 61 58 61q11 0 13 -9q-23 -121 -23 -230q0 -133 36 -133q21 0 38 45z" />
    <glyph glyph-name="wacute" unicode="&#x1e83;" horiz-adv-x="401" 
d="M251 699q23 -22 16 -56q-8 -41 -56 -86q-15 -13 -28 -12q-12 1 -10 12q39 111 47 144q8 20 31 -2zM159 114q-14 58 -14 119q0 116 45 125q16 4 30 -20q14 -26 14 -71q0 -67 -24 -139q16 -69 42 -69q50 0 54 153q-32 26 -32 105q0 40 11 71q14 35 35 35q22 0 35 -52
q12 -45 12 -94v-7q54 25 88 76q13 0 13 -25q0 -68 -104 -107q-14 -218 -112 -218q-46 0 -74 61q-34 -55 -76 -55q-44 0 -69 63q-21 54 -21 135q0 114 25 180q24 61 58 61q11 0 13 -9q-23 -121 -23 -230q0 -133 36 -133q21 0 38 45z" />
    <glyph glyph-name="wdieresis" unicode="&#x1e85;" horiz-adv-x="401" 
d="M130 575q-4 25 4 65q4 34 37 51q32 17 33 -5l-18 -102q-8 -41 -34 -41q-19 0 -22 32zM231 575q-4 25 4 65q4 34 37 51q32 17 33 -5l-18 -102q-8 -41 -34 -41q-19 0 -22 32zM159 114q-14 58 -14 119q0 116 45 125q16 4 30 -20q14 -26 14 -71q0 -67 -24 -139q16 -69 42 -69
q50 0 54 153q-32 26 -32 105q0 40 11 71q14 35 35 35q22 0 35 -52q12 -45 12 -94v-7q54 25 88 76q13 0 13 -25q0 -68 -104 -107q-14 -218 -112 -218q-46 0 -74 61q-34 -55 -76 -55q-44 0 -69 63q-21 54 -21 135q0 114 25 180q24 61 58 61q11 0 13 -9q-23 -121 -23 -230
q0 -133 36 -133q21 0 38 45z" />
    <glyph glyph-name="uni1EA7" unicode="&#x1ea7;" 
d="M169 620q-32 -50 -47 -68q-9 -10 -23 -7q-13 3 -12 13q35 80 74 131q6 8 16 8q8 0 13 -8q58 -129 58 -131q5 -11 -13 -14q-19 -2 -32 16q-24 38 -34 60zM169 77q-26 -83 -80 -83q-45 0 -64 69q-17 63 -6 152q12 88 47 151q41 69 95 69q41 0 62 -25q19 -20 17 -52
q-2 -31 -18 -47q-19 -19 -47 -8q9 31 4 59q-5 27 -20 27q-36 0 -62 -161q-24 -161 8 -161q37 0 64 201q21 10 45 -2q26 -14 24 -42l-5 -104q-3 -43 6 -43q7 0 19 18q30 44 50 106q10 7 21 -11q13 -19 4 -43q-49 -147 -117 -147q-36 0 -47 77zM304 677q3 -11 -9 -12
q-13 -1 -29 12q-48 45 -56 86q-8 35 17 56q23 21 30 2q14 -51 47 -144z" />
    <glyph glyph-name="uni1EA8" unicode="&#x1ea8;" horiz-adv-x="656" 
d="M414 932q-32 -50 -47 -68q-9 -10 -23 -7q-13 3 -12 13q35 80 74 131q6 8 15 8t14 -8q58 -129 58 -131q5 -11 -13 -14q-19 -2 -32 16q-24 38 -34 60zM259 198q78 189 114 361q18 25 38 -13t12 -80q-20 -116 -88 -268q31 0 99 3q59 3 75 2q-17 105 -30 220q-23 185 -32 234
q-19 90 -52 90q-31 0 -82 -51q-52 -52 -82 -111q-36 -69 -27 -112q12 -51 86 -51q9 -14 -7 -35q-18 -23 -56 -23q-81 0 -95 68q-13 60 28 151q40 87 108 150q74 68 143 68q100 0 133 -242q50 -369 69 -452q41 -179 74 -179q16 0 85 39q31 -15 5 -53q-25 -36 -77 -47
q-48 -9 -86.5 34.5t-67.5 140.5q-13 43 -28 111q-104 -6 -210 -10q-96 -187 -182 -187q-75 0 -101 122q-24 116 20 190q17 26 39 29t30 -12q-21 -65 -18 -167q5 -107 37 -107q40 0 101 130h-9q-48 -2 -65 24q-15 23 -2 45q38 -8 101 -12zM485 1110q11 12 32 15q31 3 49 -17
t14 -56q-4 -32 -45 -87l-42 -5q30 49 27 86q-1 37 -36 46q-7 5 1 18z" />
    <glyph glyph-name="uni1EA9" unicode="&#x1ea9;" 
d="M169 620q-32 -50 -47 -68q-9 -10 -23 -7q-13 3 -12 13q35 80 74 131q6 8 16 8q8 0 13 -8q58 -129 58 -131q5 -11 -13 -14q-19 -2 -32 16q-24 38 -34 60zM169 77q-26 -83 -80 -83q-45 0 -64 69q-17 63 -6 152q12 88 47 151q41 69 95 69q41 0 62 -25q19 -20 17 -52
q-2 -31 -18 -47q-19 -19 -47 -8q9 31 4 59q-5 27 -20 27q-36 0 -62 -161q-24 -161 8 -161q37 0 64 201q21 10 45 -2q26 -14 24 -42l-5 -104q-3 -43 6 -43q7 0 19 18q30 44 50 106q10 7 21 -11q13 -19 4 -43q-49 -147 -117 -147q-36 0 -47 77zM232 824q11 12 32 15
q31 3 49 -17t14 -56q-5 -32 -45 -87l-42 -5q30 49 27 86q-1 37 -36 46q-7 5 1 18z" />
    <glyph glyph-name="uni1EAA" unicode="&#x1eaa;" horiz-adv-x="656" 
d="M414 932q-32 -50 -47 -68q-9 -10 -23 -7q-13 3 -12 13q35 80 74 131q6 8 15 8t14 -8q58 -129 58 -131q5 -11 -13 -14q-19 -2 -32 16q-24 38 -34 60zM259 198q78 189 114 361q18 25 38 -13t12 -80q-20 -116 -88 -268q31 0 99 3q59 3 75 2q-17 105 -30 220q-23 185 -32 234
q-19 90 -52 90q-31 0 -82 -51q-52 -52 -82 -111q-36 -69 -27 -112q12 -51 86 -51q9 -14 -7 -35q-18 -23 -56 -23q-81 0 -95 68q-13 60 28 151q40 87 108 150q74 68 143 68q100 0 133 -242q50 -369 69 -452q41 -179 74 -179q16 0 85 39q31 -15 5 -53q-25 -36 -77 -47
q-48 -9 -86.5 34.5t-67.5 140.5q-13 43 -28 111q-104 -6 -210 -10q-96 -187 -182 -187q-75 0 -101 122q-24 116 20 190q17 26 39 29t30 -12q-21 -65 -18 -167q5 -107 37 -107q40 0 101 130h-9q-48 -2 -65 24q-15 23 -2 45q38 -8 101 -12zM440 1050q-33 16 -52 -24
q-13 -4 -19 9q-5 12 -1 29q11 47 53 47q3 0 57 -22q31 -12 45 26q16 4 23 -9q6 -13 2 -32q-11 -50 -52 -50q-1 0 -56 26z" />
    <glyph glyph-name="uni1EAB" unicode="&#x1eab;" 
d="M169 620q-32 -50 -47 -68q-9 -10 -23 -7q-13 3 -12 13q35 80 74 131q6 8 16 8q8 0 13 -8q58 -129 58 -131q5 -11 -13 -14q-19 -2 -32 16q-24 38 -34 60zM169 77q-26 -83 -80 -83q-45 0 -64 69q-17 63 -6 152q12 88 47 151q41 69 95 69q41 0 62 -25q19 -20 17 -52
q-2 -31 -18 -47q-19 -19 -47 -8q9 31 4 59q-5 27 -20 27q-36 0 -62 -161q-24 -161 8 -161q37 0 64 201q21 10 45 -2q26 -14 24 -42l-5 -104q-3 -43 6 -43q7 0 19 18q30 44 50 106q10 7 21 -11q13 -19 4 -43q-49 -147 -117 -147q-36 0 -47 77zM314 672q-33 16 -52 -24
q-13 -4 -19 9q-5 12 -1 29q11 47 53 47q3 0 57 -22q31 -12 45 26q16 4 23 -9q6 -13 2 -32q-11 -50 -52 -50q-1 0 -56 26z" />
    <glyph glyph-name="uni1EAC" unicode="&#x1eac;" horiz-adv-x="656" 
d="M414 932q-32 -50 -47 -68q-9 -10 -23 -7q-13 3 -12 13q35 80 74 131q6 8 15 8t14 -8q58 -129 58 -131q5 -11 -13 -14q-19 -2 -32 16q-24 38 -34 60zM259 198q78 189 114 361q18 25 38 -13t12 -80q-20 -116 -88 -268q31 0 99 3q59 3 75 2q-17 105 -30 220q-23 185 -32 234
q-19 90 -52 90q-31 0 -82 -51q-52 -52 -82 -111q-36 -69 -27 -112q12 -51 86 -51q9 -14 -7 -35q-18 -23 -56 -23q-81 0 -95 68q-13 60 28 151q40 87 108 150q74 68 143 68q100 0 133 -242q50 -369 69 -452q41 -179 74 -179q16 0 85 39q31 -15 5 -53q-25 -36 -77 -47
q-48 -9 -86.5 34.5t-67.5 140.5q-13 43 -28 111q-104 -6 -210 -10q-96 -187 -182 -187q-75 0 -101 122q-24 116 20 190q17 26 39 29t30 -12q-21 -65 -18 -167q5 -107 37 -107q40 0 101 130h-9q-48 -2 -65 24q-15 23 -2 45q38 -8 101 -12zM370 -219q-8 18 -8 37q2 53 46 53
q43 0 29 -65q-9 -42 -47 -42q-12 0 -20 17z" />
    <glyph glyph-name="uni1EAD" unicode="&#x1ead;" 
d="M169 620q-32 -50 -47 -68q-9 -10 -23 -7q-13 3 -12 13q35 80 74 131q6 8 16 8q8 0 13 -8q58 -129 58 -131q5 -11 -13 -14q-19 -2 -32 16q-24 38 -34 60zM169 77q-26 -83 -80 -83q-45 0 -64 69q-17 63 -6 152q12 88 47 151q41 69 95 69q41 0 62 -25q19 -20 17 -52
q-2 -31 -18 -47q-19 -19 -47 -8q9 31 4 59q-5 27 -20 27q-36 0 -62 -161q-24 -161 8 -161q37 0 64 201q21 10 45 -2q26 -14 24 -42l-5 -104q-3 -43 6 -43q7 0 19 18q30 44 50 106q10 7 21 -11q13 -19 4 -43q-49 -147 -117 -147q-36 0 -47 77zM88 -184q-8 18 -8 37
q2 53 46 53q43 0 29 -65q-9 -42 -47 -42q-12 0 -20 17z" />
    <glyph glyph-name="uni1EAE" unicode="&#x1eae;" horiz-adv-x="656" 
d="M475 881q-25 -24 -58 -24t-53 23q-18 19 -18 47q0 23 12 35q13 11 20 4q8 -53 41 -53q40 0 56 58q11 6 21 -3q12 -11 9 -34q-5 -31 -30 -53zM259 198q78 189 114 361q18 25 38 -13t12 -80q-20 -116 -88 -268q31 0 99 3q59 3 75 2q-17 105 -30 220q-23 185 -32 234
q-19 90 -52 90q-31 0 -82 -51q-52 -52 -82 -111q-36 -69 -27 -112q12 -51 86 -51q9 -14 -7 -35q-18 -23 -56 -23q-81 0 -95 68q-13 60 28 151q40 87 108 150q74 68 143 68q100 0 133 -242q50 -369 69 -452q41 -179 74 -179q16 0 85 39q31 -15 5 -53q-25 -36 -77 -47
q-48 -9 -86.5 34.5t-67.5 140.5q-13 43 -28 111q-104 -6 -210 -10q-96 -187 -182 -187q-75 0 -101 122q-24 116 20 190q17 26 39 29t30 -12q-21 -65 -18 -167q5 -107 37 -107q40 0 101 130h-9q-48 -2 -65 24q-15 23 -2 45q38 -8 101 -12zM496 1157q23 -22 16 -56
q-8 -41 -56 -86q-15 -13 -28 -12q-12 1 -10 12q39 111 47 144q8 20 31 -2z" />
    <glyph glyph-name="uni1EAF" unicode="&#x1eaf;" 
d="M223 568q-25 -24 -59 -24q-33 0 -53 23q-18 19 -18 47q0 23 13 35q12 11 19 4q8 -53 41 -53q40 0 56 58q10 6 21 -3q12 -11 9 -34q-5 -32 -29 -53zM169 77q-26 -83 -80 -83q-45 0 -64 69q-17 63 -6 152q12 88 47 151q41 69 95 69q41 0 62 -25q19 -20 17 -52
q-2 -31 -18 -47q-19 -19 -47 -8q9 31 4 59q-5 27 -20 27q-36 0 -62 -161q-24 -161 8 -161q37 0 64 201q21 10 45 -2q26 -14 24 -42l-5 -104q-3 -43 6 -43q7 0 19 18q30 44 50 106q10 7 21 -11q13 -19 4 -43q-49 -147 -117 -147q-36 0 -47 77zM232 825q23 -22 16 -56
q-8 -41 -56 -86q-15 -13 -28 -12q-12 1 -10 12q39 111 47 144q8 20 31 -2z" />
    <glyph glyph-name="uni1EB0" unicode="&#x1eb0;" horiz-adv-x="656" 
d="M475 881q-25 -24 -58 -24t-53 23q-18 19 -18 47q0 23 12 35q13 11 20 4q8 -53 41 -53q40 0 56 58q11 6 21 -3q12 -11 9 -34q-5 -31 -30 -53zM259 198q78 189 114 361q18 25 38 -13t12 -80q-20 -116 -88 -268q31 0 99 3q59 3 75 2q-17 105 -30 220q-23 185 -32 234
q-19 90 -52 90q-31 0 -82 -51q-52 -52 -82 -111q-36 -69 -27 -112q12 -51 86 -51q9 -14 -7 -35q-18 -23 -56 -23q-81 0 -95 68q-13 60 28 151q40 87 108 150q74 68 143 68q100 0 133 -242q50 -369 69 -452q41 -179 74 -179q16 0 85 39q31 -15 5 -53q-25 -36 -77 -47
q-48 -9 -86.5 34.5t-67.5 140.5q-13 43 -28 111q-104 -6 -210 -10q-96 -187 -182 -187q-75 0 -101 122q-24 116 20 190q17 26 39 29t30 -12q-21 -65 -18 -167q5 -107 37 -107q40 0 101 130h-9q-48 -2 -65 24q-15 23 -2 45q38 -8 101 -12zM445 984q3 -10 -9 -12
q-13 -1 -29 12q-48 45 -56 86q-8 35 17 56q23 21 30 2q14 -51 47 -144z" />
    <glyph glyph-name="uni1EB1" unicode="&#x1eb1;" 
d="M223 568q-25 -24 -59 -24q-33 0 -53 23q-18 19 -18 47q0 23 13 35q12 11 19 4q8 -53 41 -53q40 0 56 58q10 6 21 -3q12 -11 9 -34q-5 -32 -29 -53zM169 77q-26 -83 -80 -83q-45 0 -64 69q-17 63 -6 152q12 88 47 151q41 69 95 69q41 0 62 -25q19 -20 17 -52
q-2 -31 -18 -47q-19 -19 -47 -8q9 31 4 59q-5 27 -20 27q-36 0 -62 -161q-24 -161 8 -161q37 0 64 201q21 10 45 -2q26 -14 24 -42l-5 -104q-3 -43 6 -43q7 0 19 18q30 44 50 106q10 7 21 -11q13 -19 4 -43q-49 -147 -117 -147q-36 0 -47 77zM188 697q3 -11 -9 -12
q-13 -1 -29 12q-48 45 -56 86q-8 35 17 56q23 21 30 2q14 -51 47 -144z" />
    <glyph glyph-name="uni1EB2" unicode="&#x1eb2;" horiz-adv-x="656" 
d="M475 881q-25 -24 -58 -24t-53 23q-18 19 -18 47q0 23 12 35q13 11 20 4q8 -53 41 -53q40 0 56 58q11 6 21 -3q12 -11 9 -34q-5 -31 -30 -53zM259 198q78 189 114 361q18 25 38 -13t12 -80q-20 -116 -88 -268q31 0 99 3q59 3 75 2q-17 105 -30 220q-23 185 -32 234
q-19 90 -52 90q-31 0 -82 -51q-52 -52 -82 -111q-36 -69 -27 -112q12 -51 86 -51q9 -14 -7 -35q-18 -23 -56 -23q-81 0 -95 68q-13 60 28 151q40 87 108 150q74 68 143 68q100 0 133 -242q50 -369 69 -452q41 -179 74 -179q16 0 85 39q31 -15 5 -53q-25 -36 -77 -47
q-48 -9 -86.5 34.5t-67.5 140.5q-13 43 -28 111q-104 -6 -210 -10q-96 -187 -182 -187q-75 0 -101 122q-24 116 20 190q17 26 39 29t30 -12q-21 -65 -18 -167q5 -107 37 -107q40 0 101 130h-9q-48 -2 -65 24q-15 23 -2 45q38 -8 101 -12zM405 1126q11 12 32 15q31 3 49 -17
t14 -56q-4 -32 -45 -87l-42 -5q30 49 27 86q-1 37 -36 46q-7 5 1 18z" />
    <glyph glyph-name="uni1EB5" unicode="&#x1eb5;" 
d="M223 568q-25 -24 -59 -24q-33 0 -53 23q-18 19 -18 47q0 23 13 35q12 11 19 4q8 -53 41 -53q40 0 56 58q10 6 21 -3q12 -11 9 -34q-5 -32 -29 -53zM169 77q-26 -83 -80 -83q-45 0 -64 69q-17 63 -6 152q12 88 47 151q41 69 95 69q41 0 62 -25q19 -20 17 -52
q-2 -31 -18 -47q-19 -19 -47 -8q9 31 4 59q-5 27 -20 27q-36 0 -62 -161q-24 -161 8 -161q37 0 64 201q21 10 45 -2q26 -14 24 -42l-5 -104q-3 -43 6 -43q7 0 19 18q30 44 50 106q10 7 21 -11q13 -19 4 -43q-49 -147 -117 -147q-36 0 -47 77zM233 733q-33 16 -52 -24
q-13 -4 -19 9q-5 12 -1 29q11 47 53 47q3 0 57 -22q31 -12 45 26q16 4 23 -9q6 -13 2 -32q-11 -50 -52 -50q-1 0 -56 26z" />
    <glyph glyph-name="uni1ED5" unicode="&#x1ed5;" horiz-adv-x="270" 
d="M144 620q-32 -50 -47 -68q-10 -10 -24 -7q-12 3 -11 13q32 76 74 131q6 8 15 8t14 -8q58 -129 58 -131q5 -11 -14 -14q-18 -1 -31 16q-19 29 -34 60zM182 188q-34 15 -32 69q1 51 33 56q21 2 34.5 -14.5t18.5 -50.5q51 23 86 77q13 0 13 -25q1 -25 -12 -41
q-41 -50 -86 -68q-6 -78 -36 -135q-35 -66 -86 -66q-55 0 -83 70q-25 59 -20 153q4 89 37 153q36 70 91 70q74 0 80 -62q2 -25 -10 -38q-14 -15 -35 -6q0 15 -7 33q-9 23 -23 23q-47 0 -56 -166q-3 -68 6 -115q9 -52 30 -52q35 0 57 135zM207 794q11 12 32 15q31 3 49 -17
t14 -56q-4 -32 -45 -87l-42 -5q30 49 27 86q-1 37 -36 46q-7 5 1 18z" />
    <glyph glyph-name="uni1ED6" unicode="&#x1ed6;" horiz-adv-x="680" 
d="M393 932q-32 -50 -47 -68q-9 -10 -23 -7q-13 3 -12 13q35 80 74 131q6 8 15 8t14 -8q58 -129 58 -131q5 -11 -13 -14q-19 -2 -32 16q-24 38 -34 60zM196 52q-56 86 -56 216q-80 24 -99 109q-18 78 20 176q37 98 115 167q85 75 188 82q153 11 233 -125q70 -118 66 -302
q-5 -169 -78 -288q-81 -131 -214 -131q-113 0 -175 96zM226 325q34 -3 73 4q13 -20 -1 -40q-13 -22 -47 -27l-28 -3q-1 -106 34 -172q41 -74 122 -74q83 0 142 113q55 105 58 251q4 158 -40 258q-51 116 -158 113q-151 -5 -236 -162q-36 -68 -36 -129q-1 -67 39 -102
q24 138 86 215q28 34 64 40q33 6 34 -13q-84 -68 -106 -272zM440 1050q-33 16 -52 -24q-13 -4 -19 9q-5 12 -1 29q11 47 53 47q3 0 57 -22q31 -12 45 26q16 4 23 -9q6 -13 2 -32q-11 -50 -52 -50q-1 0 -56 26z" />
    <glyph glyph-name="uni1EDC" unicode="&#x1edc;" horiz-adv-x="659" 
d="M203 325q34 -3 73 4q13 -20 -1 -40q-13 -22 -47 -27l-28 -3q-1 -106 34 -172q41 -74 122 -74q83 0 142 113q55 105 58 251q4 158 -40 258q-51 116 -158 113q-151 -5 -236 -162q-36 -68 -36 -129q-2 -67 39 -102q24 138 86 215q28 34 64 40q33 6 34 -13q-84 -68 -106 -272
zM577 692h-12l9 -15q70 -118 66 -302q-4 -169 -78 -288q-81 -131 -214 -131q-114 0 -175 96q-56 86 -56 216q-80 24 -99 109q-18 78 20 176q37 98 115 167q85 75 188 82q131 9 208 -89q20 34 22 61q1 37 -31 50q-6 7 3 17q11 12 34 12q31 0 46 -21q16 -22 8 -58
q-7 -29 -54 -82zM445 868q3 -10 -9 -12q-13 -1 -29 12q-48 45 -56 86q-8 35 17 56q23 21 30 2q14 -51 47 -144z" />
    <glyph glyph-name="uni1EDD" unicode="&#x1edd;" horiz-adv-x="270" 
d="M229 349h-12q-1 -5 -7 -13q-14 -15 -35 -6q0 15 -7 33q-9 23 -23 23q-47 0 -56 -166q-3 -68 6 -115q9 -52 30 -52q35 0 57 135q-34 15 -32 69q1 51 33 56q21 2 34.5 -14.5t18.5 -50.5q51 23 86 77q13 0 13 -25q1 -25 -12 -41q-41 -50 -86 -68q-6 -78 -36 -135
q-35 -66 -86 -66q-55 0 -83 70q-25 59 -20 153q4 89 37 153q36 70 91 70q59 0 75 -40q8 21 8 35q1 37 -31 50q-6 7 3 17q11 12 34 12q31 0 46 -21q16 -22 8 -58q-7 -29 -54 -82zM220 557q3 -11 -9 -12q-13 -1 -29 12q-47 45 -56 86q-6 35 17 56t30 2q14 -51 47 -144z" />
    <glyph glyph-name="uni1EDE" unicode="&#x1ede;" horiz-adv-x="659" 
d="M203 325q34 -3 73 4q13 -20 -1 -40q-13 -22 -47 -27l-28 -3q-1 -106 34 -172q41 -74 122 -74q83 0 142 113q55 105 58 251q4 158 -40 258q-51 116 -158 113q-151 -5 -236 -162q-36 -68 -36 -129q-2 -67 39 -102q24 138 86 215q28 34 64 40q33 6 34 -13q-84 -68 -106 -272
zM577 692h-12l9 -15q70 -118 66 -302q-4 -169 -78 -288q-81 -131 -214 -131q-114 0 -175 96q-56 86 -56 216q-80 24 -99 109q-18 78 20 176q37 98 115 167q85 75 188 82q131 9 208 -89q20 34 22 61q1 37 -31 50q-6 7 3 17q11 12 34 12q31 0 46 -21q16 -22 8 -58
q-7 -29 -54 -82zM349 1019q11 12 32 15q31 3 49 -17t14 -56q-4 -31 -45 -87l-42 -5q30 49 27 86q-1 37 -36 46q-7 5 1 18z" />
    <glyph glyph-name="uni1EDF" unicode="&#x1edf;" horiz-adv-x="270" 
d="M229 349h-12q-1 -5 -7 -13q-14 -15 -35 -6q0 15 -7 33q-9 23 -23 23q-47 0 -56 -166q-3 -68 6 -115q9 -52 30 -52q35 0 57 135q-34 15 -32 69q1 51 33 56q21 2 34.5 -14.5t18.5 -50.5q51 23 86 77q13 0 13 -25q1 -25 -12 -41q-41 -50 -86 -68q-6 -78 -36 -135
q-35 -66 -86 -66q-55 0 -83 70q-25 59 -20 153q4 89 37 153q36 70 91 70q59 0 75 -40q8 21 8 35q1 37 -31 50q-6 7 3 17q11 12 34 12q31 0 46 -21q16 -22 8 -58q-7 -29 -54 -82zM102 676q11 12 32 15q31 3 49 -17t14 -56q-5 -32 -45 -87l-42 -5q30 49 27 86q-1 37 -36 46
q-7 5 1 18z" />
    <glyph glyph-name="uni1EE0" unicode="&#x1ee0;" horiz-adv-x="659" 
d="M203 325q34 -3 73 4q13 -20 -1 -40q-13 -22 -47 -27l-28 -3q-1 -106 34 -172q41 -74 122 -74q83 0 142 113q55 105 58 251q4 158 -40 258q-51 116 -158 113q-151 -5 -236 -162q-36 -68 -36 -129q-2 -67 39 -102q24 138 86 215q28 34 64 40q33 6 34 -13q-84 -68 -106 -272
zM577 692h-12l9 -15q70 -118 66 -302q-4 -169 -78 -288q-81 -131 -214 -131q-114 0 -175 96q-56 86 -56 216q-80 24 -99 109q-18 78 20 176q37 98 115 167q85 75 188 82q131 9 208 -89q20 34 22 61q1 37 -31 50q-6 7 3 17q11 12 34 12q31 0 46 -21q16 -22 8 -58
q-7 -29 -54 -82zM343 924q-33 16 -52 -24q-13 -4 -19 9q-5 12 -1 29q11 47 53 47q3 0 57 -22q31 -12 45 26q16 4 23 -9q6 -13 2 -32q-11 -50 -52 -50q-1 0 -56 26z" />
    <glyph glyph-name="uni1EE1" unicode="&#x1ee1;" horiz-adv-x="270" 
d="M229 349h-12q-1 -5 -7 -13q-14 -15 -35 -6q0 15 -7 33q-9 23 -23 23q-47 0 -56 -166q-3 -68 6 -115q9 -52 30 -52q35 0 57 135q-34 15 -32 69q1 51 33 56q21 2 34.5 -14.5t18.5 -50.5q51 23 86 77q13 0 13 -25q1 -25 -12 -41q-41 -50 -86 -68q-6 -78 -36 -135
q-35 -66 -86 -66q-55 0 -83 70q-25 59 -20 153q4 89 37 153q36 70 91 70q59 0 75 -40q8 21 8 35q1 37 -31 50q-6 7 3 17q11 12 34 12q31 0 46 -21q16 -22 8 -58q-7 -29 -54 -82zM138 597q-33 16 -52 -24q-13 -4 -19 9q-5 12 -1 29q11 47 53 47q3 0 57 -22q31 -12 45 26
q16 4 23 -9q6 -13 2 -32q-11 -50 -52 -50q-1 0 -56 26z" />
    <glyph glyph-name="uni1EE2" unicode="&#x1ee2;" horiz-adv-x="659" 
d="M203 325q34 -3 73 4q13 -20 -1 -40q-13 -22 -47 -27l-28 -3q-1 -106 34 -172q41 -74 122 -74q83 0 142 113q55 105 58 251q4 158 -40 258q-51 116 -158 113q-151 -5 -236 -162q-36 -68 -36 -129q-2 -67 39 -102q24 138 86 215q28 34 64 40q33 6 34 -13q-84 -68 -106 -272
zM577 692h-12l9 -15q70 -118 66 -302q-4 -169 -78 -288q-81 -131 -214 -131q-114 0 -175 96q-56 86 -56 216q-80 24 -99 109q-18 78 20 176q37 98 115 167q85 75 188 82q131 9 208 -89q20 34 22 61q1 37 -31 50q-6 7 3 17q11 12 34 12q31 0 46 -21q16 -22 8 -58
q-7 -29 -54 -82zM331 -219q-8 18 -8 37q2 53 46 53q43 0 29 -65q-9 -42 -47 -42q-12 0 -20 17z" />
    <glyph glyph-name="uni1EE3" unicode="&#x1ee3;" horiz-adv-x="270" 
d="M229 349h-12q-1 -5 -7 -13q-14 -15 -35 -6q0 15 -7 33q-9 23 -23 23q-47 0 -56 -166q-3 -68 6 -115q9 -52 30 -52q35 0 57 135q-34 15 -32 69q1 51 33 56q21 2 34.5 -14.5t18.5 -50.5q51 23 86 77q13 0 13 -25q1 -25 -12 -41q-41 -50 -86 -68q-6 -78 -36 -135
q-35 -66 -86 -66q-55 0 -83 70q-25 59 -20 153q4 89 37 153q36 70 91 70q59 0 75 -40q8 21 8 35q1 37 -31 50q-6 7 3 17q11 12 34 12q31 0 46 -21q16 -22 8 -58q-7 -29 -54 -82zM88 -184q-8 18 -8 37q2 53 46 53q43 0 29 -65q-9 -42 -47 -42q-12 0 -20 17z" />
    <glyph glyph-name="uni1EE4" unicode="&#x1ee4;" horiz-adv-x="724" 
d="M773 -52q28 -16 0 -50q-30 -35 -86 -35q-115 0 -120 294q-75 -207 -201 -207q-59 0 -89 56q-29 56 -23 157l15 187q12 139 14 181q12 211 -37 211q-26 0 -69 -58q-44 -59 -68 -127q-27 -80 -9 -128q22 -58 105 -58q9 -21 -9 -40q-17 -20 -48 -20q-97 0 -124 77
q-24 68 10 168q33 97 98 168q71 77 140 77q52 0 77 -64q27 -70 17 -200l-13 -163q-9 -109 -13 -183q-4 -95 3 -129q9 -42 42 -42q51 0 108 113q50 98 84 238q21 219 51 339q13 51 61 77q19 11 33 9q15 -1 16 -14q-60 -146 -83 -502q-23 -353 27 -353q26 0 91 21zM381 -219
q-8 18 -8 37q2 53 46 53q43 0 29 -65q-9 -42 -47 -42q-12 0 -20 17z" />
    <glyph glyph-name="uni1EE5" unicode="&#x1ee5;" 
d="M162 72q-27 -76 -77 -76q-65 0 -71 129q-5 101 20 214q10 53 45 78q32 25 40 5q-34 -159 -37 -263q-2 -90 20 -90q34 0 57 128q3 72 14 149q4 41 43 66q14 10 25 8q11 0 9 -12q-21 -167 -24.5 -248.5t10.5 -82.5q7 0 19 18q27 39 50 106q9 7 21 -11q12 -19 4 -43
q-50 -147 -121 -147q-35 0 -47 72zM88 -184q-8 18 -8 37q2 53 46 53q43 0 29 -65q-9 -42 -47 -42q-12 0 -20 17z" />
    <glyph glyph-name="uni1EE6" unicode="&#x1ee6;" horiz-adv-x="724" 
d="M773 -52q28 -16 0 -50q-30 -35 -86 -35q-115 0 -120 294q-75 -207 -201 -207q-59 0 -89 56q-29 56 -23 157l15 187q12 139 14 181q12 211 -37 211q-26 0 -69 -58q-44 -59 -68 -127q-27 -80 -9 -128q22 -58 105 -58q9 -21 -9 -40q-17 -20 -48 -20q-97 0 -124 77
q-24 68 10 168q33 97 98 168q71 77 140 77q52 0 77 -64q27 -70 17 -200l-13 -163q-9 -109 -13 -183q-4 -95 3 -129q9 -42 42 -42q51 0 108 113q50 98 84 238q21 219 51 339q13 51 61 77q19 11 33 9q15 -1 16 -14q-60 -146 -83 -502q-23 -353 27 -353q26 0 91 21zM470 1021
q11 12 32 15q31 3 49 -17t14 -56q-5 -31 -45 -87l-42 -5q30 49 27 86q-1 37 -36 46q-7 5 1 18z" />
    <glyph glyph-name="uni1EE7" unicode="&#x1ee7;" 
d="M162 72q-27 -76 -77 -76q-65 0 -71 129q-5 101 20 214q10 53 45 78q32 25 40 5q-34 -159 -37 -263q-2 -90 20 -90q34 0 57 128q3 72 14 149q4 41 43 66q14 10 25 8q11 0 9 -12q-21 -167 -24.5 -248.5t10.5 -82.5q7 0 19 18q27 39 50 106q9 7 21 -11q12 -19 4 -43
q-50 -147 -121 -147q-35 0 -47 72zM126 663q11 12 32 15q31 3 49 -17t14 -56q-5 -31 -45 -87l-42 -5q30 49 27 86q-1 37 -36 46q-7 5 1 18z" />
    <glyph glyph-name="uni1EE8" unicode="&#x1ee8;" horiz-adv-x="724" 
d="M753 758h-24q-55 -153 -74 -478q-23 -353 27 -353q26 0 91 21q28 -16 0 -50q-30 -35 -86 -35q-115 0 -120 294q-75 -207 -201 -207q-59 0 -89 56q-29 56 -23 157l15 187q12 139 14 181q12 211 -37 211q-26 0 -69 -58q-44 -59 -68 -127q-27 -80 -9 -128q22 -58 105 -58
q9 -21 -9 -40q-17 -20 -48 -20q-97 0 -124 77q-24 68 10 168q33 97 98 168q71 77 140 77q52 0 77 -64q27 -70 17 -200l-13 -163q-9 -109 -13 -183q-4 -95 3 -129q9 -42 42 -42q51 0 108 113q50 98 84 238q21 219 51 339q13 51 61 77q19 11 33 9q6 0 11 -3q12 23 14 47
q1 37 -31 50q-6 7 3 17q11 12 34 12q31 0 46 -21q16 -22 8 -58q-7 -29 -54 -82zM546 1076q23 -22 16 -56q-8 -41 -56 -86q-15 -13 -28 -12q-12 1 -10 12q39 111 47 144q8 20 31 -2z" />
    <glyph glyph-name="uni1EE9" unicode="&#x1ee9;" 
d="M244 344h-2q-32 -267 -6 -267q7 0 19 18q27 39 50 106q9 7 21 -11q12 -19 4 -43q-50 -147 -121 -147q-35 0 -47 72q-27 -76 -77 -76q-65 0 -71 129q-5 101 20 214q10 53 45 78q32 25 40 5q-34 -159 -37 -263q-2 -90 20 -90q34 0 57 128q3 72 14 149q4 41 43 66q13 8 22 8
v6q1 37 -31 50q-6 7 3 17q10 12 34 12q31 0 46 -21q16 -22 8 -58q-7 -29 -54 -82zM222 699q23 -22 16 -56q-8 -41 -56 -86q-15 -13 -28 -12q-12 1 -10 12q39 111 47 144q8 20 31 -2z" />
    <glyph glyph-name="uni1EEA" unicode="&#x1eea;" horiz-adv-x="724" 
d="M753 758h-24q-55 -153 -74 -478q-23 -353 27 -353q26 0 91 21q28 -16 0 -50q-30 -35 -86 -35q-115 0 -120 294q-75 -207 -201 -207q-59 0 -89 56q-29 56 -23 157l15 187q12 139 14 181q12 211 -37 211q-26 0 -69 -58q-44 -59 -68 -127q-27 -80 -9 -128q22 -58 105 -58
q9 -21 -9 -40q-17 -20 -48 -20q-97 0 -124 77q-24 68 10 168q33 97 98 168q71 77 140 77q52 0 77 -64q27 -70 17 -200l-13 -163q-9 -109 -13 -183q-4 -95 3 -129q9 -42 42 -42q51 0 108 113q50 98 84 238q21 219 51 339q13 51 61 77q19 11 33 9q6 0 11 -3q12 23 14 47
q1 37 -31 50q-6 7 3 17q11 12 34 12q31 0 46 -21q16 -22 8 -58q-7 -29 -54 -82zM530 868q3 -10 -9 -12q-13 -1 -29 12q-47 45 -56 86q-6 35 17 56t30 2q14 -51 47 -144z" />
    <glyph glyph-name="uni1EEB" unicode="&#x1eeb;" 
d="M244 344h-2q-32 -267 -6 -267q7 0 19 18q27 39 50 106q9 7 21 -11q12 -19 4 -43q-50 -147 -121 -147q-35 0 -47 72q-27 -76 -77 -76q-65 0 -71 129q-5 101 20 214q10 53 45 78q32 25 40 5q-34 -159 -37 -263q-2 -90 20 -90q34 0 57 128q3 72 14 149q4 41 43 66q13 8 22 8
v6q1 37 -31 50q-6 7 3 17q10 12 34 12q31 0 46 -21q16 -22 8 -58q-7 -29 -54 -82zM203 566q3 -10 -9 -12q-13 -1 -29 12q-48 45 -56 86q-8 35 17 56q23 21 30 2q14 -51 47 -144z" />
    <glyph glyph-name="uni1EEC" unicode="&#x1eec;" horiz-adv-x="724" 
d="M753 758h-24q-55 -153 -74 -478q-23 -353 27 -353q26 0 91 21q28 -16 0 -50q-30 -35 -86 -35q-115 0 -120 294q-75 -207 -201 -207q-59 0 -89 56q-29 56 -23 157l15 187q12 139 14 181q12 211 -37 211q-26 0 -69 -58q-44 -59 -68 -127q-27 -80 -9 -128q22 -58 105 -58
q9 -21 -9 -40q-17 -20 -48 -20q-97 0 -124 77q-24 68 10 168q33 97 98 168q71 77 140 77q52 0 77 -64q27 -70 17 -200l-13 -163q-9 -109 -13 -183q-4 -95 3 -129q9 -42 42 -42q51 0 108 113q50 98 84 238q21 219 51 339q13 51 61 77q19 11 33 9q6 0 11 -3q12 23 14 47
q1 37 -31 50q-6 7 3 17q11 12 34 12q31 0 46 -21q16 -22 8 -58q-7 -29 -54 -82zM470 1021q11 12 32 15q31 3 49 -17t14 -56q-5 -31 -45 -87l-42 -5q30 49 27 86q-1 37 -36 46q-7 5 1 18z" />
    <glyph glyph-name="uni1EED" unicode="&#x1eed;" 
d="M244 344h-2q-32 -267 -6 -267q7 0 19 18q27 39 50 106q9 7 21 -11q12 -19 4 -43q-50 -147 -121 -147q-35 0 -47 72q-27 -76 -77 -76q-65 0 -71 129q-5 101 20 214q10 53 45 78q32 25 40 5q-34 -159 -37 -263q-2 -90 20 -90q34 0 57 128q3 72 14 149q4 41 43 66q13 8 22 8
v6q1 37 -31 50q-6 7 3 17q10 12 34 12q31 0 46 -21q16 -22 8 -58q-7 -29 -54 -82zM112 683q11 12 32 15q31 3 49 -17t14 -56q-5 -31 -45 -87l-42 -5q30 49 27 86q-1 37 -36 46q-7 5 1 18z" />
    <glyph glyph-name="uni1EEE" unicode="&#x1eee;" horiz-adv-x="724" 
d="M753 758h-24q-55 -153 -74 -478q-23 -353 27 -353q26 0 91 21q28 -16 0 -50q-30 -35 -86 -35q-115 0 -120 294q-75 -207 -201 -207q-59 0 -89 56q-29 56 -23 157l15 187q12 139 14 181q12 211 -37 211q-26 0 -69 -58q-44 -59 -68 -127q-27 -80 -9 -128q22 -58 105 -58
q9 -21 -9 -40q-17 -20 -48 -20q-97 0 -124 77q-24 68 10 168q33 97 98 168q71 77 140 77q52 0 77 -64q27 -70 17 -200l-13 -163q-9 -109 -13 -183q-4 -95 3 -129q9 -42 42 -42q51 0 108 113q50 98 84 238q21 219 51 339q13 51 61 77q19 11 33 9q6 0 11 -3q12 23 14 47
q1 37 -31 50q-6 7 3 17q11 12 34 12q31 0 46 -21q16 -22 8 -58q-7 -29 -54 -82zM489 924q-33 16 -52 -24q-13 -4 -19 9q-5 12 -1 29q11 47 53 47q3 0 57 -22q31 -12 45 26q16 4 23 -9q6 -13 2 -32q-11 -50 -52 -50q-1 0 -56 26z" />
    <glyph glyph-name="uni1EEF" unicode="&#x1eef;" 
d="M244 344h-2q-32 -267 -6 -267q7 0 19 18q27 39 50 106q9 7 21 -11q12 -19 4 -43q-50 -147 -121 -147q-35 0 -47 72q-27 -76 -77 -76q-65 0 -71 129q-5 101 20 214q10 53 45 78q32 25 40 5q-34 -159 -37 -263q-2 -90 20 -90q34 0 57 128q3 72 14 149q4 41 43 66q13 8 22 8
v6q1 37 -31 50q-6 7 3 17q10 12 34 12q31 0 46 -21q16 -22 8 -58q-7 -29 -54 -82zM138 597q-33 16 -52 -24q-13 -4 -19 9q-5 12 -1 29q11 47 53 47q3 0 57 -22q31 -12 45 26q16 4 23 -9q6 -13 2 -32q-11 -50 -52 -50q-1 0 -56 26z" />
    <glyph glyph-name="uni1EF0" unicode="&#x1ef0;" horiz-adv-x="724" 
d="M753 758h-24q-55 -153 -74 -478q-23 -353 27 -353q26 0 91 21q28 -16 0 -50q-30 -35 -86 -35q-115 0 -120 294q-75 -207 -201 -207q-59 0 -89 56q-29 56 -23 157l15 187q12 139 14 181q12 211 -37 211q-26 0 -69 -58q-44 -59 -68 -127q-27 -80 -9 -128q22 -58 105 -58
q9 -21 -9 -40q-17 -20 -48 -20q-97 0 -124 77q-24 68 10 168q33 97 98 168q71 77 140 77q52 0 77 -64q27 -70 17 -200l-13 -163q-9 -109 -13 -183q-4 -95 3 -129q9 -42 42 -42q51 0 108 113q50 98 84 238q21 219 51 339q13 51 61 77q19 11 33 9q6 0 11 -3q12 23 14 47
q1 37 -31 50q-6 7 3 17q11 12 34 12q31 0 46 -21q16 -22 8 -58q-7 -29 -54 -82zM381 -219q-8 18 -8 37q2 53 46 53q43 0 29 -65q-9 -42 -47 -42q-12 0 -20 17z" />
    <glyph glyph-name="uni1EF1" unicode="&#x1ef1;" 
d="M244 344h-2q-32 -267 -6 -267q7 0 19 18q27 39 50 106q9 7 21 -11q12 -19 4 -43q-50 -147 -121 -147q-35 0 -47 72q-27 -76 -77 -76q-65 0 -71 129q-5 101 20 214q10 53 45 78q32 25 40 5q-34 -159 -37 -263q-2 -90 20 -90q34 0 57 128q3 72 14 149q4 41 43 66q13 8 22 8
v6q1 37 -31 50q-6 7 3 17q10 12 34 12q31 0 46 -21q16 -22 8 -58q-7 -29 -54 -82zM88 -184q-8 18 -8 37q2 53 46 53q43 0 29 -65q-9 -42 -47 -42q-12 0 -20 17z" />
    <glyph glyph-name="Ygrave" unicode="&#x1ef2;" horiz-adv-x="694" 
d="M500 196q51 107 85 259q18 152 43 255q13 51 61 77q19 11 33 9q15 -1 16 -14q-57 -136 -90 -572q-20 -287 -33 -374q-23 -156 -133 -156q-145 0 -218 145q-23 47 -1 90q20 41 49 27q34 -100 84 -156q46 -52 94 -52q38 0 53 171q23 252 29 288l-5 -9v10
q-79 -195 -201 -195q-59 0 -89 56q-29 56 -23 157q5 63 15 163q12 110 14 156q12 211 -37 211q-26 0 -69 -58q-44 -59 -68 -127q-27 -80 -9 -128q22 -58 105 -58q9 -21 -9 -40q-17 -20 -48 -20q-97 0 -124 77q-24 68 10 168q33 97 98 168q71 77 140 77q52 0 77 -64
q27 -70 17 -200l-13 -138q-9 -93 -13 -159q-4 -94 3 -129q9 -42 42 -42q55 0 115 127zM530 868q3 -10 -9 -12q-13 -1 -29 12q-47 45 -56 86q-6 35 17 56t30 2q14 -51 47 -144z" />
    <glyph glyph-name="ygrave" unicode="&#x1ef3;" horiz-adv-x="283" 
d="M166 220q4 84 11 126q6 42 43 66q16 9 25 8q11 0 9 -12q-22 -161 -29 -351q65 55 84 144q9 7 20 -10q13 -18 5 -43q-39 -114 -109 -153q-3 -345 -110 -345q-52 0 -94 50q-41 47 -49 110q-7 66 34 110q50 52 152 53v10q0 55 1 78q-25 -63 -72 -63q-63 0 -71 122
q-5 94 20 206q10 52 46 78q31 25 39 5q-34 -159 -37 -256q-1 -82 20 -82q42 0 62 149zM157 -73q-120 -6 -109 -113q5 -39 25 -73q19 -33 37 -34q44 -2 47 220zM203 566q3 -10 -9 -12q-13 -1 -29 12q-48 45 -56 86q-8 35 17 56q23 21 30 2q14 -51 47 -144z" />
    <glyph glyph-name="uni1EF4" unicode="&#x1ef4;" horiz-adv-x="694" 
d="M500 196q51 107 85 259q18 152 43 255q13 51 61 77q19 11 33 9q15 -1 16 -14q-57 -136 -90 -572q-20 -287 -33 -374q-23 -156 -133 -156q-145 0 -218 145q-23 47 -1 90q20 41 49 27q34 -100 84 -156q46 -52 94 -52q38 0 53 171q23 252 29 288l-5 -9v10
q-79 -195 -201 -195q-59 0 -89 56q-29 56 -23 157q5 63 15 163q12 110 14 156q12 211 -37 211q-26 0 -69 -58q-44 -59 -68 -127q-27 -80 -9 -128q22 -58 105 -58q9 -21 -9 -40q-17 -20 -48 -20q-97 0 -124 77q-24 68 10 168q33 97 98 168q71 77 140 77q52 0 77 -64
q27 -70 17 -200l-13 -138q-9 -93 -13 -159q-4 -94 3 -129q9 -42 42 -42q55 0 115 127zM432 -476q-8 18 -8 37q2 53 46 53q43 0 29 -65q-9 -42 -47 -42q-12 0 -20 17z" />
    <glyph glyph-name="uni1EF5" unicode="&#x1ef5;" horiz-adv-x="283" 
d="M166 220q4 84 11 126q6 42 43 66q16 9 25 8q11 0 9 -12q-22 -161 -29 -351q65 55 84 144q9 7 20 -10q13 -18 5 -43q-39 -114 -109 -153q-3 -345 -110 -345q-52 0 -94 50q-41 47 -49 110q-7 66 34 110q50 52 152 53v10q0 55 1 78q-25 -63 -72 -63q-63 0 -71 122
q-5 94 20 206q10 52 46 78q31 25 39 5q-34 -159 -37 -256q-1 -82 20 -82q42 0 62 149zM157 -73q-120 -6 -109 -113q5 -39 25 -73q19 -33 37 -34q44 -2 47 220zM269 -144q-8 18 -8 37q2 53 46 53q43 0 29 -65q-9 -42 -47 -42q-12 0 -20 17z" />
    <glyph glyph-name="uni1EF6" unicode="&#x1ef6;" horiz-adv-x="694" 
d="M500 196q51 107 85 259q18 152 43 255q13 51 61 77q19 11 33 9q15 -1 16 -14q-57 -136 -90 -572q-20 -287 -33 -374q-23 -156 -133 -156q-145 0 -218 145q-23 47 -1 90q20 41 49 27q34 -100 84 -156q46 -52 94 -52q38 0 53 171q23 252 29 288l-5 -9v10
q-79 -195 -201 -195q-59 0 -89 56q-29 56 -23 157q5 63 15 163q12 110 14 156q12 211 -37 211q-26 0 -69 -58q-44 -59 -68 -127q-27 -80 -9 -128q22 -58 105 -58q9 -21 -9 -40q-17 -20 -48 -20q-97 0 -124 77q-24 68 10 168q33 97 98 168q71 77 140 77q52 0 77 -64
q27 -70 17 -200l-13 -138q-9 -93 -13 -159q-4 -94 3 -129q9 -42 42 -42q55 0 115 127zM470 1021q11 12 32 15q31 3 49 -17t14 -56q-5 -31 -45 -87l-42 -5q30 49 27 86q-1 37 -36 46q-7 5 1 18z" />
    <glyph glyph-name="uni1EF7" unicode="&#x1ef7;" horiz-adv-x="283" 
d="M166 220q4 84 11 126q6 42 43 66q16 9 25 8q11 0 9 -12q-22 -161 -29 -351q65 55 84 144q9 7 20 -10q13 -18 5 -43q-39 -114 -109 -153q-3 -345 -110 -345q-52 0 -94 50q-41 47 -49 110q-7 66 34 110q50 52 152 53v10q0 55 1 78q-25 -63 -72 -63q-63 0 -71 122
q-5 94 20 206q10 52 46 78q31 25 39 5q-34 -159 -37 -256q-1 -82 20 -82q42 0 62 149zM157 -73q-120 -6 -109 -113q5 -39 25 -73q19 -33 37 -34q44 -2 47 220zM126 663q11 12 32 15q31 3 49 -17t14 -56q-5 -31 -45 -87l-42 -5q30 49 27 86q-1 37 -36 46q-7 5 1 18z" />
    <glyph glyph-name="uni1EF8" unicode="&#x1ef8;" horiz-adv-x="694" 
d="M500 196q51 107 85 259q18 152 43 255q13 51 61 77q19 11 33 9q15 -1 16 -14q-57 -136 -90 -572q-20 -287 -33 -374q-23 -156 -133 -156q-145 0 -218 145q-23 47 -1 90q20 41 49 27q34 -100 84 -156q46 -52 94 -52q38 0 53 171q23 252 29 288l-5 -9v10
q-79 -195 -201 -195q-59 0 -89 56q-29 56 -23 157q5 63 15 163q12 110 14 156q12 211 -37 211q-26 0 -69 -58q-44 -59 -68 -127q-27 -80 -9 -128q22 -58 105 -58q9 -21 -9 -40q-17 -20 -48 -20q-97 0 -124 77q-24 68 10 168q33 97 98 168q71 77 140 77q52 0 77 -64
q27 -70 17 -200l-13 -138q-9 -93 -13 -159q-4 -94 3 -129q9 -42 42 -42q55 0 115 127zM489 924q-33 16 -52 -24q-13 -4 -19 9q-5 12 -1 29q11 47 53 47q3 0 57 -22q31 -12 45 26q16 4 23 -9q6 -13 2 -32q-11 -50 -52 -50q-1 0 -56 26z" />
    <glyph glyph-name="uni1EF9" unicode="&#x1ef9;" horiz-adv-x="283" 
d="M166 220q4 84 11 126q6 42 43 66q16 9 25 8q11 0 9 -12q-22 -161 -29 -351q65 55 84 144q9 7 20 -10q13 -18 5 -43q-39 -114 -109 -153q-3 -345 -110 -345q-52 0 -94 50q-41 47 -49 110q-7 66 34 110q50 52 152 53v10q0 55 1 78q-25 -63 -72 -63q-63 0 -71 122
q-5 94 20 206q10 52 46 78q31 25 39 5q-34 -159 -37 -256q-1 -82 20 -82q42 0 62 149zM157 -73q-120 -6 -109 -113q5 -39 25 -73q19 -33 37 -34q44 -2 47 220zM133 562q-33 16 -52 -24q-13 -4 -19 9q-5 12 -1 29q11 47 53 47q3 0 57 -22q31 -12 45 26q16 4 23 -9
q6 -13 2 -32q-11 -50 -52 -50q-1 0 -56 26z" />
    <glyph glyph-name="endash" unicode="&#x2013;" horiz-adv-x="468" 
d="M129 210q-30 4 -45 30q-13 25 2 32q255 -8 289 -11q30 -1 41 -19q10 -16 0 -29q-215 -12 -287 -3z" />
    <glyph glyph-name="emdash" unicode="&#x2014;" horiz-adv-x="518" 
d="M129 210q-30 4 -45 30q-13 25 2 32q338 -11 339 -11q30 -1 41 -19q10 -16 0 -29q-249 -13 -337 -3z" />
    <glyph glyph-name="quotedblbase" unicode="&#x201e;" horiz-adv-x="304" 
d="M80 31q-11 8 3 40q13 34 35 34q20 0 31 -17q12 -19 3 -50q-28 -85 -56 -85q-9 0 -14 14q11 48 -2 64zM178 31q-11 8 3 40q13 34 35 34q20 0 31 -17q12 -19 3 -50q-28 -85 -56 -85q-9 0 -14 14q11 48 -2 64z" />
    <glyph glyph-name="dagger" unicode="&#x2020;" horiz-adv-x="358" 
d="M230 486q-36 -446 -39 -640q0 -10 -23 -1q-22 7 -27 37q-11 72 26 604q-44 0 -58 2q-30 4 -45 30q-13 25 2 32l105 -4q12 177 16 191q7 37 39 61q31 25 35 1q-13 -87 -26 -256l65 -4q30 -1 41 -19q10 -16 0 -29q-37 -3 -111 -5z" />
    <glyph glyph-name="daggerdbl" unicode="&#x2021;" horiz-adv-x="417" 
d="M245 72q-9 -150 -10 -226q0 -10 -23 -1q-22 7 -27 37q-5 37 2 190q-24 0 -48 2q-30 4 -45 30q-13 25 2 32q26 -1 94 -4l21 354q-44 0 -58 2q-30 4 -45 30q-13 25 2 32l105 -4q12 177 16 191q7 37 39 61q31 25 35 1q-13 -87 -26 -256l65 -4q30 -1 41 -19q10 -16 0 -29
q-37 -3 -111 -5q-13 -158 -25 -356l81 -5q30 -1 41 -19q10 -16 0 -29q-76 -4 -126 -5z" />
    <glyph glyph-name="bullet" unicode="&#x2022;" horiz-adv-x="266" 
d="M118 189q-11 22 -11 47q-1 67 53 67q25 0 38 -19q15 -23 8 -60q-11 -56 -64 -56q-14 0 -24 21z" />
    <glyph glyph-name="ellipsis" unicode="&#x2026;" horiz-adv-x="539" 
d="M88 12q-8 18 -8 37q2 53 46 53q43 0 29 -65q-9 -42 -47 -42q-12 0 -20 17zM251 12q-8 18 -8 37q2 53 46 53q43 0 29 -65q-9 -42 -47 -42q-12 0 -20 17zM414 12q-8 18 -8 37q2 53 46 53q43 0 29 -65q-9 -42 -47 -42q-12 0 -20 17z" />
    <glyph glyph-name="perthousand" unicode="&#x2030;" horiz-adv-x="743" 
d="M495 701q13 1 20 -4t2 -16q-275 -401 -387 -678q-3 -7 -11 -1q-8 8 -8 27q0 8 5 30q73 267 314 597q28 40 65 45zM83 419q-24 40 -22 100t30 100q30 45 80 45q45 0 70 -45q22 -40 19 -100q-1 -58 -28 -100q-28 -45 -72 -45q-48 0 -77 45zM121 520q-5 -93 41 -93
q38 0 41 93q2 92 -35 92q-42 0 -47 -92zM316 56q-24 40 -22 100t30 100q30 45 80 45q44 0 70 -45q22 -40 19 -100q-1 -58 -28 -100q-29 -45 -72 -45q-49 0 -77 45zM354 157q-4 -93 41 -93q38 0 41 93q2 92 -35 92q-42 0 -47 -92zM542 56q-24 40 -22 100t30 100q30 45 80 45
q44 0 70 -45q22 -40 19 -100q-1 -58 -28 -100q-29 -45 -72 -45q-49 0 -77 45zM580 157q-4 -93 41 -93q38 0 41 93q2 92 -35 92q-42 0 -47 -92z" />
    <glyph glyph-name="guilsinglleft" unicode="&#x2039;" horiz-adv-x="305" 
d="M153 255q66 -38 95 -92q21 -42 2 -70q-17 -25 -41 -17q-49 107 -128 154q-36 20 -3 39q58 31 113 81q52 48 60 71q33 11 44 -24q11 -38 -26 -72q-42 -38 -116 -70z" />
    <glyph glyph-name="guilsinglright" unicode="&#x203a;" horiz-adv-x="320" 
d="M116 403q17 25 41 17q49 -107 128 -154q36 -20 3 -39q-58 -31 -113 -81q-52 -48 -60 -71q-33 -11 -44 24q-11 38 26 72q41 38 116 70q-69 39 -95 92q-21 42 -2 70z" />
    <glyph glyph-name="fraction" unicode="&#x2044;" horiz-adv-x="395" 
d="M474 778q13 1 22 -4q7 -5 2 -16q-205 -299 -409 -799q-1 -3 -7 -3q-5 0 -10 5q-13 14 -2 54q33 118 165 395q125 261 171 323q30 40 68 45z" />
    <glyph glyph-name="Euro" unicode="&#x20ac;" horiz-adv-x="389" 
d="M275 356l-124 -8l-4 -33q49 1 83 0q27 -1 36 -18q8 -13 0 -24l-121 -8q0 -146 80 -146q39 0 72 42q31 41 42 102q29 3 36 -27q6 -27 -11 -67q-46 -100 -153 -100q-67 0 -105 57q-33 52 -36 138q-6 0 -7 1q-29 3 -39 24q-9 18 3 27q11 -1 44 -1q0 15 3 32q-1 0 -2 1
q-28 3 -39 24q-9 18 3 27q11 -1 47 -1q23 99 70 163q52 70 120 70q73 0 100 -59q23 -51 3 -104q-7 -18 -26 -24t-37 6q20 52 7 91q-13 40 -47 40q-35 0 -66 -55q-30 -54 -46 -128q45 2 78 0q27 -2 36 -18q7 -14 0 -24z" />
    <glyph glyph-name="minus" unicode="&#x2212;" horiz-adv-x="413" 
d="M129 210q-29 3 -44 32q-15 28 1 35q157 -5 234 -11q28 -1 41 -22q10 -18 0 -31q-177 -10 -232 -3z" />
    <glyph glyph-name="uni2215" unicode="&#x2215;" horiz-adv-x="395" 
d="M474 778q13 1 22 -4q7 -5 2 -16q-205 -299 -409 -799q-1 -3 -7 -3q-5 0 -10 5q-13 14 -2 54q33 118 165 395q125 261 171 323q30 40 68 45z" />
    <glyph glyph-name="f_f" unicode="&#xfb00;" horiz-adv-x="476" 
d="M356 638q14 9 24 9q11 2 11 -8q-26 -127 -44 -293q-2 -12 -7 -73q25 -6 47 -23q6 0 7 1q87 17 150 72q14 2 17 -15q2 -18 -10 -28q-47 -45 -128 -73q57 -103 21 -271q-15 -71 -44 -117q-31 -49 -66 -49q-58 0 -72 167q-9 125 7 309q-39 -26 -84 -39q57 -119 19 -266
q-38 -141 -108 -141q-94 0 -70 386q-29 11 -24 40t31 42q21 246 45 340q7 38 44 61q14 9 24 9q11 2 11 -8q-34 -155 -55 -397q25 -6 47 -23q6 0 7 1q58 10 118 48q19 209 38 278q7 38 44 61zM365 190l-32 -6q-24 -352 18 -352q21 0 32 152q11 156 -18 206zM127 190l-32 -6
q-22 -322 18 -322q21 0 33 104q14 120 -19 224z" />
    <glyph glyph-name="fi" unicode="&#xfb01;" horiz-adv-x="382" 
d="M261 241q-36 -20 -76 -34q57 -103 21 -271q-15 -71 -44 -117q-31 -49 -66 -49q-96 0 -70 416q-29 11 -24 40t31 42q21 246 45 340q7 38 44 61q14 9 24 9q11 2 11 -8q-34 -155 -55 -397q25 -6 47 -23q6 0 7 1q56 11 110 44l7 51q4 41 43 66q14 9 24 8q12 0 10 -12
q-21 -167 -24.5 -248.5t10.5 -82.5q7 0 19 18q27 39 50 106q9 8 20 -11q13 -18 5 -43q-50 -147 -121 -147q-67 0 -48 241zM127 190l-32 -6q-24 -352 18 -352q21 0 32 152q11 156 -18 206zM301 634q6 37 40 55q32 19 37 -5q-4 -30 -20 -111q-8 -45 -36 -45q-40 0 -21 106z
" />
    <glyph glyph-name="fl" unicode="&#xfb02;" horiz-adv-x="451" 
d="M128 669q14 9 24 9q11 2 11 -8q-33 -153 -56 -411q54 -10 82 -61q25 3 74 26q0 14 4 75q12 168 43 294q39 156 87 160q41 2 55 -78q13 -70 1 -178q-14 -108 -43 -183q-34 -84 -76 -88q-4 -169 38 -169q64 0 111 144q9 7 20 -10q10 -19 3 -44q-25 -76 -69 -118
q-40 -38 -83 -38q-86 0 -90 184q-26 -18 -55 -23q35 -110 -3 -245q-38 -137 -104 -137q-97 0 -69 424q-20 17 -17 34q3 16 22 25q23 270 46 355q7 38 44 61zM100 161q-23 -329 19 -329q18 0 30 120q13 123 -2 199q-15 1 -47 10zM336 278l-1 -11q39 54 61 243q22 187 0 187
q-15 0 -37 -175q-20 -160 -23 -244z" />
    <glyph glyph-name="f_f_i" unicode="&#xfb03;" horiz-adv-x="620" 
d="M499 241q-36 -20 -76 -34q57 -103 21 -271q-15 -71 -44 -117q-31 -49 -66 -49q-96 0 -70 416q-32 11 -24 44q-33 -16 -55 -23q57 -103 21 -271q-15 -71 -44 -117q-31 -49 -66 -49q-96 0 -70 416q-29 11 -24 40t31 42q21 246 45 340q7 38 44 61q14 9 24 9q11 2 11 -8
q-34 -155 -55 -397q25 -6 47 -23q6 0 7 1q57 11 117 48q21 231 43 309q7 38 44 61q14 9 24 9q11 2 11 -8q-34 -155 -55 -397q25 -6 47 -23q6 0 7 1q56 11 110 44l7 51q4 41 43 66q14 9 24 8q12 0 10 -12q-21 -167 -24.5 -248.5t10.5 -82.5q7 0 19 18q27 39 50 106
q9 8 20 -11q13 -18 5 -43q-50 -147 -121 -147q-67 0 -48 241zM365 190l-32 -6q-24 -352 18 -352q21 0 32 152q11 156 -18 206zM127 190l-32 -6q-24 -352 18 -352q21 0 32 152q11 156 -18 206zM539 634q6 37 40 55q32 19 37 -5q-4 -30 -20 -111q-8 -45 -36 -45q-40 0 -21 106
z" />
    <glyph glyph-name="f_f_l" unicode="&#xfb04;" horiz-adv-x="689" 
d="M683 675q13 -70 1 -178t-43 -183q-34 -83 -75 -88q-6 -173 39 -173q61 0 110 148q8 7 19 -10q11 -20 4 -44q-25 -76 -69 -118q-41 -38 -83 -38q-98 0 -90 248q-34 -20 -73 -32q57 -103 21 -271q-15 -71 -44 -117q-31 -49 -66 -49q-96 0 -70 416q-32 11 -24 44
q-33 -16 -55 -23q57 -103 21 -271q-15 -71 -44 -117q-31 -49 -66 -49q-96 0 -70 416q-29 11 -24 40t31 42q21 246 45 340q7 38 44 61q14 9 24 9q11 2 11 -8q-34 -155 -55 -397q25 -6 47 -23q6 0 7 1q57 11 117 48q21 231 43 309q7 38 44 61q14 9 24 9q11 2 11 -8
q-34 -155 -55 -397q25 -6 47 -23q6 0 7 1q53 11 104 40l1 8q10 159 43 294q38 156 87 160q41 1 54 -78zM365 190l-32 -6q-24 -352 18 -352q21 0 32 152q11 156 -18 206zM127 190l-32 -6q-24 -352 18 -352q21 0 32 152q11 156 -18 206zM568 278l-1 -11q37 52 61 243
q22 187 0 187q-16 0 -38 -175q-21 -163 -22 -244z" />
    <glyph glyph-name="_11" horiz-adv-x="0" 
 />
    <glyph glyph-name="_223" horiz-adv-x="499" 
d="M547 190q12 -19 3 -43q-56 -153 -136 -153q-64 0 -72 108q-6 110 55 235q-25 -3 -47 -1q-33 -82 -105 -95q-6 -93 -41 -165q-39 -76 -93 -76q-101 0 -94 226q10 299 55 471q9 37 41 60t38 2q-57 -287 -62 -538q-4 -160 24 -160q21 0 41 63q19 57 25 130q-43 33 -46 98
q-5 65 35 65q22 0 44 -34q26 -39 32 -89q35 10 63 55q-41 24 -47 78q-4 44 16 98q19 49 46 70q29 23 43 -5q19 -32 -4 -190q39 0 61 12q25 -6 44 -40q23 -38 5 -61q-36 -46 -53 -146q-16 -100 16 -100q44 0 92 136q9 7 21 -11zM324 515q-16 0 -21 -47q-6 -48 16 -61
q8 55 9.5 81t-4.5 27z" />
    <glyph glyph-name="_267" horiz-adv-x="795" 
d="M259 198q78 189 114 361q18 25 38 -13t12 -80q-20 -116 -88 -268q31 0 99 3q59 3 75 2h1q-11 56 -31 220q-23 185 -32 234q-19 90 -52 90q-31 0 -82 -51q-52 -52 -82 -111q-36 -69 -27 -112q12 -51 86 -51q9 -14 -7 -35q-18 -23 -56 -23q-81 0 -95 68q-13 60 28 151
q40 87 108 150q74 68 143 68q100 0 133 -242q44 -329 62 -407q41 -179 74 -179h1v10q0 253 19 363q6 42 44 66q14 9 24 8q10 0 9 -12q-22 -161 -29 -351q64 55 84 144q9 7 21 -10q12 -19 4 -43q-39 -114 -109 -153q-3 -345 -110 -345q-45 0 -85 40q-40 38 -53 93
q-15 58 6 104q24 52 90 73q-32 42 -57 127q-15 47 -19 66q-107 -6 -212 -10q-96 -187 -182 -187q-75 0 -101 122q-24 116 20 190q17 26 39 29t30 -12q-21 -65 -18 -167q5 -107 37 -107q40 0 101 130h-9q-48 -2 -65 24q-15 23 -2 45q38 -8 101 -12zM639 -80q-83 -26 -65 -120
q6 -37 25 -64q17 -27 34 -29q42 -2 47 204q-21 -2 -41 9zM722 562q-3 27 5 71q7 37 42 55q34 19 36 -5q-2 -19 -22 -111q-7 -45 -37 -45q-19 0 -24 35z" />
    <glyph glyph-name="_269" horiz-adv-x="833" 
d="M551 235q6 258 60 475q13 51 60 77q19 11 33 9q16 -2 17 -14q-56 -136 -82 -455q-24 -313 15 -363q39 9 75 9v10q0 253 19 363q6 42 43 66q16 9 25 8q10 0 9 -12q-22 -161 -29 -351q63 55 84 144q9 7 20 -10q12 -20 5 -43q-41 -114 -109 -153q-3 -345 -110 -345
q-40 0 -78 33q-36 32 -54 79q-43 115 42 175q-45 72 -46 245q-47 -30 -202 5q-12 -86 -13 -92q-25 -139 -119 -139q-81 0 -149 104q-67 104 -26 169q42 68 233 36q45 477 0 477q-28 0 -71 -58q-43 -56 -70 -127q-28 -78 -11 -128q19 -58 104 -58q9 -15 -7 -36
q-18 -25 -52 -25q-90 0 -114 77q-21 68 13 169q33 97 95 168q68 77 134 77q65 0 75 -193q8 -152 -14 -357q132 -25 195 -16zM256 91l12 116q-149 33 -166 -23q-13 -41 35 -109q48 -65 88 -65q23 0 31 81zM645 -103q-42 -40 -19 -117q23 -72 55 -73q42 -2 47 200
q-23 -14 -58 -14q-10 0 -25 4zM769 562q-3 29 6 71q8 38 41 55q34 19 37 -5l-22 -111q-7 -45 -37 -45q-20 0 -25 35z" />
    <glyph glyph-name="_270" horiz-adv-x="988" 
d="M264 -36q-32 20 -30 57l18 460q4 262 -28 262q-26 0 -66 -58t-60 -127q-22 -78 -2 -128q24 -58 106 -58q9 -18 -9 -39q-20 -23 -50 -23q-89 0 -118 77q-26 68 3 169q27 98 86 169q65 77 133 77q76 0 76 -246q48 207 136 207q86 0 97 -179q58 216 154 216q46 -1 70 -53
q27 -58 21 -166l-10 -163q-7 -120 -9 -194q-8 -233 23 -258q31 7 65 7v10q0 253 19 363q6 42 43 66q16 9 25 8q11 0 9 -12q-22 -161 -29 -351q63 55 84 144q9 7 20 -10q13 -18 5 -43q-41 -114 -109 -153q-3 -345 -110 -345q-42 0 -79 34t-53 82q-42 117 50 176
q-44 65 -44 244q0 64 14 372q9 173 -15 173q-42 0 -91 -165q-64 -209 -80 -546q-11 -20 -39 1q-32 23 -30 69l6 190l8 197q4 217 -28 217q-28 0 -64 -131q-53 -199 -80 -600q-7 -18 -38 1zM793 -97q-50 -39 -27 -119q23 -76 56 -77q42 -2 47 200q-19 -9 -47 -9q-12 0 -29 5z
M911 562q-4 27 5 71q7 37 42 55q34 19 36 -5q-2 -19 -22 -111q-8 -45 -37 -45q-21 0 -24 35z" />
    <glyph glyph-name="_271" horiz-adv-x="863" 
d="M492 130q49 96 83 234q19 214 53 346q13 51 61 77q19 11 33 9q15 -1 16 -14q-58 -138 -82 -461q-23 -317 17 -357q31 9 73 9v10q0 253 19 363q8 43 44 66q14 9 24 8q11 0 9 -12q-22 -161 -29 -351q65 55 84 144q9 7 21 -10q12 -19 4 -43q-39 -114 -109 -153
q-3 -345 -110 -345q-41 0 -78 33q-35 32 -53 80q-43 115 42 175q-41 64 -46 220q-75 -208 -202 -208q-59 0 -89 56q-29 56 -23 157l15 187q12 139 14 181q12 211 -37 211q-26 0 -69 -58q-44 -59 -68 -127q-27 -80 -9 -128q22 -58 105 -58q9 -21 -9 -40q-17 -20 -48 -20
q-97 0 -124 77q-24 68 10 168q33 97 98 168q71 77 140 77q52 0 77 -64q27 -70 17 -200l-13 -163q-9 -109 -13 -183q-4 -95 3 -129q9 -42 42 -42q51 0 107 110zM665 -100q-44 -40 -22 -118q23 -74 55 -75q42 -2 47 203q-23 -14 -58 -14q-10 0 -22 4zM787 562q-3 27 5 71
q7 37 42 55q34 19 36 -5q-2 -19 -22 -111q-8 -45 -37 -45q-19 0 -24 35z" />
    </font>
</defs>
</svg>
